G04 #@! TF.GenerationSoftware,KiCad,Pcbnew,9.0.6*
G04 #@! TF.CreationDate,2025-12-08T21:00:48+02:00*
G04 #@! TF.ProjectId,tinywhoop_frame,74696e79-7768-46f6-9f70-5f6672616d65,rev?*
G04 #@! TF.SameCoordinates,Original*
G04 #@! TF.FileFunction,Copper,L1,Top*
G04 #@! TF.FilePolarity,Positive*
%FSLAX46Y46*%
G04 Gerber Fmt 4.6, Leading zero omitted, Abs format (unit mm)*
G04 Created by KiCad (PCBNEW 9.0.6) date 2025-12-08 21:00:48*
%MOMM*%
%LPD*%
G01*
G04 APERTURE LIST*
G04 Aperture macros list*
%AMRoundRect*
0 Rectangle with rounded corners*
0 $1 Rounding radius*
0 $2 $3 $4 $5 $6 $7 $8 $9 X,Y pos of 4 corners*
0 Add a 4 corners polygon primitive as box body*
4,1,4,$2,$3,$4,$5,$6,$7,$8,$9,$2,$3,0*
0 Add four circle primitives for the rounded corners*
1,1,$1+$1,$2,$3*
1,1,$1+$1,$4,$5*
1,1,$1+$1,$6,$7*
1,1,$1+$1,$8,$9*
0 Add four rect primitives between the rounded corners*
20,1,$1+$1,$2,$3,$4,$5,0*
20,1,$1+$1,$4,$5,$6,$7,0*
20,1,$1+$1,$6,$7,$8,$9,0*
20,1,$1+$1,$8,$9,$2,$3,0*%
G04 Aperture macros list end*
G04 #@! TA.AperFunction,ComponentPad*
%ADD10C,1.700000*%
G04 #@! TD*
G04 #@! TA.AperFunction,ComponentPad*
%ADD11R,1.700000X1.700000*%
G04 #@! TD*
G04 #@! TA.AperFunction,SMDPad,CuDef*
%ADD12RoundRect,0.150000X-0.150000X0.587500X-0.150000X-0.587500X0.150000X-0.587500X0.150000X0.587500X0*%
G04 #@! TD*
G04 #@! TA.AperFunction,ComponentPad*
%ADD13RoundRect,0.250000X-0.550000X0.550000X-0.550000X-0.550000X0.550000X-0.550000X0.550000X0.550000X0*%
G04 #@! TD*
G04 #@! TA.AperFunction,ComponentPad*
%ADD14C,1.600000*%
G04 #@! TD*
G04 #@! TA.AperFunction,ComponentPad*
%ADD15RoundRect,0.250000X0.550000X0.550000X-0.550000X0.550000X-0.550000X-0.550000X0.550000X-0.550000X0*%
G04 #@! TD*
G04 #@! TA.AperFunction,SMDPad,CuDef*
%ADD16RoundRect,0.150000X0.587500X0.150000X-0.587500X0.150000X-0.587500X-0.150000X0.587500X-0.150000X0*%
G04 #@! TD*
G04 #@! TA.AperFunction,SMDPad,CuDef*
%ADD17RoundRect,0.250000X-0.450000X0.262500X-0.450000X-0.262500X0.450000X-0.262500X0.450000X0.262500X0*%
G04 #@! TD*
G04 #@! TA.AperFunction,SMDPad,CuDef*
%ADD18RoundRect,0.250000X0.450000X-0.262500X0.450000X0.262500X-0.450000X0.262500X-0.450000X-0.262500X0*%
G04 #@! TD*
G04 #@! TA.AperFunction,SMDPad,CuDef*
%ADD19RoundRect,0.150000X-0.587500X-0.150000X0.587500X-0.150000X0.587500X0.150000X-0.587500X0.150000X0*%
G04 #@! TD*
G04 #@! TA.AperFunction,SMDPad,CuDef*
%ADD20RoundRect,0.150000X0.150000X-0.587500X0.150000X0.587500X-0.150000X0.587500X-0.150000X-0.587500X0*%
G04 #@! TD*
G04 #@! TA.AperFunction,SMDPad,CuDef*
%ADD21RoundRect,0.250000X0.262500X0.450000X-0.262500X0.450000X-0.262500X-0.450000X0.262500X-0.450000X0*%
G04 #@! TD*
G04 #@! TA.AperFunction,ComponentPad*
%ADD22RoundRect,0.250000X-0.550000X-0.550000X0.550000X-0.550000X0.550000X0.550000X-0.550000X0.550000X0*%
G04 #@! TD*
G04 #@! TA.AperFunction,ComponentPad*
%ADD23RoundRect,0.250000X0.550000X-0.550000X0.550000X0.550000X-0.550000X0.550000X-0.550000X-0.550000X0*%
G04 #@! TD*
G04 #@! TA.AperFunction,SMDPad,CuDef*
%ADD24RoundRect,0.250000X-0.262500X-0.450000X0.262500X-0.450000X0.262500X0.450000X-0.262500X0.450000X0*%
G04 #@! TD*
G04 #@! TA.AperFunction,ViaPad*
%ADD25C,0.800000*%
G04 #@! TD*
G04 #@! TA.AperFunction,Conductor*
%ADD26C,0.300000*%
G04 #@! TD*
G04 #@! TA.AperFunction,Conductor*
%ADD27C,0.800000*%
G04 #@! TD*
G04 APERTURE END LIST*
D10*
X156920000Y-68000000D03*
X156920000Y-65460000D03*
X159460000Y-68000000D03*
X159460000Y-65460000D03*
X162000000Y-68000000D03*
D11*
X162000000Y-65460000D03*
D12*
X145950000Y-92125000D03*
X144050000Y-92125000D03*
X145000000Y-94000000D03*
D13*
X115000000Y-63200000D03*
D14*
X115000000Y-70820000D03*
D15*
X148800000Y-37000000D03*
D14*
X141180000Y-37000000D03*
D16*
X120000000Y-68000000D03*
X120000000Y-66100000D03*
X118125000Y-67050000D03*
D17*
X167000000Y-66087500D03*
X167000000Y-67912500D03*
D18*
X123000000Y-68000000D03*
X123000000Y-66175000D03*
D19*
X170125000Y-66050000D03*
X170125000Y-67950000D03*
X172000000Y-67000000D03*
D20*
X144050000Y-41875000D03*
X145950000Y-41875000D03*
X145000000Y-40000000D03*
D21*
X145825000Y-89000000D03*
X144000000Y-89000000D03*
D11*
X131500000Y-69580000D03*
D10*
X131500000Y-67040000D03*
X131500000Y-64500000D03*
D22*
X141200000Y-97000000D03*
D14*
X148820000Y-97000000D03*
D11*
X136000000Y-60000000D03*
D10*
X136000000Y-62540000D03*
X136000000Y-65080000D03*
X136000000Y-67620000D03*
X136000000Y-70160000D03*
X136000000Y-72700000D03*
X136000000Y-75240000D03*
D23*
X175000000Y-70800000D03*
D14*
X175000000Y-63180000D03*
D11*
X140460000Y-79000000D03*
D10*
X143000000Y-79000000D03*
D24*
X144175000Y-45000000D03*
X146000000Y-45000000D03*
D11*
X153000000Y-59760000D03*
D10*
X153000000Y-62300000D03*
X153000000Y-64840000D03*
X153000000Y-67380000D03*
X153000000Y-69920000D03*
X153000000Y-72460000D03*
X153000000Y-75000000D03*
D25*
X147500000Y-66000000D03*
X150500000Y-69000000D03*
X140500000Y-68000000D03*
X147500000Y-73000000D03*
X146500000Y-65000000D03*
X141500000Y-73000000D03*
X139500000Y-67000000D03*
X150500000Y-65000000D03*
X138500000Y-66000000D03*
X150500000Y-73000000D03*
X148500000Y-70000000D03*
X148500000Y-68000000D03*
X140500000Y-74000000D03*
X141500000Y-59000000D03*
X147500000Y-65000000D03*
X141500000Y-74000000D03*
X148500000Y-73000000D03*
X149500000Y-73000000D03*
X150500000Y-62000000D03*
X147500000Y-62000000D03*
X148500000Y-76000000D03*
X149500000Y-74000000D03*
X139500000Y-60000000D03*
X148500000Y-61000000D03*
X148500000Y-63000000D03*
X140500000Y-71000000D03*
X149500000Y-76000000D03*
X150500000Y-74000000D03*
X150500000Y-66000000D03*
X148500000Y-71000000D03*
X148500000Y-72000000D03*
X139500000Y-74000000D03*
X150500000Y-72000000D03*
X139500000Y-71000000D03*
X147500000Y-69000000D03*
X148500000Y-64000000D03*
X141500000Y-75000000D03*
X149500000Y-68000000D03*
X149500000Y-61000000D03*
X138500000Y-61000000D03*
X140500000Y-60000000D03*
X139500000Y-66000000D03*
X150500000Y-63000000D03*
X141500000Y-70000000D03*
X138500000Y-72000000D03*
X138500000Y-67000000D03*
X148500000Y-65000000D03*
X147500000Y-70000000D03*
X140500000Y-70000000D03*
X148500000Y-75000000D03*
X147500000Y-76000000D03*
X150500000Y-67000000D03*
X150500000Y-70000000D03*
X148500000Y-62000000D03*
X138500000Y-74000000D03*
X150500000Y-71000000D03*
X149500000Y-65000000D03*
X149500000Y-64000000D03*
X150500000Y-60000000D03*
X149500000Y-60000000D03*
X145500000Y-65000000D03*
X141500000Y-68000000D03*
X149500000Y-70000000D03*
X150500000Y-75000000D03*
X149500000Y-75000000D03*
X148500000Y-67000000D03*
X140500000Y-75000000D03*
X147500000Y-67000000D03*
X139500000Y-61000000D03*
X149500000Y-63000000D03*
X140500000Y-66000000D03*
X141500000Y-72000000D03*
X148500000Y-66000000D03*
X140500000Y-73000000D03*
X140500000Y-69000000D03*
X147500000Y-74000000D03*
X146500000Y-63000000D03*
X150500000Y-61000000D03*
X140500000Y-72000000D03*
X139500000Y-69000000D03*
X146500000Y-67000000D03*
X138500000Y-71000000D03*
X147500000Y-72000000D03*
X141500000Y-67000000D03*
X139500000Y-59000000D03*
X138500000Y-70000000D03*
X140500000Y-59000000D03*
X141500000Y-71000000D03*
X140500000Y-67000000D03*
X146500000Y-64000000D03*
X149500000Y-71000000D03*
X139500000Y-70000000D03*
X138500000Y-68000000D03*
X147500000Y-64000000D03*
X138500000Y-60000000D03*
X141500000Y-60000000D03*
X149500000Y-66000000D03*
X150500000Y-59000000D03*
X138500000Y-69000000D03*
X147500000Y-68000000D03*
X150500000Y-68000000D03*
X147500000Y-75000000D03*
X140500000Y-61000000D03*
X145500000Y-64000000D03*
X138500000Y-59000000D03*
X149500000Y-62000000D03*
X149500000Y-72000000D03*
X147500000Y-63000000D03*
X150500000Y-76000000D03*
X139500000Y-75000000D03*
X141500000Y-69000000D03*
X141500000Y-66000000D03*
X145500000Y-66000000D03*
X150500000Y-64000000D03*
X148500000Y-69000000D03*
X147500000Y-71000000D03*
X138500000Y-75000000D03*
X146500000Y-66000000D03*
X149500000Y-67000000D03*
X139500000Y-68000000D03*
X139500000Y-73000000D03*
X141500000Y-61000000D03*
X149500000Y-69000000D03*
X138500000Y-73000000D03*
X148500000Y-74000000D03*
X139500000Y-72000000D03*
D26*
X153000000Y-75000000D02*
X155000000Y-75000000D01*
X155000000Y-75000000D02*
X162000000Y-68000000D01*
X153000000Y-72460000D02*
X155000000Y-72460000D01*
X155000000Y-72460000D02*
X159460000Y-68000000D01*
X153000000Y-69920000D02*
X154920000Y-68000000D01*
X154920000Y-68000000D02*
X156920000Y-68000000D01*
X153000000Y-67380000D02*
X154920000Y-65460000D01*
X154920000Y-65460000D02*
X156920000Y-65460000D01*
D27*
X154840000Y-63000000D02*
X157000000Y-63000000D01*
X153000000Y-64840000D02*
X154840000Y-63000000D01*
X157000000Y-63000000D02*
X159460000Y-65460000D01*
X153000000Y-59760000D02*
X156300000Y-59760000D01*
X156300000Y-59760000D02*
X162000000Y-65460000D01*
X141200000Y-97000000D02*
X141200000Y-85300000D01*
X143000000Y-83500000D02*
X143000000Y-79000000D01*
X141200000Y-85300000D02*
X143000000Y-83500000D01*
D26*
X167000000Y-67912500D02*
X170087500Y-67912500D01*
X170087500Y-67912500D02*
X170125000Y-67950000D01*
X144050000Y-92125000D02*
X144050000Y-89050000D01*
X146000000Y-41925000D02*
X145950000Y-41875000D01*
X122925000Y-66100000D02*
X123000000Y-66175000D01*
X146000000Y-45000000D02*
X146000000Y-41925000D01*
X144050000Y-89050000D02*
X144000000Y-89000000D01*
X120000000Y-66100000D02*
X122925000Y-66100000D01*
X144175000Y-45000000D02*
X144175000Y-42000000D01*
X144175000Y-42000000D02*
X144050000Y-41875000D01*
X144175000Y-51825000D02*
X136000000Y-60000000D01*
X144175000Y-45000000D02*
X144175000Y-51825000D01*
X145825000Y-68325000D02*
X142500000Y-65000000D01*
X145950000Y-89125000D02*
X145825000Y-89000000D01*
X136080000Y-65000000D02*
X136000000Y-65080000D01*
X145825000Y-89000000D02*
X145825000Y-68325000D01*
X145825000Y-89000000D02*
X145825000Y-92000000D01*
X142500000Y-65000000D02*
X136080000Y-65000000D01*
X145825000Y-92000000D02*
X145950000Y-92125000D01*
X156000000Y-57500000D02*
X150000000Y-57500000D01*
X136040000Y-62500000D02*
X136000000Y-62540000D01*
X150000000Y-57500000D02*
X145000000Y-62500000D01*
X145000000Y-62500000D02*
X136040000Y-62500000D01*
X167000000Y-66087500D02*
X167000000Y-65500000D01*
X167000000Y-66087500D02*
X170087500Y-66087500D01*
X159500000Y-61000000D02*
X156000000Y-57500000D01*
X170087500Y-66087500D02*
X170125000Y-66050000D01*
X167000000Y-65500000D02*
X162500000Y-61000000D01*
X162500000Y-61000000D02*
X159500000Y-61000000D01*
X129500000Y-61500000D02*
X132500000Y-61500000D01*
X132500000Y-61500000D02*
X133500000Y-62500000D01*
X133500000Y-62500000D02*
X133500000Y-65120000D01*
X133500000Y-65120000D02*
X136000000Y-67620000D01*
X123000000Y-68000000D02*
X129500000Y-61500000D01*
X120000000Y-68000000D02*
X123000000Y-68000000D01*
D27*
X141180000Y-37000000D02*
X142000000Y-37000000D01*
X142000000Y-37000000D02*
X145000000Y-40000000D01*
X148000000Y-97000000D02*
X145000000Y-94000000D01*
X148820000Y-97000000D02*
X148000000Y-97000000D01*
X172000000Y-66180000D02*
X175000000Y-63180000D01*
X172000000Y-67000000D02*
X172000000Y-66180000D01*
X115000000Y-70175000D02*
X118125000Y-67050000D01*
X115000000Y-70820000D02*
X115000000Y-70175000D01*
D26*
X132701000Y-68241000D02*
X132701000Y-69401000D01*
X132701000Y-69401000D02*
X136000000Y-72700000D01*
X131500000Y-67040000D02*
X132701000Y-68241000D01*
X131500000Y-69580000D02*
X131500000Y-70740000D01*
X131500000Y-70740000D02*
X136000000Y-75240000D01*
X134799000Y-68959000D02*
X136000000Y-70160000D01*
X131500000Y-64500000D02*
X134799000Y-67799000D01*
X134799000Y-67799000D02*
X134799000Y-68959000D01*
G04 #@! TA.AperFunction,Conductor*
G36*
X145503503Y-22219339D02*
G01*
X145512725Y-22220031D01*
X146008814Y-22275926D01*
X146017960Y-22277305D01*
X146396587Y-22348945D01*
X146508464Y-22370114D01*
X146517504Y-22372177D01*
X146999702Y-22501381D01*
X147008558Y-22504112D01*
X147479758Y-22668992D01*
X147488390Y-22672380D01*
X147945949Y-22872011D01*
X147954303Y-22876035D01*
X148395640Y-23109288D01*
X148403671Y-23113924D01*
X148826367Y-23379521D01*
X148834029Y-23384745D01*
X149235688Y-23681183D01*
X149242930Y-23686959D01*
X149621327Y-24012596D01*
X149628124Y-24018903D01*
X149981096Y-24371875D01*
X149987403Y-24378672D01*
X150313040Y-24757069D01*
X150318822Y-24764319D01*
X150615254Y-25165970D01*
X150620478Y-25173632D01*
X150886075Y-25596328D01*
X150890711Y-25604359D01*
X151123964Y-26045696D01*
X151127988Y-26054050D01*
X151327619Y-26511609D01*
X151331007Y-26520241D01*
X151495885Y-26991435D01*
X151498618Y-27000297D01*
X151627822Y-27482495D01*
X151629885Y-27491535D01*
X151722692Y-27982028D01*
X151724074Y-27991197D01*
X151779967Y-28487262D01*
X151780660Y-28496509D01*
X151799413Y-28997674D01*
X151799500Y-29002311D01*
X151799500Y-51960118D01*
X151799500Y-52039882D01*
X151830024Y-52113574D01*
X151886426Y-52169976D01*
X151960118Y-52200500D01*
X151997875Y-52200500D01*
X152002107Y-52200571D01*
X152528037Y-52218537D01*
X152536460Y-52219114D01*
X153057844Y-52272714D01*
X153066182Y-52273860D01*
X153582685Y-52362915D01*
X153590974Y-52364637D01*
X154100179Y-52488727D01*
X154108293Y-52491000D01*
X154502030Y-52615967D01*
X154607851Y-52649553D01*
X154615829Y-52652388D01*
X154792117Y-52721906D01*
X155103407Y-52844663D01*
X155111153Y-52848029D01*
X155584458Y-53073123D01*
X155591950Y-53077004D01*
X156021195Y-53318357D01*
X156048801Y-53333879D01*
X156056035Y-53338278D01*
X156494288Y-53625728D01*
X156501189Y-53630599D01*
X156918811Y-53947293D01*
X156925356Y-53952618D01*
X157206760Y-54197989D01*
X157320378Y-54297059D01*
X157326566Y-54302838D01*
X157697161Y-54673433D01*
X157702940Y-54679621D01*
X158047379Y-55074640D01*
X158052716Y-55081200D01*
X158369394Y-55498802D01*
X158374277Y-55505719D01*
X158661721Y-55943964D01*
X158666120Y-55951198D01*
X158922988Y-56408036D01*
X158926883Y-56415554D01*
X159151966Y-56888836D01*
X159155340Y-56896602D01*
X159347611Y-57384170D01*
X159350446Y-57392148D01*
X159508993Y-57891687D01*
X159511277Y-57899840D01*
X159635361Y-58409024D01*
X159637084Y-58417314D01*
X159726135Y-58933792D01*
X159727288Y-58942180D01*
X159780884Y-59463526D01*
X159781462Y-59471973D01*
X159799238Y-59992353D01*
X159799239Y-59992361D01*
X159799500Y-60000000D01*
X159799500Y-60039882D01*
X159807549Y-60059315D01*
X159809618Y-60075981D01*
X159806579Y-60094558D01*
X159808591Y-60113273D01*
X159801056Y-60128323D01*
X159798340Y-60144935D01*
X159785741Y-60158919D01*
X159777316Y-60175751D01*
X159762840Y-60184339D01*
X159751574Y-60196845D01*
X159733414Y-60201798D01*
X159717226Y-60211403D01*
X159700404Y-60210801D01*
X159684167Y-60215231D01*
X159666212Y-60209580D01*
X159647401Y-60208908D01*
X159630080Y-60198208D01*
X159617520Y-60194255D01*
X159610985Y-60186412D01*
X159598881Y-60178935D01*
X156414674Y-56994727D01*
X156414673Y-56994726D01*
X156407386Y-56989857D01*
X156308127Y-56923535D01*
X156224356Y-56888836D01*
X156189744Y-56874499D01*
X156189738Y-56874497D01*
X156064071Y-56849500D01*
X156064069Y-56849500D01*
X149935931Y-56849500D01*
X149935929Y-56849500D01*
X149810261Y-56874497D01*
X149810255Y-56874499D01*
X149691874Y-56923534D01*
X149585326Y-56994726D01*
X149585325Y-56994727D01*
X144766873Y-61813181D01*
X144705550Y-61846666D01*
X144679192Y-61849500D01*
X137230814Y-61849500D01*
X137163775Y-61829815D01*
X137130496Y-61798385D01*
X137030109Y-61660214D01*
X137030105Y-61660209D01*
X136916569Y-61546673D01*
X136883084Y-61485350D01*
X136888068Y-61415658D01*
X136929940Y-61359725D01*
X136960915Y-61342810D01*
X137092331Y-61293796D01*
X137207546Y-61207546D01*
X137293796Y-61092331D01*
X137344091Y-60957483D01*
X137350500Y-60897873D01*
X137350499Y-59620806D01*
X137370184Y-59553768D01*
X137386813Y-59533131D01*
X144680277Y-52239669D01*
X144751465Y-52133127D01*
X144800501Y-52014744D01*
X144811367Y-51960118D01*
X144825500Y-51889069D01*
X144825500Y-46161667D01*
X144845185Y-46094628D01*
X144866265Y-46069754D01*
X144874705Y-46062110D01*
X144906156Y-46042712D01*
X145002361Y-45946506D01*
X145004618Y-45944463D01*
X145033417Y-45930541D01*
X145061494Y-45915210D01*
X145064662Y-45915436D01*
X145067523Y-45914054D01*
X145099277Y-45917912D01*
X145131186Y-45920194D01*
X145134246Y-45922160D01*
X145136883Y-45922481D01*
X145144263Y-45928598D01*
X145175534Y-45948695D01*
X145269154Y-46042315D01*
X145418375Y-46134356D01*
X145418380Y-46134358D01*
X145584802Y-46189505D01*
X145584809Y-46189506D01*
X145687519Y-46199999D01*
X146250000Y-46199999D01*
X146312472Y-46199999D01*
X146312486Y-46199998D01*
X146415197Y-46189505D01*
X146581619Y-46134358D01*
X146581624Y-46134356D01*
X146730845Y-46042315D01*
X146854815Y-45918345D01*
X146946856Y-45769124D01*
X146946858Y-45769119D01*
X147002005Y-45602697D01*
X147002006Y-45602690D01*
X147012499Y-45499986D01*
X147012500Y-45499973D01*
X147012500Y-45250000D01*
X146250000Y-45250000D01*
X146250000Y-46199999D01*
X145687519Y-46199999D01*
X145749999Y-46199998D01*
X145750000Y-46199998D01*
X145750000Y-44750000D01*
X146250000Y-44750000D01*
X147012499Y-44750000D01*
X147012499Y-44500028D01*
X147012498Y-44500013D01*
X147002005Y-44397302D01*
X146946858Y-44230880D01*
X146946856Y-44230875D01*
X146854815Y-44081654D01*
X146730845Y-43957684D01*
X146581624Y-43865643D01*
X146581619Y-43865641D01*
X146415197Y-43810494D01*
X146415190Y-43810493D01*
X146312486Y-43800000D01*
X146250000Y-43800000D01*
X146250000Y-44750000D01*
X145750000Y-44750000D01*
X145750000Y-43800000D01*
X145749999Y-43799999D01*
X145687528Y-43800000D01*
X145687511Y-43800001D01*
X145584802Y-43810494D01*
X145418380Y-43865641D01*
X145418375Y-43865643D01*
X145269157Y-43957682D01*
X145175534Y-44051305D01*
X145170310Y-44054157D01*
X145166984Y-44059092D01*
X145139994Y-44070710D01*
X145114210Y-44084789D01*
X145108275Y-44084364D01*
X145102808Y-44086718D01*
X145073826Y-44081900D01*
X145044519Y-44079805D01*
X145038240Y-44075986D01*
X145033884Y-44075262D01*
X145015079Y-44061898D01*
X145004618Y-44055535D01*
X145002340Y-44053472D01*
X144906156Y-43957288D01*
X144874714Y-43937894D01*
X144866265Y-43930243D01*
X144853731Y-43909768D01*
X144837677Y-43891918D01*
X144834650Y-43878597D01*
X144829786Y-43870652D01*
X144830054Y-43858375D01*
X144825500Y-43838331D01*
X144825500Y-42658776D01*
X144830424Y-42624180D01*
X144847598Y-42565069D01*
X144850500Y-42528194D01*
X144850500Y-42528149D01*
X145150000Y-42528149D01*
X145152899Y-42564989D01*
X145152900Y-42564995D01*
X145198716Y-42722693D01*
X145198717Y-42722696D01*
X145282314Y-42864052D01*
X145282321Y-42864061D01*
X145398438Y-42980178D01*
X145398447Y-42980185D01*
X145539801Y-43063781D01*
X145697514Y-43109600D01*
X145697511Y-43109600D01*
X145699998Y-43109795D01*
X145700000Y-43109795D01*
X146200000Y-43109795D01*
X146200001Y-43109795D01*
X146202486Y-43109600D01*
X146360198Y-43063781D01*
X146501552Y-42980185D01*
X146501561Y-42980178D01*
X146617678Y-42864061D01*
X146617685Y-42864052D01*
X146701282Y-42722696D01*
X146701283Y-42722693D01*
X146747099Y-42564995D01*
X146747100Y-42564989D01*
X146749999Y-42528149D01*
X146750000Y-42528134D01*
X146750000Y-42125000D01*
X146200000Y-42125000D01*
X146200000Y-43109795D01*
X145700000Y-43109795D01*
X145700000Y-42125000D01*
X145150000Y-42125000D01*
X145150000Y-42528149D01*
X144850500Y-42528149D01*
X144850500Y-41362000D01*
X144870185Y-41294961D01*
X144922989Y-41249206D01*
X144974500Y-41238000D01*
X145026000Y-41238000D01*
X145093039Y-41257685D01*
X145138794Y-41310489D01*
X145150000Y-41362000D01*
X145150000Y-41625000D01*
X145700000Y-41625000D01*
X146200000Y-41625000D01*
X146750000Y-41625000D01*
X146750000Y-41221865D01*
X146749999Y-41221850D01*
X146747100Y-41185010D01*
X146747099Y-41185004D01*
X146701283Y-41027306D01*
X146701282Y-41027303D01*
X146617685Y-40885947D01*
X146617678Y-40885938D01*
X146501561Y-40769821D01*
X146501552Y-40769814D01*
X146360196Y-40686217D01*
X146360193Y-40686216D01*
X146202494Y-40640400D01*
X146202497Y-40640400D01*
X146200000Y-40640203D01*
X146200000Y-41625000D01*
X145700000Y-41625000D01*
X145700000Y-40969314D01*
X145717267Y-40906194D01*
X145751744Y-40847898D01*
X145797598Y-40690069D01*
X145800500Y-40653194D01*
X145800500Y-40445207D01*
X145809939Y-40397754D01*
X145865895Y-40262666D01*
X145900500Y-40088692D01*
X145900500Y-39911309D01*
X145865895Y-39737334D01*
X145809939Y-39602245D01*
X145800500Y-39554792D01*
X145800500Y-39346813D01*
X145800499Y-39346798D01*
X145797598Y-39309932D01*
X145797597Y-39309926D01*
X145751745Y-39152106D01*
X145751744Y-39152103D01*
X145751744Y-39152102D01*
X145668081Y-39010635D01*
X145668079Y-39010633D01*
X145668076Y-39010629D01*
X145551870Y-38894423D01*
X145551862Y-38894417D01*
X145410396Y-38810755D01*
X145410393Y-38810754D01*
X145252573Y-38764902D01*
X145252567Y-38764901D01*
X145215701Y-38762000D01*
X145215694Y-38762000D01*
X145086861Y-38762000D01*
X145019822Y-38742315D01*
X144999180Y-38725681D01*
X142758015Y-36484515D01*
X142673483Y-36399983D01*
X147499500Y-36399983D01*
X147499500Y-37600001D01*
X147499501Y-37600018D01*
X147510000Y-37702796D01*
X147510001Y-37702799D01*
X147557856Y-37847213D01*
X147565186Y-37869334D01*
X147657288Y-38018656D01*
X147781344Y-38142712D01*
X147930666Y-38234814D01*
X148097203Y-38289999D01*
X148199991Y-38300500D01*
X149400008Y-38300499D01*
X149502797Y-38289999D01*
X149669334Y-38234814D01*
X149818656Y-38142712D01*
X149942712Y-38018656D01*
X150034814Y-37869334D01*
X150089999Y-37702797D01*
X150100500Y-37600009D01*
X150100499Y-36399992D01*
X150089999Y-36297203D01*
X150034814Y-36130666D01*
X149942712Y-35981344D01*
X149818656Y-35857288D01*
X149669334Y-35765186D01*
X149502797Y-35710001D01*
X149502795Y-35710000D01*
X149400010Y-35699500D01*
X148199998Y-35699500D01*
X148199981Y-35699501D01*
X148097203Y-35710000D01*
X148097200Y-35710001D01*
X147930668Y-35765185D01*
X147930663Y-35765187D01*
X147781342Y-35857289D01*
X147657289Y-35981342D01*
X147565187Y-36130663D01*
X147565185Y-36130668D01*
X147537349Y-36214670D01*
X147510001Y-36297203D01*
X147510001Y-36297204D01*
X147510000Y-36297204D01*
X147499500Y-36399983D01*
X142673483Y-36399983D01*
X142574035Y-36300535D01*
X142574030Y-36300531D01*
X142519622Y-36264178D01*
X142519616Y-36264175D01*
X142514959Y-36261063D01*
X142426547Y-36201987D01*
X142344606Y-36168046D01*
X142307765Y-36152786D01*
X142262666Y-36134105D01*
X142262659Y-36134103D01*
X142163024Y-36114285D01*
X142101113Y-36081901D01*
X142099534Y-36080349D01*
X142027213Y-36008028D01*
X141861613Y-35887715D01*
X141861612Y-35887714D01*
X141861610Y-35887713D01*
X141801898Y-35857288D01*
X141679223Y-35794781D01*
X141484534Y-35731522D01*
X141309995Y-35703878D01*
X141282352Y-35699500D01*
X141077648Y-35699500D01*
X141053329Y-35703351D01*
X140875465Y-35731522D01*
X140680776Y-35794781D01*
X140498386Y-35887715D01*
X140332786Y-36008028D01*
X140188028Y-36152786D01*
X140067715Y-36318386D01*
X139974781Y-36500776D01*
X139911522Y-36695465D01*
X139879500Y-36897648D01*
X139879500Y-37102351D01*
X139911522Y-37304534D01*
X139974781Y-37499223D01*
X140067715Y-37681613D01*
X140188028Y-37847213D01*
X140332786Y-37991971D01*
X140487749Y-38104556D01*
X140498390Y-38112287D01*
X140593781Y-38160891D01*
X140680776Y-38205218D01*
X140680778Y-38205218D01*
X140680781Y-38205220D01*
X140771856Y-38234812D01*
X140875465Y-38268477D01*
X140976557Y-38284488D01*
X141077648Y-38300500D01*
X141077649Y-38300500D01*
X141282351Y-38300500D01*
X141282352Y-38300500D01*
X141484534Y-38268477D01*
X141679219Y-38205220D01*
X141766219Y-38160890D01*
X141834886Y-38147994D01*
X141899627Y-38174270D01*
X141910194Y-38183694D01*
X144151820Y-40425319D01*
X144185305Y-40486642D01*
X144180321Y-40556334D01*
X144138449Y-40612267D01*
X144072985Y-40636684D01*
X144064139Y-40637000D01*
X143834298Y-40637000D01*
X143797432Y-40639901D01*
X143797426Y-40639902D01*
X143639606Y-40685754D01*
X143639603Y-40685755D01*
X143498137Y-40769417D01*
X143498129Y-40769423D01*
X143381923Y-40885629D01*
X143381917Y-40885637D01*
X143298255Y-41027103D01*
X143298254Y-41027106D01*
X143252402Y-41184926D01*
X143252401Y-41184932D01*
X143249500Y-41221798D01*
X143249500Y-42528201D01*
X143252401Y-42565067D01*
X143252402Y-42565073D01*
X143298254Y-42722893D01*
X143298255Y-42722896D01*
X143381917Y-42864362D01*
X143381923Y-42864370D01*
X143488181Y-42970628D01*
X143521666Y-43031951D01*
X143524500Y-43058309D01*
X143524500Y-43838331D01*
X143504815Y-43905370D01*
X143465600Y-43943868D01*
X143443843Y-43957288D01*
X143319789Y-44081342D01*
X143227687Y-44230663D01*
X143227685Y-44230668D01*
X143227615Y-44230880D01*
X143172501Y-44397203D01*
X143172501Y-44397204D01*
X143172500Y-44397204D01*
X143162000Y-44499983D01*
X143162000Y-45500001D01*
X143162001Y-45500019D01*
X143172500Y-45602796D01*
X143172501Y-45602799D01*
X143227615Y-45769119D01*
X143227686Y-45769334D01*
X143319788Y-45918656D01*
X143443844Y-46042712D01*
X143465594Y-46056127D01*
X143512320Y-46108073D01*
X143524500Y-46161667D01*
X143524500Y-51504191D01*
X143504815Y-51571230D01*
X143488181Y-51591872D01*
X136466871Y-58613181D01*
X136405548Y-58646666D01*
X136379190Y-58649500D01*
X135102129Y-58649500D01*
X135102123Y-58649501D01*
X135042516Y-58655908D01*
X134907671Y-58706202D01*
X134907664Y-58706206D01*
X134792455Y-58792452D01*
X134792452Y-58792455D01*
X134706206Y-58907664D01*
X134706202Y-58907671D01*
X134655908Y-59042517D01*
X134649501Y-59102116D01*
X134649500Y-59102135D01*
X134649500Y-60897870D01*
X134649501Y-60897876D01*
X134655908Y-60957483D01*
X134706202Y-61092328D01*
X134706206Y-61092335D01*
X134792452Y-61207544D01*
X134792455Y-61207547D01*
X134907664Y-61293793D01*
X134907671Y-61293797D01*
X135039082Y-61342810D01*
X135095016Y-61384681D01*
X135119433Y-61450145D01*
X135104582Y-61518418D01*
X135083431Y-61546673D01*
X134969889Y-61660215D01*
X134844951Y-61832179D01*
X134748444Y-62021585D01*
X134682753Y-62223760D01*
X134649500Y-62433713D01*
X134649500Y-62646286D01*
X134677141Y-62820808D01*
X134682754Y-62856243D01*
X134731178Y-63005277D01*
X134748444Y-63058414D01*
X134844951Y-63247820D01*
X134969890Y-63419786D01*
X135120213Y-63570109D01*
X135292182Y-63695050D01*
X135300946Y-63699516D01*
X135351742Y-63747491D01*
X135368536Y-63815312D01*
X135345998Y-63881447D01*
X135300946Y-63920484D01*
X135292182Y-63924949D01*
X135120213Y-64049890D01*
X134969890Y-64200213D01*
X134844951Y-64372179D01*
X134748444Y-64561585D01*
X134682753Y-64763760D01*
X134649500Y-64973713D01*
X134649500Y-65050192D01*
X134629815Y-65117231D01*
X134577011Y-65162986D01*
X134507853Y-65172930D01*
X134444297Y-65143905D01*
X134437819Y-65137873D01*
X134186819Y-64886873D01*
X134153334Y-64825550D01*
X134150500Y-64799192D01*
X134150500Y-62435928D01*
X134125502Y-62310261D01*
X134125501Y-62310260D01*
X134125501Y-62310256D01*
X134080655Y-62201988D01*
X134076466Y-62191874D01*
X134005277Y-62085331D01*
X134005275Y-62085329D01*
X134005273Y-62085326D01*
X132914673Y-60994726D01*
X132808125Y-60923533D01*
X132689747Y-60874500D01*
X132689745Y-60874499D01*
X132688118Y-60874175D01*
X132686542Y-60873862D01*
X132686536Y-60873860D01*
X132564071Y-60849500D01*
X132564069Y-60849500D01*
X129435931Y-60849500D01*
X129435929Y-60849500D01*
X129313463Y-60873860D01*
X129313458Y-60873862D01*
X129312413Y-60874069D01*
X129310254Y-60874499D01*
X129310252Y-60874500D01*
X129191876Y-60923533D01*
X129191866Y-60923538D01*
X129085331Y-60994723D01*
X129085327Y-60994726D01*
X124364199Y-65715853D01*
X124302876Y-65749338D01*
X124233184Y-65744354D01*
X124177251Y-65702482D01*
X124158812Y-65667176D01*
X124134358Y-65593380D01*
X124134356Y-65593375D01*
X124042315Y-65444154D01*
X123918345Y-65320184D01*
X123769124Y-65228143D01*
X123769119Y-65228141D01*
X123602697Y-65172994D01*
X123602690Y-65172993D01*
X123499986Y-65162500D01*
X123250000Y-65162500D01*
X123250000Y-66051000D01*
X123230315Y-66118039D01*
X123177511Y-66163794D01*
X123126000Y-66175000D01*
X123000000Y-66175000D01*
X123000000Y-66301000D01*
X122980315Y-66368039D01*
X122927511Y-66413794D01*
X122876000Y-66425000D01*
X121800001Y-66425000D01*
X121800001Y-66487486D01*
X121810494Y-66590197D01*
X121865641Y-66756619D01*
X121865643Y-66756624D01*
X121957684Y-66905845D01*
X122051304Y-66999465D01*
X122054155Y-67004687D01*
X122059091Y-67008014D01*
X122070710Y-67035004D01*
X122084789Y-67060788D01*
X122084364Y-67066723D01*
X122086718Y-67072190D01*
X122081900Y-67101175D01*
X122079805Y-67130480D01*
X122075987Y-67136757D01*
X122075263Y-67141114D01*
X122061899Y-67159919D01*
X122055536Y-67170381D01*
X122053473Y-67172658D01*
X121957288Y-67268844D01*
X121937890Y-67300292D01*
X121930245Y-67308735D01*
X121909769Y-67321268D01*
X121891922Y-67337322D01*
X121878598Y-67340349D01*
X121870654Y-67345213D01*
X121858379Y-67344944D01*
X121838332Y-67349500D01*
X121053016Y-67349500D01*
X120989895Y-67332232D01*
X120882711Y-67268844D01*
X120847898Y-67248256D01*
X120847897Y-67248255D01*
X120847896Y-67248255D01*
X120847893Y-67248254D01*
X120690073Y-67202402D01*
X120690067Y-67202401D01*
X120653201Y-67199500D01*
X120653194Y-67199500D01*
X119487000Y-67199500D01*
X119478314Y-67196949D01*
X119469353Y-67198238D01*
X119445312Y-67187259D01*
X119419961Y-67179815D01*
X119414033Y-67172974D01*
X119405797Y-67169213D01*
X119391507Y-67146978D01*
X119374206Y-67127011D01*
X119371918Y-67116496D01*
X119368023Y-67110435D01*
X119363000Y-67075500D01*
X119363000Y-67024000D01*
X119382685Y-66956961D01*
X119435489Y-66911206D01*
X119487000Y-66900000D01*
X119750000Y-66900000D01*
X120250000Y-66900000D01*
X120653134Y-66900000D01*
X120653149Y-66899999D01*
X120689989Y-66897100D01*
X120689995Y-66897099D01*
X120847693Y-66851283D01*
X120847696Y-66851282D01*
X120989052Y-66767685D01*
X120989061Y-66767678D01*
X121105178Y-66651561D01*
X121105185Y-66651552D01*
X121188781Y-66510198D01*
X121234600Y-66352486D01*
X121234795Y-66350001D01*
X121234795Y-66350000D01*
X120250000Y-66350000D01*
X120250000Y-66900000D01*
X119750000Y-66900000D01*
X119750000Y-66350000D01*
X119094315Y-66350000D01*
X119031194Y-66332732D01*
X118972896Y-66298255D01*
X118972893Y-66298254D01*
X118815073Y-66252402D01*
X118815067Y-66252401D01*
X118778201Y-66249500D01*
X118778194Y-66249500D01*
X118570204Y-66249500D01*
X118549263Y-66243351D01*
X118522751Y-66240061D01*
X118387666Y-66184106D01*
X118387658Y-66184104D01*
X118213694Y-66149500D01*
X118213691Y-66149500D01*
X118036308Y-66149500D01*
X118036306Y-66149500D01*
X117862339Y-66184104D01*
X117862333Y-66184106D01*
X117828098Y-66198287D01*
X117728569Y-66239514D01*
X117727248Y-66240061D01*
X117679795Y-66249500D01*
X117471798Y-66249500D01*
X117434932Y-66252401D01*
X117434926Y-66252402D01*
X117277106Y-66298254D01*
X117277103Y-66298255D01*
X117135637Y-66381917D01*
X117135629Y-66381923D01*
X117019423Y-66498129D01*
X117019417Y-66498137D01*
X116935755Y-66639603D01*
X116935754Y-66639606D01*
X116889902Y-66797426D01*
X116889901Y-66797432D01*
X116887000Y-66834298D01*
X116887000Y-66963137D01*
X116867315Y-67030176D01*
X116850681Y-67050818D01*
X114300540Y-69600958D01*
X114300536Y-69600964D01*
X114293247Y-69611873D01*
X114293246Y-69611873D01*
X114201990Y-69748446D01*
X114201985Y-69748455D01*
X114189305Y-69779067D01*
X114155284Y-69825895D01*
X114152787Y-69828027D01*
X114008027Y-69972788D01*
X113887715Y-70138386D01*
X113794781Y-70320776D01*
X113731522Y-70515465D01*
X113706677Y-70672335D01*
X113699500Y-70717648D01*
X113699500Y-70922352D01*
X113700740Y-70930182D01*
X113731522Y-71124534D01*
X113794781Y-71319223D01*
X113848521Y-71424692D01*
X113883077Y-71492512D01*
X113887715Y-71501613D01*
X114008028Y-71667213D01*
X114152786Y-71811971D01*
X114307749Y-71924556D01*
X114318390Y-71932287D01*
X114414183Y-71981096D01*
X114500776Y-72025218D01*
X114500778Y-72025218D01*
X114500781Y-72025220D01*
X114605137Y-72059127D01*
X114695465Y-72088477D01*
X114771375Y-72100500D01*
X114897648Y-72120500D01*
X114897649Y-72120500D01*
X115102351Y-72120500D01*
X115102352Y-72120500D01*
X115304534Y-72088477D01*
X115499219Y-72025220D01*
X115681610Y-71932287D01*
X115774590Y-71864732D01*
X115847213Y-71811971D01*
X115847215Y-71811968D01*
X115847219Y-71811966D01*
X115991966Y-71667219D01*
X115991968Y-71667215D01*
X115991971Y-71667213D01*
X116080798Y-71544951D01*
X116112287Y-71501610D01*
X116205220Y-71319219D01*
X116268477Y-71124534D01*
X116300500Y-70922352D01*
X116300500Y-70717648D01*
X116282202Y-70602120D01*
X116268477Y-70515465D01*
X116243441Y-70438414D01*
X116209693Y-70334550D01*
X116207699Y-70264713D01*
X116239942Y-70208556D01*
X118550319Y-67898180D01*
X118611642Y-67864695D01*
X118681334Y-67869679D01*
X118737267Y-67911551D01*
X118761684Y-67977015D01*
X118762000Y-67985861D01*
X118762000Y-68215701D01*
X118764901Y-68252567D01*
X118764902Y-68252573D01*
X118810754Y-68410393D01*
X118810755Y-68410396D01*
X118894417Y-68551862D01*
X118894423Y-68551870D01*
X119010629Y-68668076D01*
X119010633Y-68668079D01*
X119010635Y-68668081D01*
X119152102Y-68751744D01*
X119182185Y-68760484D01*
X119309926Y-68797597D01*
X119309929Y-68797597D01*
X119309931Y-68797598D01*
X119346806Y-68800500D01*
X119346814Y-68800500D01*
X120653186Y-68800500D01*
X120653194Y-68800500D01*
X120690069Y-68797598D01*
X120690071Y-68797597D01*
X120690073Y-68797597D01*
X120752314Y-68779514D01*
X120847898Y-68751744D01*
X120965601Y-68682135D01*
X120989895Y-68667768D01*
X121053016Y-68650500D01*
X121838332Y-68650500D01*
X121905371Y-68670185D01*
X121943870Y-68709403D01*
X121957285Y-68731152D01*
X121957288Y-68731156D01*
X122081344Y-68855212D01*
X122230666Y-68947314D01*
X122397203Y-69002499D01*
X122499991Y-69013000D01*
X123500008Y-69012999D01*
X123500016Y-69012998D01*
X123500019Y-69012998D01*
X123578793Y-69004951D01*
X123602797Y-69002499D01*
X123769334Y-68947314D01*
X123918656Y-68855212D01*
X124042712Y-68731156D01*
X124134814Y-68581834D01*
X124189999Y-68415297D01*
X124200500Y-68312509D01*
X124200499Y-67770806D01*
X124220183Y-67703768D01*
X124236813Y-67683131D01*
X129733126Y-62186819D01*
X129794449Y-62153334D01*
X129820807Y-62150500D01*
X132179192Y-62150500D01*
X132246231Y-62170185D01*
X132266873Y-62186819D01*
X132813181Y-62733127D01*
X132846666Y-62794450D01*
X132849500Y-62820808D01*
X132849500Y-63678186D01*
X132829815Y-63745225D01*
X132777011Y-63790980D01*
X132707853Y-63800924D01*
X132644297Y-63771899D01*
X132625182Y-63751071D01*
X132530109Y-63620214D01*
X132530105Y-63620209D01*
X132379786Y-63469890D01*
X132207820Y-63344951D01*
X132018414Y-63248444D01*
X132018413Y-63248443D01*
X132018412Y-63248443D01*
X131816243Y-63182754D01*
X131816241Y-63182753D01*
X131816240Y-63182753D01*
X131645034Y-63155637D01*
X131606287Y-63149500D01*
X131393713Y-63149500D01*
X131354966Y-63155637D01*
X131183760Y-63182753D01*
X130981585Y-63248444D01*
X130792179Y-63344951D01*
X130620213Y-63469890D01*
X130469890Y-63620213D01*
X130344951Y-63792179D01*
X130248444Y-63981585D01*
X130182753Y-64183760D01*
X130149500Y-64393713D01*
X130149500Y-64606286D01*
X130179065Y-64792956D01*
X130182754Y-64816243D01*
X130233919Y-64973713D01*
X130248444Y-65018414D01*
X130344951Y-65207820D01*
X130469890Y-65379786D01*
X130620213Y-65530109D01*
X130792182Y-65655050D01*
X130800946Y-65659516D01*
X130851742Y-65707491D01*
X130868536Y-65775312D01*
X130845998Y-65841447D01*
X130800946Y-65880484D01*
X130792182Y-65884949D01*
X130620213Y-66009890D01*
X130469890Y-66160213D01*
X130344951Y-66332179D01*
X130248444Y-66521585D01*
X130182753Y-66723760D01*
X130157883Y-66880787D01*
X130149500Y-66933713D01*
X130149500Y-67146287D01*
X130151659Y-67159919D01*
X130180236Y-67340349D01*
X130182754Y-67356243D01*
X130246317Y-67551870D01*
X130248444Y-67558414D01*
X130344951Y-67747820D01*
X130469890Y-67919786D01*
X130583430Y-68033326D01*
X130616915Y-68094649D01*
X130611931Y-68164341D01*
X130570059Y-68220274D01*
X130539083Y-68237189D01*
X130407669Y-68286203D01*
X130407664Y-68286206D01*
X130292455Y-68372452D01*
X130292452Y-68372455D01*
X130206206Y-68487664D01*
X130206202Y-68487671D01*
X130155908Y-68622517D01*
X130149501Y-68682116D01*
X130149500Y-68682135D01*
X130149500Y-70477870D01*
X130149501Y-70477876D01*
X130155908Y-70537483D01*
X130206202Y-70672328D01*
X130206206Y-70672335D01*
X130292452Y-70787544D01*
X130292455Y-70787547D01*
X130407664Y-70873793D01*
X130407671Y-70873797D01*
X130452618Y-70890561D01*
X130542517Y-70924091D01*
X130602127Y-70930500D01*
X130791957Y-70930499D01*
X130858996Y-70950183D01*
X130904751Y-71002987D01*
X130906517Y-71007044D01*
X130923532Y-71048120D01*
X130923535Y-71048127D01*
X130970593Y-71118556D01*
X130994726Y-71154673D01*
X130994727Y-71154674D01*
X134649342Y-74809288D01*
X134682827Y-74870611D01*
X134682319Y-74918755D01*
X134683516Y-74918945D01*
X134649500Y-75133713D01*
X134649500Y-75346286D01*
X134674681Y-75505277D01*
X134682754Y-75556243D01*
X134732003Y-75707816D01*
X134748444Y-75758414D01*
X134844951Y-75947820D01*
X134969890Y-76119786D01*
X135120213Y-76270109D01*
X135292179Y-76395048D01*
X135292181Y-76395049D01*
X135292184Y-76395051D01*
X135481588Y-76491557D01*
X135683757Y-76557246D01*
X135893713Y-76590500D01*
X135893714Y-76590500D01*
X136106286Y-76590500D01*
X136106287Y-76590500D01*
X136316243Y-76557246D01*
X136518412Y-76491557D01*
X136707816Y-76395051D01*
X136769136Y-76350500D01*
X136879786Y-76270109D01*
X136879788Y-76270106D01*
X136879792Y-76270104D01*
X137030104Y-76119792D01*
X137030106Y-76119788D01*
X137030109Y-76119786D01*
X137155048Y-75947820D01*
X137155047Y-75947820D01*
X137155051Y-75947816D01*
X137251557Y-75758412D01*
X137317246Y-75556243D01*
X137350500Y-75346287D01*
X137350500Y-75133713D01*
X137317246Y-74923757D01*
X137251557Y-74721588D01*
X137155051Y-74532184D01*
X137155049Y-74532181D01*
X137155048Y-74532179D01*
X137030109Y-74360213D01*
X136879786Y-74209890D01*
X136707820Y-74084951D01*
X136707115Y-74084591D01*
X136699054Y-74080485D01*
X136648259Y-74032512D01*
X136631463Y-73964692D01*
X136653999Y-73898556D01*
X136699054Y-73859515D01*
X136707816Y-73855051D01*
X136784396Y-73799413D01*
X136879786Y-73730109D01*
X136879788Y-73730106D01*
X136879792Y-73730104D01*
X137030104Y-73579792D01*
X137030106Y-73579788D01*
X137030109Y-73579786D01*
X137155048Y-73407820D01*
X137155047Y-73407820D01*
X137155051Y-73407816D01*
X137251557Y-73218412D01*
X137317246Y-73016243D01*
X137350500Y-72806287D01*
X137350500Y-72593713D01*
X137317246Y-72383757D01*
X137251557Y-72181588D01*
X137155051Y-71992184D01*
X137155049Y-71992181D01*
X137155048Y-71992179D01*
X137030109Y-71820213D01*
X136879786Y-71669890D01*
X136707820Y-71544951D01*
X136707115Y-71544591D01*
X136699054Y-71540485D01*
X136648259Y-71492512D01*
X136631463Y-71424692D01*
X136653999Y-71358556D01*
X136699054Y-71319515D01*
X136707816Y-71315051D01*
X136781596Y-71261447D01*
X136879786Y-71190109D01*
X136879788Y-71190106D01*
X136879792Y-71190104D01*
X137030104Y-71039792D01*
X137030106Y-71039788D01*
X137030109Y-71039786D01*
X137155048Y-70867820D01*
X137155047Y-70867820D01*
X137155051Y-70867816D01*
X137251557Y-70678412D01*
X137317246Y-70476243D01*
X137350500Y-70266287D01*
X137350500Y-70053713D01*
X137317246Y-69843757D01*
X137251557Y-69641588D01*
X137155051Y-69452184D01*
X137155049Y-69452181D01*
X137155048Y-69452179D01*
X137030109Y-69280213D01*
X136879786Y-69129890D01*
X136707820Y-69004951D01*
X136706322Y-69004188D01*
X136699054Y-69000485D01*
X136648259Y-68952512D01*
X136631463Y-68884692D01*
X136653999Y-68818556D01*
X136699054Y-68779515D01*
X136707816Y-68775051D01*
X136746289Y-68747099D01*
X136879786Y-68650109D01*
X136879788Y-68650106D01*
X136879792Y-68650104D01*
X137030104Y-68499792D01*
X137030106Y-68499788D01*
X137030109Y-68499786D01*
X137155048Y-68327820D01*
X137155047Y-68327820D01*
X137155051Y-68327816D01*
X137251557Y-68138412D01*
X137317246Y-67936243D01*
X137350500Y-67726287D01*
X137350500Y-67513713D01*
X137317246Y-67303757D01*
X137251557Y-67101588D01*
X137155051Y-66912184D01*
X137155049Y-66912181D01*
X137155048Y-66912179D01*
X137030109Y-66740213D01*
X136879786Y-66589890D01*
X136707820Y-66464951D01*
X136707115Y-66464591D01*
X136699054Y-66460485D01*
X136648259Y-66412512D01*
X136631463Y-66344692D01*
X136653999Y-66278556D01*
X136699054Y-66239515D01*
X136707816Y-66235051D01*
X136758418Y-66198287D01*
X136879786Y-66110109D01*
X136879788Y-66110106D01*
X136879792Y-66110104D01*
X137030104Y-65959792D01*
X137030106Y-65959788D01*
X137030109Y-65959786D01*
X137155050Y-65787817D01*
X137161586Y-65774991D01*
X137177196Y-65744354D01*
X137190521Y-65718204D01*
X137238495Y-65667409D01*
X137301005Y-65650500D01*
X142179192Y-65650500D01*
X142246231Y-65670185D01*
X142266873Y-65686819D01*
X145138181Y-68558127D01*
X145171666Y-68619450D01*
X145174500Y-68645808D01*
X145174500Y-87838331D01*
X145154815Y-87905370D01*
X145133735Y-87930244D01*
X145125289Y-87937892D01*
X145093844Y-87957288D01*
X144997658Y-88053473D01*
X144995381Y-88055536D01*
X144966575Y-88069460D01*
X144938503Y-88084789D01*
X144935335Y-88084562D01*
X144932476Y-88085945D01*
X144900724Y-88082087D01*
X144868812Y-88079805D01*
X144865751Y-88077838D01*
X144863117Y-88077518D01*
X144855742Y-88071405D01*
X144824465Y-88051304D01*
X144730845Y-87957684D01*
X144581624Y-87865643D01*
X144581619Y-87865641D01*
X144415197Y-87810494D01*
X144415190Y-87810493D01*
X144312486Y-87800000D01*
X144250000Y-87800000D01*
X144250000Y-90199999D01*
X144312472Y-90199999D01*
X144312486Y-90199998D01*
X144415197Y-90189505D01*
X144581619Y-90134358D01*
X144581624Y-90134356D01*
X144730842Y-90042317D01*
X144824464Y-89948695D01*
X144829687Y-89945842D01*
X144833014Y-89940908D01*
X144859999Y-89929290D01*
X144885787Y-89915210D01*
X144891722Y-89915634D01*
X144897190Y-89913281D01*
X144926176Y-89918098D01*
X144955479Y-89920194D01*
X144961755Y-89924011D01*
X144966114Y-89924736D01*
X144984915Y-89938097D01*
X144995381Y-89944463D01*
X144997647Y-89946515D01*
X145093844Y-90042712D01*
X145125294Y-90062110D01*
X145133735Y-90069754D01*
X145146267Y-90090227D01*
X145162320Y-90108073D01*
X145165348Y-90121397D01*
X145170213Y-90129345D01*
X145169944Y-90141621D01*
X145174500Y-90161667D01*
X145174500Y-91341222D01*
X145169576Y-91375817D01*
X145152403Y-91434924D01*
X145152401Y-91434936D01*
X145149500Y-91471798D01*
X145149500Y-92638000D01*
X145146949Y-92646685D01*
X145148238Y-92655647D01*
X145137259Y-92679687D01*
X145129815Y-92705039D01*
X145122974Y-92710966D01*
X145119213Y-92719203D01*
X145096978Y-92733492D01*
X145077011Y-92750794D01*
X145066496Y-92753081D01*
X145060435Y-92756977D01*
X145025500Y-92762000D01*
X144974000Y-92762000D01*
X144906961Y-92742315D01*
X144861206Y-92689511D01*
X144850000Y-92638000D01*
X144850000Y-92375000D01*
X144300000Y-92375000D01*
X144300000Y-93030684D01*
X144282733Y-93093804D01*
X144248254Y-93152105D01*
X144248254Y-93152106D01*
X144202402Y-93309926D01*
X144202401Y-93309932D01*
X144199500Y-93346798D01*
X144199500Y-93554793D01*
X144190061Y-93602246D01*
X144134105Y-93737333D01*
X144134103Y-93737341D01*
X144099500Y-93911303D01*
X144099500Y-94088696D01*
X144134103Y-94262658D01*
X144134105Y-94262666D01*
X144190061Y-94397753D01*
X144199500Y-94445206D01*
X144199500Y-94653201D01*
X144202401Y-94690067D01*
X144202402Y-94690073D01*
X144248254Y-94847893D01*
X144248255Y-94847896D01*
X144331917Y-94989362D01*
X144331923Y-94989370D01*
X144448129Y-95105576D01*
X144448133Y-95105579D01*
X144448135Y-95105581D01*
X144589602Y-95189244D01*
X144631224Y-95201336D01*
X144747426Y-95235097D01*
X144747429Y-95235097D01*
X144747431Y-95235098D01*
X144784306Y-95238000D01*
X144913138Y-95238000D01*
X144980177Y-95257685D01*
X145000819Y-95274319D01*
X147300536Y-97574035D01*
X147408111Y-97681610D01*
X147425966Y-97699465D01*
X147430953Y-97702797D01*
X147573453Y-97798013D01*
X147621452Y-97817895D01*
X147737334Y-97865895D01*
X147836976Y-97885714D01*
X147898885Y-97918098D01*
X147900465Y-97919650D01*
X147972786Y-97991971D01*
X148127749Y-98104556D01*
X148138390Y-98112287D01*
X148254607Y-98171503D01*
X148320776Y-98205218D01*
X148320778Y-98205218D01*
X148320781Y-98205220D01*
X148411856Y-98234812D01*
X148515465Y-98268477D01*
X148616557Y-98284488D01*
X148717648Y-98300500D01*
X148717649Y-98300500D01*
X148922351Y-98300500D01*
X148922352Y-98300500D01*
X149124534Y-98268477D01*
X149319219Y-98205220D01*
X149501610Y-98112287D01*
X149630482Y-98018657D01*
X149667213Y-97991971D01*
X149667215Y-97991968D01*
X149667219Y-97991966D01*
X149811966Y-97847219D01*
X149811968Y-97847215D01*
X149811971Y-97847213D01*
X149916892Y-97702799D01*
X149932287Y-97681610D01*
X150025220Y-97499219D01*
X150088477Y-97304534D01*
X150120500Y-97102352D01*
X150120500Y-96897648D01*
X150088477Y-96695466D01*
X150025220Y-96500781D01*
X150025218Y-96500778D01*
X150025218Y-96500776D01*
X149973865Y-96399991D01*
X149932287Y-96318390D01*
X149916892Y-96297200D01*
X149811971Y-96152786D01*
X149667213Y-96008028D01*
X149501613Y-95887715D01*
X149501612Y-95887714D01*
X149501610Y-95887713D01*
X149431527Y-95852004D01*
X149319223Y-95794781D01*
X149124534Y-95731522D01*
X148949995Y-95703878D01*
X148922352Y-95699500D01*
X148717648Y-95699500D01*
X148650254Y-95710174D01*
X148515464Y-95731523D01*
X148515461Y-95731523D01*
X148320783Y-95794778D01*
X148233777Y-95839109D01*
X148165108Y-95852004D01*
X148100368Y-95825727D01*
X148089803Y-95816304D01*
X145848181Y-93574681D01*
X145814696Y-93513358D01*
X145819680Y-93443666D01*
X145861552Y-93387733D01*
X145927016Y-93363316D01*
X145935862Y-93363000D01*
X146165686Y-93363000D01*
X146165694Y-93363000D01*
X146202569Y-93360098D01*
X146202571Y-93360097D01*
X146202573Y-93360097D01*
X146248347Y-93346798D01*
X146360398Y-93314244D01*
X146501865Y-93230581D01*
X146618081Y-93114365D01*
X146701744Y-92972898D01*
X146747598Y-92815069D01*
X146750500Y-92778194D01*
X146750500Y-91471806D01*
X146747598Y-91434931D01*
X146701744Y-91277102D01*
X146618081Y-91135635D01*
X146618079Y-91135633D01*
X146618076Y-91135629D01*
X146511819Y-91029372D01*
X146478334Y-90968049D01*
X146475500Y-90941691D01*
X146475500Y-90161667D01*
X146495185Y-90094628D01*
X146534405Y-90056127D01*
X146556156Y-90042712D01*
X146680212Y-89918656D01*
X146772314Y-89769334D01*
X146827499Y-89602797D01*
X146838000Y-89500009D01*
X146837999Y-88499992D01*
X146827499Y-88397203D01*
X146772314Y-88230666D01*
X146680212Y-88081344D01*
X146556156Y-87957288D01*
X146534400Y-87943868D01*
X146487677Y-87891918D01*
X146475500Y-87838331D01*
X146475500Y-68260928D01*
X146450502Y-68135261D01*
X146450501Y-68135260D01*
X146450501Y-68135256D01*
X146408280Y-68033326D01*
X146401466Y-68016875D01*
X146399152Y-68013412D01*
X146399152Y-68013410D01*
X146330278Y-67910332D01*
X146330272Y-67910325D01*
X142914673Y-64494726D01*
X142914669Y-64494723D01*
X142808127Y-64423535D01*
X142689744Y-64374499D01*
X142689745Y-64374499D01*
X142686855Y-64373924D01*
X142678106Y-64372184D01*
X142678081Y-64372179D01*
X142564071Y-64349500D01*
X142564069Y-64349500D01*
X137201751Y-64349500D01*
X137134712Y-64329815D01*
X137101432Y-64298384D01*
X137097002Y-64292287D01*
X137043508Y-64218657D01*
X137030107Y-64200211D01*
X136879786Y-64049890D01*
X136707820Y-63924951D01*
X136707115Y-63924591D01*
X136699054Y-63920485D01*
X136648259Y-63872512D01*
X136631463Y-63804692D01*
X136653999Y-63738556D01*
X136699054Y-63699515D01*
X136707816Y-63695051D01*
X136768786Y-63650754D01*
X136879786Y-63570109D01*
X136879788Y-63570106D01*
X136879792Y-63570104D01*
X137030104Y-63419792D01*
X137030106Y-63419788D01*
X137030109Y-63419786D01*
X137129960Y-63282351D01*
X137155051Y-63247816D01*
X137170138Y-63218205D01*
X137218112Y-63167410D01*
X137280623Y-63150500D01*
X145064071Y-63150500D01*
X145148615Y-63133682D01*
X145189744Y-63125501D01*
X145308127Y-63076465D01*
X145414669Y-63005277D01*
X145823640Y-62596306D01*
X146318747Y-62101200D01*
X150233127Y-58186819D01*
X150294450Y-58153334D01*
X150320808Y-58150500D01*
X155679192Y-58150500D01*
X155746231Y-58170185D01*
X155766873Y-58186819D01*
X156227873Y-58647819D01*
X156261358Y-58709142D01*
X156256374Y-58778834D01*
X156214502Y-58834767D01*
X156149038Y-58859184D01*
X156140192Y-58859500D01*
X154451440Y-58859500D01*
X154384401Y-58839815D01*
X154338646Y-58787011D01*
X154335258Y-58778833D01*
X154293797Y-58667671D01*
X154293793Y-58667664D01*
X154207547Y-58552455D01*
X154207544Y-58552452D01*
X154092335Y-58466206D01*
X154092328Y-58466202D01*
X153957482Y-58415908D01*
X153957483Y-58415908D01*
X153897883Y-58409501D01*
X153897881Y-58409500D01*
X153897873Y-58409500D01*
X153897864Y-58409500D01*
X152102129Y-58409500D01*
X152102123Y-58409501D01*
X152042516Y-58415908D01*
X151907671Y-58466202D01*
X151907664Y-58466206D01*
X151792455Y-58552452D01*
X151792452Y-58552455D01*
X151706206Y-58667664D01*
X151706202Y-58667671D01*
X151655908Y-58802517D01*
X151649501Y-58862116D01*
X151649500Y-58862135D01*
X151649500Y-60657870D01*
X151649501Y-60657876D01*
X151655908Y-60717483D01*
X151706202Y-60852328D01*
X151706206Y-60852335D01*
X151792452Y-60967544D01*
X151792455Y-60967547D01*
X151907664Y-61053793D01*
X151907671Y-61053797D01*
X151952618Y-61070561D01*
X152042517Y-61104091D01*
X152102127Y-61110500D01*
X152112685Y-61110499D01*
X152179723Y-61130179D01*
X152200372Y-61146818D01*
X152870591Y-61817037D01*
X152807007Y-61834075D01*
X152692993Y-61899901D01*
X152599901Y-61992993D01*
X152534075Y-62107007D01*
X152517037Y-62170591D01*
X151884728Y-61538282D01*
X151884727Y-61538282D01*
X151845380Y-61592439D01*
X151748904Y-61781782D01*
X151683242Y-61983869D01*
X151683242Y-61983872D01*
X151650000Y-62193753D01*
X151650000Y-62406246D01*
X151683242Y-62616127D01*
X151683242Y-62616130D01*
X151748904Y-62818217D01*
X151845375Y-63007550D01*
X151884728Y-63061716D01*
X152517037Y-62429408D01*
X152534075Y-62492993D01*
X152599901Y-62607007D01*
X152692993Y-62700099D01*
X152807007Y-62765925D01*
X152870590Y-62782962D01*
X152238282Y-63415269D01*
X152238282Y-63415270D01*
X152292452Y-63454626D01*
X152292451Y-63454626D01*
X152301495Y-63459234D01*
X152352292Y-63507208D01*
X152369087Y-63575029D01*
X152346550Y-63641164D01*
X152301499Y-63680202D01*
X152292182Y-63684949D01*
X152120213Y-63809890D01*
X151969890Y-63960213D01*
X151844951Y-64132179D01*
X151748444Y-64321585D01*
X151682753Y-64523760D01*
X151649500Y-64733713D01*
X151649500Y-64946286D01*
X151680225Y-65140279D01*
X151682754Y-65156243D01*
X151728896Y-65298254D01*
X151748444Y-65358414D01*
X151844951Y-65547820D01*
X151969890Y-65719786D01*
X152120213Y-65870109D01*
X152292182Y-65995050D01*
X152300946Y-65999516D01*
X152351742Y-66047491D01*
X152368536Y-66115312D01*
X152345998Y-66181447D01*
X152300946Y-66220484D01*
X152292182Y-66224949D01*
X152120213Y-66349890D01*
X151969890Y-66500213D01*
X151844951Y-66672179D01*
X151748444Y-66861585D01*
X151682753Y-67063760D01*
X151649500Y-67273713D01*
X151649500Y-67486286D01*
X151680225Y-67680279D01*
X151682754Y-67696243D01*
X151746916Y-67893713D01*
X151748444Y-67898414D01*
X151844951Y-68087820D01*
X151969890Y-68259786D01*
X152120213Y-68410109D01*
X152292182Y-68535050D01*
X152300946Y-68539516D01*
X152351742Y-68587491D01*
X152368536Y-68655312D01*
X152345998Y-68721447D01*
X152300946Y-68760484D01*
X152292182Y-68764949D01*
X152120213Y-68889890D01*
X151969890Y-69040213D01*
X151844951Y-69212179D01*
X151748444Y-69401585D01*
X151682753Y-69603760D01*
X151649500Y-69813713D01*
X151649500Y-70026286D01*
X151677111Y-70200618D01*
X151682754Y-70236243D01*
X151734545Y-70395640D01*
X151748444Y-70438414D01*
X151844951Y-70627820D01*
X151969890Y-70799786D01*
X152120213Y-70950109D01*
X152292182Y-71075050D01*
X152300946Y-71079516D01*
X152351742Y-71127491D01*
X152368536Y-71195312D01*
X152345998Y-71261447D01*
X152300946Y-71300484D01*
X152292182Y-71304949D01*
X152120213Y-71429890D01*
X151969890Y-71580213D01*
X151844951Y-71752179D01*
X151748444Y-71941585D01*
X151682753Y-72143760D01*
X151655942Y-72313040D01*
X151649500Y-72353713D01*
X151649500Y-72566287D01*
X151682754Y-72776243D01*
X151744175Y-72965277D01*
X151748444Y-72978414D01*
X151844951Y-73167820D01*
X151969890Y-73339786D01*
X152120213Y-73490109D01*
X152292182Y-73615050D01*
X152300946Y-73619516D01*
X152351742Y-73667491D01*
X152368536Y-73735312D01*
X152345998Y-73801447D01*
X152300946Y-73840484D01*
X152292182Y-73844949D01*
X152120213Y-73969890D01*
X151969890Y-74120213D01*
X151844951Y-74292179D01*
X151748444Y-74481585D01*
X151682753Y-74683760D01*
X151658149Y-74839106D01*
X151649500Y-74893713D01*
X151649500Y-75106287D01*
X151682754Y-75316243D01*
X151744175Y-75505277D01*
X151748444Y-75518414D01*
X151844951Y-75707820D01*
X151969890Y-75879786D01*
X152120213Y-76030109D01*
X152292179Y-76155048D01*
X152292181Y-76155049D01*
X152292184Y-76155051D01*
X152481588Y-76251557D01*
X152683757Y-76317246D01*
X152893713Y-76350500D01*
X152893714Y-76350500D01*
X153106286Y-76350500D01*
X153106287Y-76350500D01*
X153316243Y-76317246D01*
X153518412Y-76251557D01*
X153707816Y-76155051D01*
X153756346Y-76119792D01*
X153879786Y-76030109D01*
X153879788Y-76030106D01*
X153879792Y-76030104D01*
X154030104Y-75879792D01*
X154030106Y-75879788D01*
X154030109Y-75879786D01*
X154157915Y-75703875D01*
X154159259Y-75704851D01*
X154205705Y-75662834D01*
X154259618Y-75650500D01*
X155064071Y-75650500D01*
X155148615Y-75633682D01*
X155189744Y-75625501D01*
X155308127Y-75576465D01*
X155414669Y-75505277D01*
X160719961Y-70199983D01*
X173699500Y-70199983D01*
X173699500Y-71400001D01*
X173699501Y-71400018D01*
X173710000Y-71502796D01*
X173710001Y-71502799D01*
X173765185Y-71669331D01*
X173765187Y-71669336D01*
X173800069Y-71725888D01*
X173857288Y-71818656D01*
X173981344Y-71942712D01*
X174130666Y-72034814D01*
X174297203Y-72089999D01*
X174399991Y-72100500D01*
X175600008Y-72100499D01*
X175702797Y-72089999D01*
X175869334Y-72034814D01*
X176018656Y-71942712D01*
X176142712Y-71818656D01*
X176234814Y-71669334D01*
X176289999Y-71502797D01*
X176300500Y-71400009D01*
X176300499Y-70199992D01*
X176298237Y-70177853D01*
X176289999Y-70097203D01*
X176289998Y-70097200D01*
X176275588Y-70053713D01*
X176234814Y-69930666D01*
X176142712Y-69781344D01*
X176018656Y-69657288D01*
X175869334Y-69565186D01*
X175702797Y-69510001D01*
X175702795Y-69510000D01*
X175600010Y-69499500D01*
X174399998Y-69499500D01*
X174399981Y-69499501D01*
X174297203Y-69510000D01*
X174297200Y-69510001D01*
X174130668Y-69565185D01*
X174130663Y-69565187D01*
X173981342Y-69657289D01*
X173857289Y-69781342D01*
X173765187Y-69930663D01*
X173765185Y-69930668D01*
X173757353Y-69954303D01*
X173710001Y-70097203D01*
X173710001Y-70097204D01*
X173710000Y-70097204D01*
X173699500Y-70199983D01*
X160719961Y-70199983D01*
X161569289Y-69350655D01*
X161630610Y-69317172D01*
X161678754Y-69317685D01*
X161678945Y-69316484D01*
X161783888Y-69333105D01*
X161893713Y-69350500D01*
X161893714Y-69350500D01*
X162106286Y-69350500D01*
X162106287Y-69350500D01*
X162316243Y-69317246D01*
X162518412Y-69251557D01*
X162707816Y-69155051D01*
X162742447Y-69129890D01*
X162879786Y-69030109D01*
X162879788Y-69030106D01*
X162879792Y-69030104D01*
X163030104Y-68879792D01*
X163030106Y-68879788D01*
X163030109Y-68879786D01*
X163155048Y-68707820D01*
X163155047Y-68707820D01*
X163155051Y-68707816D01*
X163251557Y-68518412D01*
X163317246Y-68316243D01*
X163331700Y-68224986D01*
X165800001Y-68224986D01*
X165810494Y-68327697D01*
X165865641Y-68494119D01*
X165865643Y-68494124D01*
X165957684Y-68643345D01*
X166081654Y-68767315D01*
X166230875Y-68859356D01*
X166230880Y-68859358D01*
X166397302Y-68914505D01*
X166397309Y-68914506D01*
X166500019Y-68924999D01*
X166749999Y-68924999D01*
X167250000Y-68924999D01*
X167499972Y-68924999D01*
X167499986Y-68924998D01*
X167602697Y-68914505D01*
X167769119Y-68859358D01*
X167769124Y-68859356D01*
X167918345Y-68767315D01*
X168042315Y-68643345D01*
X168134356Y-68494124D01*
X168134358Y-68494119D01*
X168189505Y-68327697D01*
X168189506Y-68327690D01*
X168199999Y-68224986D01*
X168200000Y-68224973D01*
X168200000Y-68200001D01*
X168890204Y-68200001D01*
X168890399Y-68202486D01*
X168936218Y-68360198D01*
X169019814Y-68501552D01*
X169019821Y-68501561D01*
X169135938Y-68617678D01*
X169135947Y-68617685D01*
X169277303Y-68701282D01*
X169277306Y-68701283D01*
X169435004Y-68747099D01*
X169435010Y-68747100D01*
X169471850Y-68749999D01*
X169471866Y-68750000D01*
X169875000Y-68750000D01*
X170375000Y-68750000D01*
X170778134Y-68750000D01*
X170778149Y-68749999D01*
X170814989Y-68747100D01*
X170814995Y-68747099D01*
X170972693Y-68701283D01*
X170972696Y-68701282D01*
X171114052Y-68617685D01*
X171114061Y-68617678D01*
X171230178Y-68501561D01*
X171230185Y-68501552D01*
X171313781Y-68360198D01*
X171359600Y-68202486D01*
X171359795Y-68200001D01*
X171359795Y-68200000D01*
X170375000Y-68200000D01*
X170375000Y-68750000D01*
X169875000Y-68750000D01*
X169875000Y-68200000D01*
X168890205Y-68200000D01*
X168890204Y-68200001D01*
X168200000Y-68200001D01*
X168200000Y-68162500D01*
X167250000Y-68162500D01*
X167250000Y-68924999D01*
X166749999Y-68924999D01*
X166750000Y-68924998D01*
X166750000Y-68162500D01*
X165800001Y-68162500D01*
X165800001Y-68224986D01*
X163331700Y-68224986D01*
X163350500Y-68106287D01*
X163350500Y-67893713D01*
X163319818Y-67699998D01*
X168890204Y-67699998D01*
X168890205Y-67700000D01*
X169875000Y-67700000D01*
X169875000Y-67150000D01*
X169471850Y-67150000D01*
X169435010Y-67152899D01*
X169435004Y-67152900D01*
X169277306Y-67198716D01*
X169277303Y-67198717D01*
X169135947Y-67282314D01*
X169135938Y-67282321D01*
X169019821Y-67398438D01*
X169019814Y-67398447D01*
X168936218Y-67539801D01*
X168890399Y-67697513D01*
X168890204Y-67699998D01*
X163319818Y-67699998D01*
X163317246Y-67683757D01*
X163251557Y-67481588D01*
X163155051Y-67292184D01*
X163155049Y-67292181D01*
X163155048Y-67292179D01*
X163030109Y-67120213D01*
X162916569Y-67006673D01*
X162883084Y-66945350D01*
X162888068Y-66875658D01*
X162929940Y-66819725D01*
X162960915Y-66802810D01*
X163092331Y-66753796D01*
X163207546Y-66667546D01*
X163293796Y-66552331D01*
X163344091Y-66417483D01*
X163350500Y-66357873D01*
X163350499Y-64562128D01*
X163344091Y-64502517D01*
X163343338Y-64500499D01*
X163293797Y-64367671D01*
X163293793Y-64367664D01*
X163207547Y-64252455D01*
X163207544Y-64252452D01*
X163092335Y-64166206D01*
X163092328Y-64166202D01*
X162957482Y-64115908D01*
X162957483Y-64115908D01*
X162897883Y-64109501D01*
X162897881Y-64109500D01*
X162897873Y-64109500D01*
X162897865Y-64109500D01*
X161974361Y-64109500D01*
X161907322Y-64089815D01*
X161886680Y-64073181D01*
X159675681Y-61862181D01*
X159642196Y-61800858D01*
X159647180Y-61731166D01*
X159689052Y-61675233D01*
X159754516Y-61650816D01*
X159763362Y-61650500D01*
X162179192Y-61650500D01*
X162246231Y-61670185D01*
X162266873Y-61686819D01*
X165879989Y-65299935D01*
X165913474Y-65361258D01*
X165908490Y-65430950D01*
X165897848Y-65452710D01*
X165865187Y-65505663D01*
X165865186Y-65505665D01*
X165851013Y-65548438D01*
X165810001Y-65672203D01*
X165810001Y-65672204D01*
X165810000Y-65672204D01*
X165799500Y-65774983D01*
X165799500Y-66400001D01*
X165799501Y-66400019D01*
X165810000Y-66502796D01*
X165810001Y-66502799D01*
X165864575Y-66667491D01*
X165865186Y-66669334D01*
X165957012Y-66818209D01*
X165957289Y-66818657D01*
X166051304Y-66912672D01*
X166084789Y-66973995D01*
X166079805Y-67043687D01*
X166051305Y-67088034D01*
X165957682Y-67181657D01*
X165865643Y-67330875D01*
X165865641Y-67330880D01*
X165810494Y-67497302D01*
X165810493Y-67497309D01*
X165800000Y-67600013D01*
X165800000Y-67662500D01*
X168199999Y-67662500D01*
X168199999Y-67600028D01*
X168199998Y-67600013D01*
X168189505Y-67497302D01*
X168134358Y-67330880D01*
X168134356Y-67330875D01*
X168042315Y-67181654D01*
X167948695Y-67088034D01*
X167945843Y-67082811D01*
X167940907Y-67079484D01*
X167929288Y-67052493D01*
X167915210Y-67026711D01*
X167915634Y-67020775D01*
X167913281Y-67015308D01*
X167918098Y-66986326D01*
X167920194Y-66957019D01*
X167924012Y-66950740D01*
X167924737Y-66946384D01*
X167938103Y-66927575D01*
X167944464Y-66917118D01*
X167946516Y-66914851D01*
X168042712Y-66818656D01*
X168062107Y-66787210D01*
X168069756Y-66778765D01*
X168090229Y-66766232D01*
X168108078Y-66750178D01*
X168121400Y-66747150D01*
X168129347Y-66742286D01*
X168141623Y-66742554D01*
X168161668Y-66738000D01*
X169135394Y-66738000D01*
X169198514Y-66755267D01*
X169277102Y-66801744D01*
X169307237Y-66810499D01*
X169434926Y-66847597D01*
X169434929Y-66847597D01*
X169434931Y-66847598D01*
X169471806Y-66850500D01*
X170638000Y-66850500D01*
X170646685Y-66853050D01*
X170655647Y-66851762D01*
X170679687Y-66862740D01*
X170705039Y-66870185D01*
X170710966Y-66877025D01*
X170719203Y-66880787D01*
X170733492Y-66903021D01*
X170750794Y-66922989D01*
X170753081Y-66933503D01*
X170756977Y-66939565D01*
X170762000Y-66974500D01*
X170762000Y-67026000D01*
X170742315Y-67093039D01*
X170689511Y-67138794D01*
X170638000Y-67150000D01*
X170375000Y-67150000D01*
X170375000Y-67700000D01*
X171030685Y-67700000D01*
X171093806Y-67717268D01*
X171152102Y-67751744D01*
X171193724Y-67763836D01*
X171309926Y-67797597D01*
X171309929Y-67797597D01*
X171309931Y-67797598D01*
X171346806Y-67800500D01*
X171554793Y-67800500D01*
X171602245Y-67809939D01*
X171737334Y-67865894D01*
X171737336Y-67865894D01*
X171737341Y-67865896D01*
X171911304Y-67900499D01*
X171911307Y-67900500D01*
X171911309Y-67900500D01*
X172088693Y-67900500D01*
X172088694Y-67900499D01*
X172146682Y-67888964D01*
X172262658Y-67865896D01*
X172262661Y-67865894D01*
X172262666Y-67865894D01*
X172397755Y-67809939D01*
X172445207Y-67800500D01*
X172653186Y-67800500D01*
X172653194Y-67800500D01*
X172690069Y-67797598D01*
X172690071Y-67797597D01*
X172690073Y-67797597D01*
X172782283Y-67770807D01*
X172847898Y-67751744D01*
X172989365Y-67668081D01*
X173105581Y-67551865D01*
X173189244Y-67410398D01*
X173235098Y-67252569D01*
X173238000Y-67215694D01*
X173238000Y-66818206D01*
X179299500Y-66818206D01*
X179299500Y-66838101D01*
X179299500Y-67181794D01*
X179300993Y-67196949D01*
X179335137Y-67543630D01*
X179406064Y-67900212D01*
X179406067Y-67900223D01*
X179511614Y-68248165D01*
X179610000Y-68485690D01*
X179649824Y-68581834D01*
X179650754Y-68584078D01*
X179650756Y-68584083D01*
X179822140Y-68904720D01*
X179822151Y-68904738D01*
X180024140Y-69207035D01*
X180024150Y-69207049D01*
X180254807Y-69488106D01*
X180511893Y-69745192D01*
X180511898Y-69745196D01*
X180511899Y-69745197D01*
X180792956Y-69975854D01*
X181095268Y-70177853D01*
X181095277Y-70177858D01*
X181095279Y-70177859D01*
X181415916Y-70349243D01*
X181415918Y-70349243D01*
X181415924Y-70349247D01*
X181751836Y-70488386D01*
X182099767Y-70593930D01*
X182099773Y-70593931D01*
X182099776Y-70593932D01*
X182099787Y-70593935D01*
X182456369Y-70664862D01*
X182818206Y-70700500D01*
X182818209Y-70700500D01*
X183181791Y-70700500D01*
X183181794Y-70700500D01*
X183543631Y-70664862D01*
X183613045Y-70651054D01*
X183900212Y-70593935D01*
X183900223Y-70593932D01*
X183900223Y-70593931D01*
X183900233Y-70593930D01*
X184248164Y-70488386D01*
X184584076Y-70349247D01*
X184904732Y-70177853D01*
X185207044Y-69975854D01*
X185488101Y-69745197D01*
X185745197Y-69488101D01*
X185975854Y-69207044D01*
X186177853Y-68904732D01*
X186349247Y-68584076D01*
X186488386Y-68248164D01*
X186593930Y-67900233D01*
X186593932Y-67900223D01*
X186593935Y-67900212D01*
X186653647Y-67600013D01*
X186664862Y-67543631D01*
X186700500Y-67181794D01*
X186700500Y-66818206D01*
X186664862Y-66456369D01*
X186656138Y-66412512D01*
X186593935Y-66099787D01*
X186593932Y-66099776D01*
X186593931Y-66099773D01*
X186593930Y-66099767D01*
X186488386Y-65751836D01*
X186349247Y-65415924D01*
X186341099Y-65400681D01*
X186177859Y-65095279D01*
X186177858Y-65095277D01*
X186177853Y-65095268D01*
X185975854Y-64792956D01*
X185745197Y-64511899D01*
X185745196Y-64511898D01*
X185745192Y-64511893D01*
X185488106Y-64254807D01*
X185207049Y-64024150D01*
X185207048Y-64024149D01*
X185207044Y-64024146D01*
X184904732Y-63822147D01*
X184904727Y-63822144D01*
X184904720Y-63822140D01*
X184584083Y-63650756D01*
X184584078Y-63650754D01*
X184248165Y-63511614D01*
X183900223Y-63406067D01*
X183900212Y-63406064D01*
X183543630Y-63335137D01*
X183271111Y-63308296D01*
X183181794Y-63299500D01*
X182818206Y-63299500D01*
X182735679Y-63307628D01*
X182456369Y-63335137D01*
X182099787Y-63406064D01*
X182099776Y-63406067D01*
X181751834Y-63511614D01*
X181415921Y-63650754D01*
X181415916Y-63650756D01*
X181095279Y-63822140D01*
X181095261Y-63822151D01*
X180792964Y-64024140D01*
X180792950Y-64024150D01*
X180511893Y-64254807D01*
X180254807Y-64511893D01*
X180024150Y-64792950D01*
X180024140Y-64792964D01*
X179822151Y-65095261D01*
X179822140Y-65095279D01*
X179650756Y-65415916D01*
X179650754Y-65415921D01*
X179511614Y-65751834D01*
X179406067Y-66099776D01*
X179406064Y-66099787D01*
X179335137Y-66456369D01*
X179314162Y-66669336D01*
X179299500Y-66818206D01*
X173238000Y-66818206D01*
X173238000Y-66784306D01*
X173235098Y-66747431D01*
X173235016Y-66747150D01*
X173189245Y-66589606D01*
X173189244Y-66589603D01*
X173189244Y-66589602D01*
X173117299Y-66467949D01*
X173100116Y-66400225D01*
X173122276Y-66333962D01*
X173136344Y-66317153D01*
X174936680Y-64516819D01*
X174998003Y-64483334D01*
X175024361Y-64480500D01*
X175102351Y-64480500D01*
X175102352Y-64480500D01*
X175304534Y-64448477D01*
X175499219Y-64385220D01*
X175681610Y-64292287D01*
X175797011Y-64208444D01*
X175847213Y-64171971D01*
X175847215Y-64171968D01*
X175847219Y-64171966D01*
X175991966Y-64027219D01*
X175991968Y-64027215D01*
X175991971Y-64027213D01*
X176081973Y-63903334D01*
X176112287Y-63861610D01*
X176205220Y-63679219D01*
X176268477Y-63484534D01*
X176300500Y-63282352D01*
X176300500Y-63077648D01*
X176268477Y-62875466D01*
X176205220Y-62680781D01*
X176205218Y-62680778D01*
X176205218Y-62680776D01*
X176162178Y-62596306D01*
X176112287Y-62498390D01*
X176096584Y-62476777D01*
X175991971Y-62332786D01*
X175847213Y-62188028D01*
X175681613Y-62067715D01*
X175681612Y-62067714D01*
X175681610Y-62067713D01*
X175591079Y-62021585D01*
X175499223Y-61974781D01*
X175304534Y-61911522D01*
X175129995Y-61883878D01*
X175102352Y-61879500D01*
X174897648Y-61879500D01*
X174873329Y-61883351D01*
X174695465Y-61911522D01*
X174500776Y-61974781D01*
X174318386Y-62067715D01*
X174152786Y-62188028D01*
X174008028Y-62332786D01*
X173887715Y-62498386D01*
X173794781Y-62680776D01*
X173731522Y-62875465D01*
X173699500Y-63077648D01*
X173699500Y-63155637D01*
X173679815Y-63222676D01*
X173663181Y-63243318D01*
X171407154Y-65499345D01*
X171345831Y-65532830D01*
X171276139Y-65527846D01*
X171231792Y-65499345D01*
X171114370Y-65381923D01*
X171114362Y-65381917D01*
X170982134Y-65303718D01*
X170972898Y-65298256D01*
X170972897Y-65298255D01*
X170972896Y-65298255D01*
X170972893Y-65298254D01*
X170815073Y-65252402D01*
X170815067Y-65252401D01*
X170778201Y-65249500D01*
X170778194Y-65249500D01*
X169471806Y-65249500D01*
X169471798Y-65249500D01*
X169434932Y-65252401D01*
X169434926Y-65252402D01*
X169277106Y-65298254D01*
X169277103Y-65298255D01*
X169135637Y-65381917D01*
X169135629Y-65381923D01*
X169116872Y-65400681D01*
X169055549Y-65434166D01*
X169029191Y-65437000D01*
X168161668Y-65437000D01*
X168094629Y-65417315D01*
X168056130Y-65378097D01*
X168042714Y-65356347D01*
X168042711Y-65356343D01*
X167918657Y-65232289D01*
X167918656Y-65232288D01*
X167795360Y-65156239D01*
X167769336Y-65140187D01*
X167769331Y-65140185D01*
X167762354Y-65137873D01*
X167602797Y-65085001D01*
X167602794Y-65085000D01*
X167537697Y-65078350D01*
X167473005Y-65051954D01*
X167462619Y-65042673D01*
X162914674Y-60494727D01*
X162914667Y-60494721D01*
X162814215Y-60427602D01*
X162769409Y-60373990D01*
X162760702Y-60304665D01*
X162790856Y-60241638D01*
X162850299Y-60204918D01*
X162883105Y-60200500D01*
X182960118Y-60200500D01*
X182997688Y-60200500D01*
X183002324Y-60200587D01*
X183034689Y-60201798D01*
X183503501Y-60219339D01*
X183512725Y-60220031D01*
X184008814Y-60275926D01*
X184017960Y-60277305D01*
X184396587Y-60348945D01*
X184508464Y-60370114D01*
X184517504Y-60372177D01*
X184999702Y-60501381D01*
X185008558Y-60504112D01*
X185259776Y-60592017D01*
X185479758Y-60668992D01*
X185488390Y-60672380D01*
X185945949Y-60872011D01*
X185954303Y-60876035D01*
X186395640Y-61109288D01*
X186403671Y-61113924D01*
X186826367Y-61379521D01*
X186834029Y-61384745D01*
X186875915Y-61415658D01*
X187235688Y-61681183D01*
X187242930Y-61686959D01*
X187621327Y-62012596D01*
X187628124Y-62018903D01*
X187981096Y-62371875D01*
X187987403Y-62378672D01*
X188313040Y-62757069D01*
X188318819Y-62764315D01*
X188400852Y-62875466D01*
X188615254Y-63165970D01*
X188620478Y-63173632D01*
X188886075Y-63596328D01*
X188890711Y-63604359D01*
X189123964Y-64045696D01*
X189127988Y-64054050D01*
X189327619Y-64511609D01*
X189331007Y-64520241D01*
X189495885Y-64991435D01*
X189498618Y-65000297D01*
X189627822Y-65482495D01*
X189629885Y-65491535D01*
X189722692Y-65982028D01*
X189724074Y-65991197D01*
X189779967Y-66487262D01*
X189780660Y-66496509D01*
X189799326Y-66995363D01*
X189799326Y-67004637D01*
X189780660Y-67503490D01*
X189779967Y-67512737D01*
X189724074Y-68008802D01*
X189722692Y-68017971D01*
X189629885Y-68508464D01*
X189627822Y-68517504D01*
X189498618Y-68999702D01*
X189495885Y-69008564D01*
X189331007Y-69479758D01*
X189327619Y-69488390D01*
X189127988Y-69945949D01*
X189123964Y-69954303D01*
X188890711Y-70395640D01*
X188886075Y-70403671D01*
X188620478Y-70826367D01*
X188615254Y-70834029D01*
X188318822Y-71235680D01*
X188313040Y-71242930D01*
X187987403Y-71621327D01*
X187981096Y-71628124D01*
X187628124Y-71981096D01*
X187621327Y-71987403D01*
X187242930Y-72313040D01*
X187235680Y-72318822D01*
X186834029Y-72615254D01*
X186826367Y-72620478D01*
X186403671Y-72886075D01*
X186395640Y-72890711D01*
X185954303Y-73123964D01*
X185945949Y-73127988D01*
X185488390Y-73327619D01*
X185479758Y-73331007D01*
X185008564Y-73495885D01*
X184999702Y-73498618D01*
X184517504Y-73627822D01*
X184508464Y-73629885D01*
X184017971Y-73722692D01*
X184008802Y-73724074D01*
X183512737Y-73779967D01*
X183503490Y-73780660D01*
X183002325Y-73799413D01*
X182997688Y-73799500D01*
X159960116Y-73799500D01*
X159886425Y-73830024D01*
X159830024Y-73886425D01*
X159799500Y-73960116D01*
X159799500Y-73997874D01*
X159799428Y-74002108D01*
X159781462Y-74528026D01*
X159780884Y-74536473D01*
X159727288Y-75057819D01*
X159726135Y-75066207D01*
X159637084Y-75582685D01*
X159635361Y-75590975D01*
X159511277Y-76100159D01*
X159508993Y-76108312D01*
X159350446Y-76607851D01*
X159347611Y-76615829D01*
X159155340Y-77103397D01*
X159151966Y-77111163D01*
X158926883Y-77584445D01*
X158922988Y-77591963D01*
X158666120Y-78048801D01*
X158661721Y-78056035D01*
X158374277Y-78494280D01*
X158369394Y-78501197D01*
X158052716Y-78918799D01*
X158047372Y-78925367D01*
X157702940Y-79320378D01*
X157697161Y-79326566D01*
X157326566Y-79697161D01*
X157320378Y-79702940D01*
X156925367Y-80047372D01*
X156918799Y-80052716D01*
X156501197Y-80369394D01*
X156494280Y-80374277D01*
X156056035Y-80661721D01*
X156048801Y-80666120D01*
X155591963Y-80922988D01*
X155584445Y-80926883D01*
X155111163Y-81151966D01*
X155103397Y-81155340D01*
X154615829Y-81347611D01*
X154607851Y-81350446D01*
X154108312Y-81508993D01*
X154100159Y-81511277D01*
X153590975Y-81635361D01*
X153582685Y-81637084D01*
X153066207Y-81726135D01*
X153057819Y-81727288D01*
X152536473Y-81780884D01*
X152528026Y-81781462D01*
X152042164Y-81798059D01*
X152002106Y-81799428D01*
X151997875Y-81799500D01*
X151960116Y-81799500D01*
X151886425Y-81830024D01*
X151830024Y-81886425D01*
X151799500Y-81960116D01*
X151799500Y-104997688D01*
X151799413Y-105002325D01*
X151780660Y-105503490D01*
X151779967Y-105512737D01*
X151724074Y-106008802D01*
X151722692Y-106017971D01*
X151629885Y-106508464D01*
X151627822Y-106517504D01*
X151498618Y-106999702D01*
X151495885Y-107008564D01*
X151331007Y-107479758D01*
X151327619Y-107488390D01*
X151127988Y-107945949D01*
X151123964Y-107954303D01*
X150890711Y-108395640D01*
X150886075Y-108403671D01*
X150620478Y-108826367D01*
X150615254Y-108834029D01*
X150318822Y-109235680D01*
X150313040Y-109242930D01*
X149987403Y-109621327D01*
X149981096Y-109628124D01*
X149628124Y-109981096D01*
X149621327Y-109987403D01*
X149242930Y-110313040D01*
X149235680Y-110318822D01*
X148834029Y-110615254D01*
X148826367Y-110620478D01*
X148403671Y-110886075D01*
X148395640Y-110890711D01*
X147954303Y-111123964D01*
X147945949Y-111127988D01*
X147488390Y-111327619D01*
X147479758Y-111331007D01*
X147008564Y-111495885D01*
X146999702Y-111498618D01*
X146517504Y-111627822D01*
X146508464Y-111629885D01*
X146017971Y-111722692D01*
X146008802Y-111724074D01*
X145512737Y-111779967D01*
X145503490Y-111780660D01*
X145004637Y-111799326D01*
X144995363Y-111799326D01*
X144496509Y-111780660D01*
X144487262Y-111779967D01*
X143991197Y-111724074D01*
X143982028Y-111722692D01*
X143491535Y-111629885D01*
X143482495Y-111627822D01*
X143000297Y-111498618D01*
X142991435Y-111495885D01*
X142520241Y-111331007D01*
X142511609Y-111327619D01*
X142054050Y-111127988D01*
X142045696Y-111123964D01*
X141604359Y-110890711D01*
X141596328Y-110886075D01*
X141173632Y-110620478D01*
X141165970Y-110615254D01*
X140764319Y-110318822D01*
X140757069Y-110313040D01*
X140378672Y-109987403D01*
X140371875Y-109981096D01*
X140018903Y-109628124D01*
X140012596Y-109621327D01*
X139686959Y-109242930D01*
X139681177Y-109235680D01*
X139384745Y-108834029D01*
X139379521Y-108826367D01*
X139113924Y-108403671D01*
X139109288Y-108395640D01*
X138876035Y-107954303D01*
X138872011Y-107945949D01*
X138672380Y-107488390D01*
X138668992Y-107479758D01*
X138504112Y-107008558D01*
X138501381Y-106999702D01*
X138372177Y-106517504D01*
X138370114Y-106508464D01*
X138332326Y-106308749D01*
X138277305Y-106017960D01*
X138275925Y-106008802D01*
X138263692Y-105900233D01*
X138220031Y-105512725D01*
X138219339Y-105503489D01*
X138210346Y-105263152D01*
X138200587Y-105002324D01*
X138200500Y-104997688D01*
X138200500Y-104818209D01*
X141299500Y-104818209D01*
X141299500Y-105181790D01*
X141335137Y-105543630D01*
X141406064Y-105900212D01*
X141406067Y-105900223D01*
X141511614Y-106248165D01*
X141650754Y-106584078D01*
X141650756Y-106584083D01*
X141822140Y-106904720D01*
X141822151Y-106904738D01*
X142024140Y-107207035D01*
X142024150Y-107207049D01*
X142254807Y-107488106D01*
X142511893Y-107745192D01*
X142511898Y-107745196D01*
X142511899Y-107745197D01*
X142792956Y-107975854D01*
X143095268Y-108177853D01*
X143095277Y-108177858D01*
X143095279Y-108177859D01*
X143415916Y-108349243D01*
X143415918Y-108349243D01*
X143415924Y-108349247D01*
X143751836Y-108488386D01*
X144099767Y-108593930D01*
X144099773Y-108593931D01*
X144099776Y-108593932D01*
X144099787Y-108593935D01*
X144456369Y-108664862D01*
X144818206Y-108700500D01*
X144818209Y-108700500D01*
X145181791Y-108700500D01*
X145181794Y-108700500D01*
X145543631Y-108664862D01*
X145613045Y-108651054D01*
X145900212Y-108593935D01*
X145900223Y-108593932D01*
X145900223Y-108593931D01*
X145900233Y-108593930D01*
X146248164Y-108488386D01*
X146584076Y-108349247D01*
X146904732Y-108177853D01*
X147207044Y-107975854D01*
X147488101Y-107745197D01*
X147745197Y-107488101D01*
X147975854Y-107207044D01*
X148177853Y-106904732D01*
X148349247Y-106584076D01*
X148488386Y-106248164D01*
X148593930Y-105900233D01*
X148593932Y-105900223D01*
X148593935Y-105900212D01*
X148664862Y-105543630D01*
X148668359Y-105508127D01*
X148700500Y-105181794D01*
X148700500Y-104818206D01*
X148664862Y-104456369D01*
X148613527Y-104198287D01*
X148593935Y-104099787D01*
X148593932Y-104099776D01*
X148593931Y-104099773D01*
X148593930Y-104099767D01*
X148488386Y-103751836D01*
X148349247Y-103415924D01*
X148177853Y-103095268D01*
X147975854Y-102792956D01*
X147745197Y-102511899D01*
X147745196Y-102511898D01*
X147745192Y-102511893D01*
X147488106Y-102254807D01*
X147207049Y-102024150D01*
X147207048Y-102024149D01*
X147207044Y-102024146D01*
X146904732Y-101822147D01*
X146904727Y-101822144D01*
X146904720Y-101822140D01*
X146584083Y-101650756D01*
X146584078Y-101650754D01*
X146248165Y-101511614D01*
X145900223Y-101406067D01*
X145900212Y-101406064D01*
X145543630Y-101335137D01*
X145271111Y-101308296D01*
X145181794Y-101299500D01*
X144818206Y-101299500D01*
X144735679Y-101307628D01*
X144456369Y-101335137D01*
X144099787Y-101406064D01*
X144099776Y-101406067D01*
X143751834Y-101511614D01*
X143415921Y-101650754D01*
X143415916Y-101650756D01*
X143095279Y-101822140D01*
X143095261Y-101822151D01*
X142792964Y-102024140D01*
X142792950Y-102024150D01*
X142511893Y-102254807D01*
X142254807Y-102511893D01*
X142024150Y-102792950D01*
X142024140Y-102792964D01*
X141822151Y-103095261D01*
X141822140Y-103095279D01*
X141650756Y-103415916D01*
X141650754Y-103415921D01*
X141511614Y-103751834D01*
X141406067Y-104099776D01*
X141406064Y-104099787D01*
X141335137Y-104456369D01*
X141299500Y-104818209D01*
X138200500Y-104818209D01*
X138200500Y-81960119D01*
X138200499Y-81960116D01*
X138169976Y-81886426D01*
X138113574Y-81830024D01*
X138091361Y-81820823D01*
X138039883Y-81799500D01*
X138039882Y-81799500D01*
X138002125Y-81799500D01*
X137997893Y-81799428D01*
X137955308Y-81797973D01*
X137471973Y-81781462D01*
X137463526Y-81780884D01*
X136942180Y-81727288D01*
X136933792Y-81726135D01*
X136417314Y-81637084D01*
X136409024Y-81635361D01*
X135899840Y-81511277D01*
X135891687Y-81508993D01*
X135392148Y-81350446D01*
X135384170Y-81347611D01*
X134896602Y-81155340D01*
X134888836Y-81151966D01*
X134415554Y-80926883D01*
X134408036Y-80922988D01*
X133951198Y-80666120D01*
X133943964Y-80661721D01*
X133505719Y-80374277D01*
X133498802Y-80369394D01*
X133464782Y-80343596D01*
X133081191Y-80052709D01*
X133074640Y-80047379D01*
X132679621Y-79702940D01*
X132673433Y-79697161D01*
X132302838Y-79326566D01*
X132297073Y-79320394D01*
X131952618Y-78925356D01*
X131947293Y-78918811D01*
X131630599Y-78501189D01*
X131625722Y-78494280D01*
X131617397Y-78481588D01*
X131368528Y-78102155D01*
X139110000Y-78102155D01*
X139110000Y-78750000D01*
X140026988Y-78750000D01*
X139994075Y-78807007D01*
X139960000Y-78934174D01*
X139960000Y-79065826D01*
X139994075Y-79192993D01*
X140026988Y-79250000D01*
X139110000Y-79250000D01*
X139110000Y-79897844D01*
X139116401Y-79957372D01*
X139116403Y-79957379D01*
X139166645Y-80092086D01*
X139166649Y-80092093D01*
X139252809Y-80207187D01*
X139252812Y-80207190D01*
X139367906Y-80293350D01*
X139367913Y-80293354D01*
X139502620Y-80343596D01*
X139502627Y-80343598D01*
X139562155Y-80349999D01*
X139562172Y-80350000D01*
X140210000Y-80350000D01*
X140210000Y-79433012D01*
X140267007Y-79465925D01*
X140394174Y-79500000D01*
X140525826Y-79500000D01*
X140652993Y-79465925D01*
X140710000Y-79433012D01*
X140710000Y-80350000D01*
X141357828Y-80350000D01*
X141357844Y-80349999D01*
X141417372Y-80343598D01*
X141417379Y-80343596D01*
X141552086Y-80293354D01*
X141552093Y-80293350D01*
X141667187Y-80207190D01*
X141667190Y-80207187D01*
X141753350Y-80092093D01*
X141753354Y-80092086D01*
X141802422Y-79960529D01*
X141802422Y-79960528D01*
X141820347Y-79936582D01*
X141844293Y-79904595D01*
X141909757Y-79880178D01*
X141909758Y-79880178D01*
X141978031Y-79895030D01*
X142006285Y-79916181D01*
X142063181Y-79973077D01*
X142096666Y-80034400D01*
X142099500Y-80060758D01*
X142099500Y-83075637D01*
X142079815Y-83142676D01*
X142063181Y-83163318D01*
X140500538Y-84725960D01*
X140500537Y-84725961D01*
X140461064Y-84785039D01*
X140461063Y-84785040D01*
X140401985Y-84873455D01*
X140368046Y-84955393D01*
X140334106Y-85037329D01*
X140334103Y-85037341D01*
X140299500Y-85211303D01*
X140299500Y-95715201D01*
X140279815Y-95782240D01*
X140240598Y-95820739D01*
X140181344Y-95857287D01*
X140057289Y-95981342D01*
X139965187Y-96130663D01*
X139965186Y-96130666D01*
X139910001Y-96297203D01*
X139910001Y-96297204D01*
X139910000Y-96297204D01*
X139899500Y-96399983D01*
X139899500Y-97600001D01*
X139899501Y-97600018D01*
X139910000Y-97702796D01*
X139910001Y-97702799D01*
X139965185Y-97869331D01*
X139965187Y-97869336D01*
X139979815Y-97893052D01*
X140057288Y-98018656D01*
X140181344Y-98142712D01*
X140330666Y-98234814D01*
X140497203Y-98289999D01*
X140599991Y-98300500D01*
X141800008Y-98300499D01*
X141902797Y-98289999D01*
X142069334Y-98234814D01*
X142218656Y-98142712D01*
X142342712Y-98018656D01*
X142434814Y-97869334D01*
X142489999Y-97702797D01*
X142500500Y-97600009D01*
X142500499Y-96399992D01*
X142489999Y-96297203D01*
X142434814Y-96130666D01*
X142342712Y-95981344D01*
X142218656Y-95857288D01*
X142218655Y-95857287D01*
X142159402Y-95820739D01*
X142112678Y-95768791D01*
X142100500Y-95715201D01*
X142100500Y-92778149D01*
X143250000Y-92778149D01*
X143252899Y-92814989D01*
X143252900Y-92814995D01*
X143298716Y-92972693D01*
X143298717Y-92972696D01*
X143382314Y-93114052D01*
X143382321Y-93114061D01*
X143498438Y-93230178D01*
X143498447Y-93230185D01*
X143639801Y-93313781D01*
X143797514Y-93359600D01*
X143797511Y-93359600D01*
X143799998Y-93359795D01*
X143800000Y-93359795D01*
X143800000Y-92375000D01*
X143250000Y-92375000D01*
X143250000Y-92778149D01*
X142100500Y-92778149D01*
X142100500Y-91471850D01*
X143250000Y-91471850D01*
X143250000Y-91875000D01*
X143800000Y-91875000D01*
X144300000Y-91875000D01*
X144850000Y-91875000D01*
X144850000Y-91471865D01*
X144849999Y-91471850D01*
X144847100Y-91435010D01*
X144847099Y-91435004D01*
X144801283Y-91277306D01*
X144801282Y-91277303D01*
X144717685Y-91135947D01*
X144717678Y-91135938D01*
X144601561Y-91019821D01*
X144601552Y-91019814D01*
X144460196Y-90936217D01*
X144460193Y-90936216D01*
X144302494Y-90890400D01*
X144302497Y-90890400D01*
X144300000Y-90890203D01*
X144300000Y-91875000D01*
X143800000Y-91875000D01*
X143800000Y-90890203D01*
X143797503Y-90890400D01*
X143639806Y-90936216D01*
X143639803Y-90936217D01*
X143498447Y-91019814D01*
X143498438Y-91019821D01*
X143382321Y-91135938D01*
X143382314Y-91135947D01*
X143298717Y-91277303D01*
X143298716Y-91277306D01*
X143252900Y-91435004D01*
X143252899Y-91435010D01*
X143250000Y-91471850D01*
X142100500Y-91471850D01*
X142100500Y-89499986D01*
X142987501Y-89499986D01*
X142997994Y-89602697D01*
X143053141Y-89769119D01*
X143053143Y-89769124D01*
X143145184Y-89918345D01*
X143269154Y-90042315D01*
X143418375Y-90134356D01*
X143418380Y-90134358D01*
X143584802Y-90189505D01*
X143584809Y-90189506D01*
X143687519Y-90199999D01*
X143749999Y-90199998D01*
X143750000Y-90199998D01*
X143750000Y-89250000D01*
X142987501Y-89250000D01*
X142987501Y-89499986D01*
X142100500Y-89499986D01*
X142100500Y-88500013D01*
X142987500Y-88500013D01*
X142987500Y-88750000D01*
X143750000Y-88750000D01*
X143750000Y-87800000D01*
X143749999Y-87799999D01*
X143687528Y-87800000D01*
X143687511Y-87800001D01*
X143584802Y-87810494D01*
X143418380Y-87865641D01*
X143418375Y-87865643D01*
X143269154Y-87957684D01*
X143145184Y-88081654D01*
X143053143Y-88230875D01*
X143053141Y-88230880D01*
X142997994Y-88397302D01*
X142997993Y-88397309D01*
X142987500Y-88500013D01*
X142100500Y-88500013D01*
X142100500Y-85724361D01*
X142120185Y-85657322D01*
X142136819Y-85636680D01*
X143699463Y-84074036D01*
X143699465Y-84074033D01*
X143798009Y-83926553D01*
X143798009Y-83926552D01*
X143798013Y-83926547D01*
X143865894Y-83762666D01*
X143900500Y-83588691D01*
X143900500Y-80060758D01*
X143920185Y-79993719D01*
X143936819Y-79973077D01*
X143973314Y-79936582D01*
X144030104Y-79879792D01*
X144030106Y-79879788D01*
X144030109Y-79879786D01*
X144155048Y-79707820D01*
X144155047Y-79707820D01*
X144155051Y-79707816D01*
X144251557Y-79518412D01*
X144317246Y-79316243D01*
X144350500Y-79106287D01*
X144350500Y-78893713D01*
X144317246Y-78683757D01*
X144251557Y-78481588D01*
X144155051Y-78292184D01*
X144155049Y-78292181D01*
X144155048Y-78292179D01*
X144030109Y-78120213D01*
X143879786Y-77969890D01*
X143707820Y-77844951D01*
X143518414Y-77748444D01*
X143518413Y-77748443D01*
X143518412Y-77748443D01*
X143316243Y-77682754D01*
X143316241Y-77682753D01*
X143316240Y-77682753D01*
X143154957Y-77657208D01*
X143106287Y-77649500D01*
X142893713Y-77649500D01*
X142845042Y-77657208D01*
X142683760Y-77682753D01*
X142481585Y-77748444D01*
X142292179Y-77844951D01*
X142120215Y-77969889D01*
X142006285Y-78083819D01*
X141944962Y-78117303D01*
X141875270Y-78112319D01*
X141819337Y-78070447D01*
X141802422Y-78039470D01*
X141753354Y-77907913D01*
X141753350Y-77907906D01*
X141667190Y-77792812D01*
X141667187Y-77792809D01*
X141552093Y-77706649D01*
X141552086Y-77706645D01*
X141417379Y-77656403D01*
X141417372Y-77656401D01*
X141357844Y-77650000D01*
X140710000Y-77650000D01*
X140710000Y-78566988D01*
X140652993Y-78534075D01*
X140525826Y-78500000D01*
X140394174Y-78500000D01*
X140267007Y-78534075D01*
X140210000Y-78566988D01*
X140210000Y-77650000D01*
X139562155Y-77650000D01*
X139502627Y-77656401D01*
X139502620Y-77656403D01*
X139367913Y-77706645D01*
X139367906Y-77706649D01*
X139252812Y-77792809D01*
X139252809Y-77792812D01*
X139166649Y-77907906D01*
X139166645Y-77907913D01*
X139116403Y-78042620D01*
X139116401Y-78042627D01*
X139110000Y-78102155D01*
X131368528Y-78102155D01*
X131338278Y-78056035D01*
X131333879Y-78048801D01*
X131289509Y-77969889D01*
X131077004Y-77591950D01*
X131073123Y-77584458D01*
X130848029Y-77111153D01*
X130844659Y-77103397D01*
X130652388Y-76615829D01*
X130649553Y-76607851D01*
X130582012Y-76395048D01*
X130491000Y-76108293D01*
X130488727Y-76100179D01*
X130364637Y-75590974D01*
X130362915Y-75582685D01*
X130358355Y-75556239D01*
X130273860Y-75066182D01*
X130272714Y-75057844D01*
X130219114Y-74536460D01*
X130218537Y-74528025D01*
X130212804Y-74360208D01*
X130200572Y-74002107D01*
X130200500Y-73997874D01*
X130200500Y-73960119D01*
X130200499Y-73960116D01*
X130175000Y-73898556D01*
X130169976Y-73886426D01*
X130113574Y-73830024D01*
X130044583Y-73801447D01*
X130039883Y-73799500D01*
X130039882Y-73799500D01*
X107002312Y-73799500D01*
X106997675Y-73799413D01*
X106496509Y-73780660D01*
X106487262Y-73779967D01*
X105991197Y-73724074D01*
X105982028Y-73722692D01*
X105491535Y-73629885D01*
X105482495Y-73627822D01*
X105000297Y-73498618D01*
X104991435Y-73495885D01*
X104520241Y-73331007D01*
X104511609Y-73327619D01*
X104054050Y-73127988D01*
X104045696Y-73123964D01*
X103604359Y-72890711D01*
X103596328Y-72886075D01*
X103173632Y-72620478D01*
X103165970Y-72615254D01*
X102764319Y-72318822D01*
X102757069Y-72313040D01*
X102378672Y-71987403D01*
X102371875Y-71981096D01*
X102018903Y-71628124D01*
X102012596Y-71621327D01*
X101686959Y-71242930D01*
X101681177Y-71235680D01*
X101661075Y-71208443D01*
X101384745Y-70834029D01*
X101379521Y-70826367D01*
X101113924Y-70403671D01*
X101109288Y-70395640D01*
X100876035Y-69954303D01*
X100872011Y-69945949D01*
X100672380Y-69488390D01*
X100668992Y-69479758D01*
X100504112Y-69008558D01*
X100501381Y-68999702D01*
X100372177Y-68517504D01*
X100370114Y-68508464D01*
X100335911Y-68327697D01*
X100277305Y-68017960D01*
X100275925Y-68008802D01*
X100273340Y-67985861D01*
X100220031Y-67512725D01*
X100219339Y-67503490D01*
X100219108Y-67497309D01*
X100200673Y-67004623D01*
X100200673Y-66995364D01*
X100207302Y-66818206D01*
X103299500Y-66818206D01*
X103299500Y-66838101D01*
X103299500Y-67181794D01*
X103300993Y-67196949D01*
X103335137Y-67543630D01*
X103406064Y-67900212D01*
X103406067Y-67900223D01*
X103511614Y-68248165D01*
X103610000Y-68485690D01*
X103649824Y-68581834D01*
X103650754Y-68584078D01*
X103650756Y-68584083D01*
X103822140Y-68904720D01*
X103822151Y-68904738D01*
X104024140Y-69207035D01*
X104024150Y-69207049D01*
X104254807Y-69488106D01*
X104511893Y-69745192D01*
X104511898Y-69745196D01*
X104511899Y-69745197D01*
X104792956Y-69975854D01*
X105095268Y-70177853D01*
X105095277Y-70177858D01*
X105095279Y-70177859D01*
X105415916Y-70349243D01*
X105415918Y-70349243D01*
X105415924Y-70349247D01*
X105751836Y-70488386D01*
X106099767Y-70593930D01*
X106099773Y-70593931D01*
X106099776Y-70593932D01*
X106099787Y-70593935D01*
X106456369Y-70664862D01*
X106818206Y-70700500D01*
X106818209Y-70700500D01*
X107181791Y-70700500D01*
X107181794Y-70700500D01*
X107543631Y-70664862D01*
X107613045Y-70651054D01*
X107900212Y-70593935D01*
X107900223Y-70593932D01*
X107900223Y-70593931D01*
X107900233Y-70593930D01*
X108248164Y-70488386D01*
X108584076Y-70349247D01*
X108904732Y-70177853D01*
X109207044Y-69975854D01*
X109488101Y-69745197D01*
X109745197Y-69488101D01*
X109975854Y-69207044D01*
X110177853Y-68904732D01*
X110349247Y-68584076D01*
X110488386Y-68248164D01*
X110593930Y-67900233D01*
X110593932Y-67900223D01*
X110593935Y-67900212D01*
X110653647Y-67600013D01*
X110664862Y-67543631D01*
X110700500Y-67181794D01*
X110700500Y-66818206D01*
X110664862Y-66456369D01*
X110656138Y-66412512D01*
X110593935Y-66099787D01*
X110593932Y-66099776D01*
X110593931Y-66099773D01*
X110593930Y-66099767D01*
X110521959Y-65862513D01*
X121800000Y-65862513D01*
X121800000Y-65925000D01*
X122750000Y-65925000D01*
X122750000Y-65162500D01*
X122500029Y-65162500D01*
X122500012Y-65162501D01*
X122397302Y-65172994D01*
X122230880Y-65228141D01*
X122230875Y-65228143D01*
X122081654Y-65320184D01*
X121957684Y-65444154D01*
X121865643Y-65593375D01*
X121865641Y-65593380D01*
X121810494Y-65759802D01*
X121810493Y-65759809D01*
X121800000Y-65862513D01*
X110521959Y-65862513D01*
X110518163Y-65849998D01*
X118765204Y-65849998D01*
X118765205Y-65850000D01*
X119750000Y-65850000D01*
X120250000Y-65850000D01*
X121234795Y-65850000D01*
X121234795Y-65849998D01*
X121234600Y-65847513D01*
X121188781Y-65689801D01*
X121105185Y-65548447D01*
X121105178Y-65548438D01*
X120989061Y-65432321D01*
X120989052Y-65432314D01*
X120847696Y-65348717D01*
X120847693Y-65348716D01*
X120689995Y-65302900D01*
X120689989Y-65302899D01*
X120653149Y-65300000D01*
X120250000Y-65300000D01*
X120250000Y-65850000D01*
X119750000Y-65850000D01*
X119750000Y-65300000D01*
X119346850Y-65300000D01*
X119310010Y-65302899D01*
X119310004Y-65302900D01*
X119152306Y-65348716D01*
X119152303Y-65348717D01*
X119010947Y-65432314D01*
X119010938Y-65432321D01*
X118894821Y-65548438D01*
X118894814Y-65548447D01*
X118811218Y-65689801D01*
X118765399Y-65847513D01*
X118765204Y-65849998D01*
X110518163Y-65849998D01*
X110488386Y-65751836D01*
X110349247Y-65415924D01*
X110341099Y-65400681D01*
X110177859Y-65095279D01*
X110177858Y-65095277D01*
X110177853Y-65095268D01*
X109975854Y-64792956D01*
X109745197Y-64511899D01*
X109745196Y-64511898D01*
X109745192Y-64511893D01*
X109488106Y-64254807D01*
X109207049Y-64024150D01*
X109207048Y-64024149D01*
X109207044Y-64024146D01*
X108904732Y-63822147D01*
X108904727Y-63822144D01*
X108904720Y-63822140D01*
X108584083Y-63650756D01*
X108584078Y-63650754D01*
X108248165Y-63511614D01*
X107900223Y-63406067D01*
X107900212Y-63406064D01*
X107543630Y-63335137D01*
X107271111Y-63308296D01*
X107181794Y-63299500D01*
X106818206Y-63299500D01*
X106735679Y-63307628D01*
X106456369Y-63335137D01*
X106099787Y-63406064D01*
X106099776Y-63406067D01*
X105751834Y-63511614D01*
X105415921Y-63650754D01*
X105415916Y-63650756D01*
X105095279Y-63822140D01*
X105095261Y-63822151D01*
X104792964Y-64024140D01*
X104792950Y-64024150D01*
X104511893Y-64254807D01*
X104254807Y-64511893D01*
X104024150Y-64792950D01*
X104024140Y-64792964D01*
X103822151Y-65095261D01*
X103822140Y-65095279D01*
X103650756Y-65415916D01*
X103650754Y-65415921D01*
X103511614Y-65751834D01*
X103406067Y-66099776D01*
X103406064Y-66099787D01*
X103335137Y-66456369D01*
X103314162Y-66669336D01*
X103299500Y-66818206D01*
X100207302Y-66818206D01*
X100219340Y-66496494D01*
X100220030Y-66487276D01*
X100275927Y-65991181D01*
X100277304Y-65982043D01*
X100370114Y-65491533D01*
X100372177Y-65482495D01*
X100439219Y-65232289D01*
X100501382Y-65000290D01*
X100504109Y-64991448D01*
X100668995Y-64520231D01*
X100672380Y-64511609D01*
X100676348Y-64502516D01*
X100872013Y-64054044D01*
X100876035Y-64045696D01*
X100877911Y-64042147D01*
X101109291Y-63604352D01*
X101113924Y-63596328D01*
X101379527Y-63173622D01*
X101384738Y-63165979D01*
X101681193Y-62764298D01*
X101686959Y-62757069D01*
X101707563Y-62733127D01*
X101822142Y-62599983D01*
X113699500Y-62599983D01*
X113699500Y-63800001D01*
X113699501Y-63800018D01*
X113710000Y-63902796D01*
X113710001Y-63902799D01*
X113765185Y-64069331D01*
X113765187Y-64069336D01*
X113800069Y-64125888D01*
X113857288Y-64218656D01*
X113981344Y-64342712D01*
X114130666Y-64434814D01*
X114297203Y-64489999D01*
X114399991Y-64500500D01*
X115600008Y-64500499D01*
X115702797Y-64489999D01*
X115869334Y-64434814D01*
X116018656Y-64342712D01*
X116142712Y-64218656D01*
X116234814Y-64069334D01*
X116289999Y-63902797D01*
X116300500Y-63800009D01*
X116300499Y-62599992D01*
X116300122Y-62596306D01*
X116289999Y-62497203D01*
X116289998Y-62497200D01*
X116268960Y-62433713D01*
X116234814Y-62330666D01*
X116142712Y-62181344D01*
X116018656Y-62057288D01*
X115884890Y-61974781D01*
X115869336Y-61965187D01*
X115869331Y-61965185D01*
X115867862Y-61964698D01*
X115702797Y-61910001D01*
X115702795Y-61910000D01*
X115600010Y-61899500D01*
X114399998Y-61899500D01*
X114399981Y-61899501D01*
X114297203Y-61910000D01*
X114297200Y-61910001D01*
X114130668Y-61965185D01*
X114130663Y-61965187D01*
X113981342Y-62057289D01*
X113857289Y-62181342D01*
X113765187Y-62330663D01*
X113765185Y-62330668D01*
X113750440Y-62375165D01*
X113710001Y-62497203D01*
X113710001Y-62497204D01*
X113710000Y-62497204D01*
X113699500Y-62599983D01*
X101822142Y-62599983D01*
X102012608Y-62378657D01*
X102018890Y-62371888D01*
X102371888Y-62018890D01*
X102378672Y-62012596D01*
X102510092Y-61899500D01*
X102757074Y-61686954D01*
X102764298Y-61681193D01*
X103165979Y-61384738D01*
X103173622Y-61379527D01*
X103596334Y-61113920D01*
X103604352Y-61109291D01*
X104045701Y-60876032D01*
X104054044Y-60872013D01*
X104511618Y-60672376D01*
X104520231Y-60668995D01*
X104991448Y-60504109D01*
X105000290Y-60501382D01*
X105290823Y-60423535D01*
X105482495Y-60372177D01*
X105491535Y-60370114D01*
X105499415Y-60368623D01*
X105982043Y-60277304D01*
X105991181Y-60275927D01*
X106487276Y-60220030D01*
X106496496Y-60219339D01*
X106965311Y-60201798D01*
X106997676Y-60200587D01*
X107002312Y-60200500D01*
X130039880Y-60200500D01*
X130039882Y-60200500D01*
X130113574Y-60169976D01*
X130169976Y-60113574D01*
X130200500Y-60039882D01*
X130200500Y-60002125D01*
X130200572Y-59997892D01*
X130207349Y-59799500D01*
X130218537Y-59471960D01*
X130219113Y-59463541D01*
X130272714Y-58942151D01*
X130273859Y-58933821D01*
X130362916Y-58417308D01*
X130364638Y-58409024D01*
X130418788Y-58186819D01*
X130488729Y-57899813D01*
X130490998Y-57891714D01*
X130649554Y-57392144D01*
X130652388Y-57384170D01*
X130805964Y-56994727D01*
X130844667Y-56896581D01*
X130848024Y-56888856D01*
X131073128Y-56415529D01*
X131076998Y-56408060D01*
X131333886Y-55951186D01*
X131338271Y-55943975D01*
X131625737Y-55505697D01*
X131630589Y-55498823D01*
X131947304Y-55081173D01*
X131952605Y-55074657D01*
X132297073Y-54679605D01*
X132302823Y-54673448D01*
X132673448Y-54302823D01*
X132679605Y-54297073D01*
X133074657Y-53952605D01*
X133081173Y-53947304D01*
X133498823Y-53630589D01*
X133505697Y-53625737D01*
X133943975Y-53338271D01*
X133951186Y-53333886D01*
X134408060Y-53076998D01*
X134415529Y-53073128D01*
X134888856Y-52848024D01*
X134896581Y-52844667D01*
X135384173Y-52652386D01*
X135392148Y-52649553D01*
X135891714Y-52490998D01*
X135899813Y-52488729D01*
X136409031Y-52364636D01*
X136417308Y-52362916D01*
X136933821Y-52273859D01*
X136942151Y-52272714D01*
X137463541Y-52219113D01*
X137471960Y-52218537D01*
X137997892Y-52200571D01*
X138002125Y-52200500D01*
X138039880Y-52200500D01*
X138039882Y-52200500D01*
X138113574Y-52169976D01*
X138169976Y-52113574D01*
X138200500Y-52039882D01*
X138200500Y-51960118D01*
X138200500Y-29002311D01*
X138200587Y-28997674D01*
X138207302Y-28818209D01*
X141299500Y-28818209D01*
X141299500Y-29181790D01*
X141335137Y-29543630D01*
X141406064Y-29900212D01*
X141406067Y-29900223D01*
X141511614Y-30248165D01*
X141650754Y-30584078D01*
X141650756Y-30584083D01*
X141822140Y-30904720D01*
X141822151Y-30904738D01*
X142024140Y-31207035D01*
X142024150Y-31207049D01*
X142254807Y-31488106D01*
X142511893Y-31745192D01*
X142511898Y-31745196D01*
X142511899Y-31745197D01*
X142792956Y-31975854D01*
X143095268Y-32177853D01*
X143095277Y-32177858D01*
X143095279Y-32177859D01*
X143415916Y-32349243D01*
X143415918Y-32349243D01*
X143415924Y-32349247D01*
X143751836Y-32488386D01*
X144099767Y-32593930D01*
X144099773Y-32593931D01*
X144099776Y-32593932D01*
X144099787Y-32593935D01*
X144456369Y-32664862D01*
X144818206Y-32700500D01*
X144818209Y-32700500D01*
X145181791Y-32700500D01*
X145181794Y-32700500D01*
X145543631Y-32664862D01*
X145613045Y-32651054D01*
X145900212Y-32593935D01*
X145900223Y-32593932D01*
X145900223Y-32593931D01*
X145900233Y-32593930D01*
X146248164Y-32488386D01*
X146584076Y-32349247D01*
X146904732Y-32177853D01*
X147207044Y-31975854D01*
X147488101Y-31745197D01*
X147745197Y-31488101D01*
X147975854Y-31207044D01*
X148177853Y-30904732D01*
X148349247Y-30584076D01*
X148488386Y-30248164D01*
X148593930Y-29900233D01*
X148593932Y-29900223D01*
X148593935Y-29900212D01*
X148664862Y-29543630D01*
X148700500Y-29181790D01*
X148700500Y-28818209D01*
X148664862Y-28456369D01*
X148593935Y-28099787D01*
X148593932Y-28099776D01*
X148593931Y-28099773D01*
X148593930Y-28099767D01*
X148488386Y-27751836D01*
X148349247Y-27415924D01*
X148177853Y-27095268D01*
X147975854Y-26792956D01*
X147745197Y-26511899D01*
X147745196Y-26511898D01*
X147745192Y-26511893D01*
X147488106Y-26254807D01*
X147207049Y-26024150D01*
X147207048Y-26024149D01*
X147207044Y-26024146D01*
X146904732Y-25822147D01*
X146904727Y-25822144D01*
X146904720Y-25822140D01*
X146584083Y-25650756D01*
X146584078Y-25650754D01*
X146248165Y-25511614D01*
X145900223Y-25406067D01*
X145900212Y-25406064D01*
X145543630Y-25335137D01*
X145271111Y-25308296D01*
X145181794Y-25299500D01*
X144818206Y-25299500D01*
X144735679Y-25307628D01*
X144456369Y-25335137D01*
X144099787Y-25406064D01*
X144099776Y-25406067D01*
X143751834Y-25511614D01*
X143415921Y-25650754D01*
X143415916Y-25650756D01*
X143095279Y-25822140D01*
X143095261Y-25822151D01*
X142792964Y-26024140D01*
X142792950Y-26024150D01*
X142511893Y-26254807D01*
X142254807Y-26511893D01*
X142024150Y-26792950D01*
X142024140Y-26792964D01*
X141822151Y-27095261D01*
X141822140Y-27095279D01*
X141650756Y-27415916D01*
X141650754Y-27415921D01*
X141511614Y-27751834D01*
X141406067Y-28099776D01*
X141406064Y-28099787D01*
X141335137Y-28456369D01*
X141299500Y-28818209D01*
X138207302Y-28818209D01*
X138207590Y-28810525D01*
X138207590Y-28810524D01*
X138219339Y-28496510D01*
X138219340Y-28496509D01*
X138219339Y-28496496D01*
X138220030Y-28487276D01*
X138275927Y-27991181D01*
X138277304Y-27982043D01*
X138370114Y-27491533D01*
X138372177Y-27482495D01*
X138501381Y-27000297D01*
X138504109Y-26991448D01*
X138668995Y-26520231D01*
X138672380Y-26511609D01*
X138742970Y-26349817D01*
X138872013Y-26054044D01*
X138876035Y-26045696D01*
X139109291Y-25604352D01*
X139113924Y-25596328D01*
X139379527Y-25173622D01*
X139384738Y-25165979D01*
X139681193Y-24764298D01*
X139686959Y-24757069D01*
X140012596Y-24378672D01*
X140018890Y-24371888D01*
X140371888Y-24018890D01*
X140378672Y-24012596D01*
X140757069Y-23686959D01*
X140764298Y-23681193D01*
X141165979Y-23384738D01*
X141173622Y-23379527D01*
X141596334Y-23113920D01*
X141604352Y-23109291D01*
X142045701Y-22876032D01*
X142054044Y-22872013D01*
X142511618Y-22672376D01*
X142520231Y-22668995D01*
X142991448Y-22504109D01*
X143000290Y-22501382D01*
X143269847Y-22429155D01*
X143482495Y-22372177D01*
X143491535Y-22370114D01*
X143982043Y-22277304D01*
X143991181Y-22275927D01*
X144487276Y-22220030D01*
X144496494Y-22219340D01*
X144995377Y-22200673D01*
X145004623Y-22200673D01*
X145503503Y-22219339D01*
G37*
G04 #@! TD.AperFunction*
G04 #@! TA.AperFunction,Conductor*
G36*
X155942677Y-60680185D02*
G01*
X155963319Y-60696819D01*
X157154319Y-61887819D01*
X157187804Y-61949142D01*
X157182820Y-62018834D01*
X157140948Y-62074767D01*
X157075484Y-62099184D01*
X157066638Y-62099500D01*
X154751303Y-62099500D01*
X154577341Y-62134103D01*
X154577329Y-62134106D01*
X154500449Y-62165951D01*
X154430980Y-62173420D01*
X154368501Y-62142144D01*
X154332849Y-62082055D01*
X154330524Y-62070788D01*
X154316757Y-61983872D01*
X154316757Y-61983869D01*
X154251095Y-61781782D01*
X154154624Y-61592449D01*
X154115270Y-61538282D01*
X154115269Y-61538282D01*
X153482962Y-62170590D01*
X153465925Y-62107007D01*
X153400099Y-61992993D01*
X153307007Y-61899901D01*
X153192993Y-61834075D01*
X153129409Y-61817037D01*
X153799627Y-61146818D01*
X153860950Y-61113333D01*
X153887307Y-61110499D01*
X153897872Y-61110499D01*
X153957483Y-61104091D01*
X154092331Y-61053796D01*
X154207546Y-60967546D01*
X154293796Y-60852331D01*
X154301149Y-60832615D01*
X154335258Y-60741167D01*
X154377129Y-60685233D01*
X154442593Y-60660816D01*
X154451440Y-60660500D01*
X155875638Y-60660500D01*
X155942677Y-60680185D01*
G37*
G04 #@! TD.AperFunction*
M02*
