G04 #@! TF.GenerationSoftware,KiCad,Pcbnew,9.0.6*
G04 #@! TF.CreationDate,2025-12-10T21:01:51+02:00*
G04 #@! TF.ProjectId,tinywhoop_frame,74696e79-7768-46f6-9f70-5f6672616d65,rev?*
G04 #@! TF.SameCoordinates,Original*
G04 #@! TF.FileFunction,Copper,L1,Top*
G04 #@! TF.FilePolarity,Positive*
%FSLAX46Y46*%
G04 Gerber Fmt 4.6, Leading zero omitted, Abs format (unit mm)*
G04 Created by KiCad (PCBNEW 9.0.6) date 2025-12-10 21:01:51*
%MOMM*%
%LPD*%
G01*
G04 APERTURE LIST*
G04 Aperture macros list*
%AMRoundRect*
0 Rectangle with rounded corners*
0 $1 Rounding radius*
0 $2 $3 $4 $5 $6 $7 $8 $9 X,Y pos of 4 corners*
0 Add a 4 corners polygon primitive as box body*
4,1,4,$2,$3,$4,$5,$6,$7,$8,$9,$2,$3,0*
0 Add four circle primitives for the rounded corners*
1,1,$1+$1,$2,$3*
1,1,$1+$1,$4,$5*
1,1,$1+$1,$6,$7*
1,1,$1+$1,$8,$9*
0 Add four rect primitives between the rounded corners*
20,1,$1+$1,$2,$3,$4,$5,0*
20,1,$1+$1,$4,$5,$6,$7,0*
20,1,$1+$1,$6,$7,$8,$9,0*
20,1,$1+$1,$8,$9,$2,$3,0*%
G04 Aperture macros list end*
G04 #@! TA.AperFunction,SMDPad,CuDef*
%ADD10RoundRect,0.250000X0.337500X0.475000X-0.337500X0.475000X-0.337500X-0.475000X0.337500X-0.475000X0*%
G04 #@! TD*
G04 #@! TA.AperFunction,ComponentPad*
%ADD11R,1.700000X1.700000*%
G04 #@! TD*
G04 #@! TA.AperFunction,ComponentPad*
%ADD12C,1.700000*%
G04 #@! TD*
G04 #@! TA.AperFunction,ViaPad*
%ADD13C,0.800000*%
G04 #@! TD*
G04 #@! TA.AperFunction,Conductor*
%ADD14C,0.800000*%
G04 #@! TD*
G04 #@! TA.AperFunction,Conductor*
%ADD15C,0.300000*%
G04 #@! TD*
G04 APERTURE END LIST*
D10*
X143075000Y-82000000D03*
X141000000Y-82000000D03*
D11*
X153000000Y-59760000D03*
D12*
X153000000Y-62300000D03*
X153000000Y-64840000D03*
X153000000Y-67380000D03*
X153000000Y-69920000D03*
X153000000Y-72460000D03*
X153000000Y-75000000D03*
D11*
X131500000Y-69580000D03*
D12*
X131500000Y-67040000D03*
X131500000Y-64500000D03*
D11*
X136000000Y-60000000D03*
D12*
X136000000Y-62540000D03*
X136000000Y-65080000D03*
X136000000Y-67620000D03*
X136000000Y-70160000D03*
X136000000Y-72700000D03*
X136000000Y-75240000D03*
D11*
X140460000Y-79000000D03*
D12*
X143000000Y-79000000D03*
D11*
X150500000Y-79000000D03*
D12*
X147960000Y-79000000D03*
D11*
X162000000Y-65460000D03*
D12*
X162000000Y-68000000D03*
X159460000Y-65460000D03*
X159460000Y-68000000D03*
X156920000Y-65460000D03*
X156920000Y-68000000D03*
D13*
X149000000Y-67500000D03*
X149000000Y-75000000D03*
X167000000Y-63500000D03*
X149000000Y-59000000D03*
X126000000Y-70000000D03*
X143500000Y-86000000D03*
X146500000Y-49500000D03*
D14*
X148000000Y-68000000D02*
X148500000Y-68000000D01*
X148500000Y-59500000D02*
X149000000Y-59000000D01*
X148000000Y-77000000D02*
X148000000Y-75500000D01*
X143000000Y-79000000D02*
X143000000Y-78638000D01*
X148000000Y-59500000D02*
X148500000Y-59500000D01*
X147960000Y-77040000D02*
X148000000Y-77000000D01*
X143000000Y-78638000D02*
X140862000Y-76500000D01*
X148000000Y-59500000D02*
X148000000Y-53500000D01*
X148000000Y-75500000D02*
X148500000Y-75500000D01*
X138500000Y-76500000D02*
X138000000Y-77000000D01*
X147000000Y-79000000D02*
X147960000Y-79000000D01*
X155500000Y-59000000D02*
X155500000Y-62000000D01*
X138000000Y-77000000D02*
X135500000Y-77000000D01*
X155500000Y-62000000D02*
X156500000Y-63000000D01*
X148500000Y-68000000D02*
X149000000Y-67500000D01*
X148000000Y-75500000D02*
X148000000Y-68000000D01*
X154500000Y-58000000D02*
X155500000Y-59000000D01*
X143075000Y-85575000D02*
X143500000Y-86000000D01*
X148500000Y-75500000D02*
X149000000Y-75000000D01*
X148000000Y-68000000D02*
X148000000Y-59500000D01*
X147960000Y-79000000D02*
X147960000Y-77040000D01*
X166500000Y-63000000D02*
X167000000Y-63500000D01*
X144000000Y-82000000D02*
X147000000Y-79000000D01*
X143075000Y-82000000D02*
X144000000Y-82000000D01*
X150000000Y-58000000D02*
X154500000Y-58000000D01*
X143075000Y-79075000D02*
X143000000Y-79000000D01*
X156500000Y-63000000D02*
X166500000Y-63000000D01*
X140862000Y-76500000D02*
X138500000Y-76500000D01*
X135500000Y-77000000D02*
X128500000Y-70000000D01*
X128500000Y-70000000D02*
X126000000Y-70000000D01*
X143075000Y-82000000D02*
X143075000Y-79075000D01*
X143075000Y-82000000D02*
X143075000Y-85575000D01*
X143000000Y-79000000D02*
X143000000Y-78500000D01*
X148000000Y-51000000D02*
X146500000Y-49500000D01*
X148000000Y-53500000D02*
X148000000Y-51000000D01*
X143000000Y-82075000D02*
X143075000Y-82000000D01*
X149000000Y-59000000D02*
X150000000Y-58000000D01*
X141000000Y-79540000D02*
X140460000Y-79000000D01*
X141000000Y-82000000D02*
X141000000Y-79540000D01*
D15*
X136080000Y-65000000D02*
X136000000Y-65080000D01*
X136040000Y-62500000D02*
X136000000Y-62540000D01*
X132701000Y-68241000D02*
X132701000Y-69401000D01*
X132701000Y-69401000D02*
X136000000Y-72700000D01*
X131500000Y-67040000D02*
X132701000Y-68241000D01*
X131500000Y-69580000D02*
X131500000Y-70740000D01*
X131500000Y-70740000D02*
X136000000Y-75240000D01*
X134799000Y-68959000D02*
X136000000Y-70160000D01*
X131500000Y-64500000D02*
X134799000Y-67799000D01*
X134799000Y-67799000D02*
X134799000Y-68959000D01*
D14*
X159460000Y-65460000D02*
X158000000Y-64000000D01*
X153840000Y-64000000D02*
X158000000Y-64000000D01*
X153000000Y-64840000D02*
X153840000Y-64000000D01*
D15*
X153000000Y-75000000D02*
X155000000Y-75000000D01*
X155000000Y-75000000D02*
X162000000Y-68000000D01*
X154920000Y-68000000D02*
X156920000Y-68000000D01*
X153000000Y-69920000D02*
X154920000Y-68000000D01*
X155000000Y-72460000D02*
X159460000Y-68000000D01*
X153000000Y-72460000D02*
X155000000Y-72460000D01*
X154920000Y-65460000D02*
X156920000Y-65460000D01*
X153000000Y-67380000D02*
X154920000Y-65460000D01*
G04 #@! TA.AperFunction,Conductor*
G36*
X154478813Y-59302538D02*
G01*
X154492146Y-59300622D01*
X154512289Y-59309821D01*
X154533926Y-59314528D01*
X154551651Y-59327796D01*
X154555702Y-59329647D01*
X154562180Y-59335679D01*
X154563181Y-59336680D01*
X154596666Y-59398003D01*
X154599500Y-59424361D01*
X154599500Y-62088696D01*
X154634103Y-62262659D01*
X154634106Y-62262669D01*
X154649792Y-62300536D01*
X154649793Y-62300539D01*
X154701984Y-62426542D01*
X154734985Y-62475932D01*
X154800537Y-62574038D01*
X154800540Y-62574041D01*
X155114319Y-62887819D01*
X155147804Y-62949142D01*
X155142820Y-63018833D01*
X155100949Y-63074767D01*
X155035484Y-63099184D01*
X155026638Y-63099500D01*
X154310124Y-63099500D01*
X154243085Y-63079815D01*
X154197330Y-63027011D01*
X154187386Y-62957853D01*
X154199639Y-62919205D01*
X154251095Y-62818217D01*
X154316757Y-62616130D01*
X154316757Y-62616127D01*
X154350000Y-62406246D01*
X154350000Y-62193753D01*
X154316757Y-61983872D01*
X154316757Y-61983869D01*
X154251095Y-61781782D01*
X154154624Y-61592449D01*
X154115270Y-61538282D01*
X154115269Y-61538282D01*
X153482962Y-62170590D01*
X153465925Y-62107007D01*
X153400099Y-61992993D01*
X153307007Y-61899901D01*
X153192993Y-61834075D01*
X153129409Y-61817037D01*
X153799627Y-61146818D01*
X153860950Y-61113333D01*
X153887307Y-61110499D01*
X153897872Y-61110499D01*
X153957483Y-61104091D01*
X154092331Y-61053796D01*
X154207546Y-60967546D01*
X154293796Y-60852331D01*
X154344091Y-60717483D01*
X154350500Y-60657873D01*
X154350499Y-59423359D01*
X154356737Y-59402114D01*
X154358317Y-59380026D01*
X154366389Y-59369242D01*
X154370184Y-59356321D01*
X154386917Y-59341820D01*
X154400189Y-59324093D01*
X154412808Y-59319386D01*
X154422987Y-59310566D01*
X154444905Y-59307414D01*
X154465653Y-59299676D01*
X154478813Y-59302538D01*
G37*
G04 #@! TD.AperFunction*
G04 #@! TA.AperFunction,Conductor*
G36*
X145503503Y-32219339D02*
G01*
X145512725Y-32220031D01*
X146008814Y-32275926D01*
X146017960Y-32277305D01*
X146396587Y-32348945D01*
X146508464Y-32370114D01*
X146517504Y-32372177D01*
X146999702Y-32501381D01*
X147008558Y-32504112D01*
X147479758Y-32668992D01*
X147488390Y-32672380D01*
X147945949Y-32872011D01*
X147954303Y-32876035D01*
X148395640Y-33109288D01*
X148403671Y-33113924D01*
X148826367Y-33379521D01*
X148834029Y-33384745D01*
X149235688Y-33681183D01*
X149242930Y-33686959D01*
X149621327Y-34012596D01*
X149628124Y-34018903D01*
X149981096Y-34371875D01*
X149987403Y-34378672D01*
X150313040Y-34757069D01*
X150318822Y-34764319D01*
X150615254Y-35165970D01*
X150620478Y-35173632D01*
X150886075Y-35596328D01*
X150890711Y-35604359D01*
X151123964Y-36045696D01*
X151127988Y-36054050D01*
X151327619Y-36511609D01*
X151331007Y-36520241D01*
X151495885Y-36991435D01*
X151498618Y-37000297D01*
X151627822Y-37482495D01*
X151629885Y-37491535D01*
X151722692Y-37982028D01*
X151724074Y-37991197D01*
X151779967Y-38487262D01*
X151780660Y-38496509D01*
X151799413Y-38997674D01*
X151799500Y-39002311D01*
X151799500Y-50279920D01*
X151797557Y-50285488D01*
X151799500Y-50319615D01*
X151799500Y-50353789D01*
X151800544Y-50359040D01*
X151802724Y-50376164D01*
X151807725Y-50463867D01*
X151858153Y-50736830D01*
X151942426Y-51001300D01*
X151942427Y-51001304D01*
X152059213Y-51253109D01*
X152059224Y-51253129D01*
X152166593Y-51424361D01*
X152206678Y-51488289D01*
X152382478Y-51703101D01*
X152583838Y-51894160D01*
X152583842Y-51894163D01*
X152583848Y-51894168D01*
X152807563Y-52058436D01*
X152807570Y-52058440D01*
X152807579Y-52058447D01*
X152807590Y-52058453D01*
X153013916Y-52173205D01*
X153050163Y-52193364D01*
X153307757Y-52296781D01*
X153307766Y-52296783D01*
X153307768Y-52296784D01*
X153320421Y-52300096D01*
X153410286Y-52323623D01*
X153416209Y-52327506D01*
X153448636Y-52333663D01*
X153480604Y-52342030D01*
X153481811Y-52342346D01*
X153498796Y-52344754D01*
X153977910Y-52453027D01*
X153986200Y-52455204D01*
X154495226Y-52607924D01*
X154503321Y-52610662D01*
X155000538Y-52798216D01*
X155008455Y-52801519D01*
X155491506Y-53023015D01*
X155499162Y-53026852D01*
X155685138Y-53128247D01*
X155965734Y-53281230D01*
X155973122Y-53285596D01*
X156420987Y-53571641D01*
X156428030Y-53576490D01*
X156855057Y-53892844D01*
X156861752Y-53898173D01*
X157265849Y-54243286D01*
X157272178Y-54249082D01*
X157651423Y-54621308D01*
X157657326Y-54627516D01*
X158009952Y-55025122D01*
X158015402Y-55031714D01*
X158088817Y-55127037D01*
X158339657Y-55452730D01*
X158344655Y-55459706D01*
X158639009Y-55902139D01*
X158643513Y-55909445D01*
X158906560Y-56371180D01*
X158910547Y-56378779D01*
X159141022Y-56857592D01*
X159144475Y-56865450D01*
X159341283Y-57359077D01*
X159344183Y-57367154D01*
X159506370Y-57873192D01*
X159508705Y-57881450D01*
X159635404Y-58397099D01*
X159636946Y-58404287D01*
X159660707Y-58533660D01*
X159660708Y-58533664D01*
X159744983Y-58798920D01*
X159844341Y-59013332D01*
X159862005Y-59051449D01*
X160009909Y-59287223D01*
X160186338Y-59502485D01*
X160388479Y-59693806D01*
X160613114Y-59858136D01*
X160613117Y-59858138D01*
X160613121Y-59858140D01*
X160856661Y-59992857D01*
X161115239Y-60095822D01*
X161384730Y-60165391D01*
X161660837Y-60200455D01*
X161748071Y-60200483D01*
X161748245Y-60200500D01*
X161760118Y-60200500D01*
X161800000Y-60200500D01*
X161839882Y-60200500D01*
X172960118Y-60200500D01*
X172997688Y-60200500D01*
X173002324Y-60200587D01*
X173043658Y-60202133D01*
X173503501Y-60219339D01*
X173512725Y-60220031D01*
X174008814Y-60275926D01*
X174017960Y-60277305D01*
X174396587Y-60348945D01*
X174508464Y-60370114D01*
X174517504Y-60372177D01*
X174999702Y-60501381D01*
X175008558Y-60504112D01*
X175259776Y-60592017D01*
X175479758Y-60668992D01*
X175488390Y-60672380D01*
X175945949Y-60872011D01*
X175954303Y-60876035D01*
X176395640Y-61109288D01*
X176403671Y-61113924D01*
X176826367Y-61379521D01*
X176834029Y-61384745D01*
X176875915Y-61415658D01*
X177235688Y-61681183D01*
X177242930Y-61686959D01*
X177621327Y-62012596D01*
X177628124Y-62018903D01*
X177981096Y-62371875D01*
X177987403Y-62378672D01*
X178313040Y-62757069D01*
X178318819Y-62764315D01*
X178386662Y-62856239D01*
X178615254Y-63165970D01*
X178620478Y-63173632D01*
X178886075Y-63596328D01*
X178890711Y-63604359D01*
X179123964Y-64045696D01*
X179127988Y-64054050D01*
X179327619Y-64511609D01*
X179331007Y-64520241D01*
X179495885Y-64991435D01*
X179498618Y-65000297D01*
X179627822Y-65482495D01*
X179629885Y-65491535D01*
X179722692Y-65982028D01*
X179724074Y-65991197D01*
X179779967Y-66487262D01*
X179780660Y-66496509D01*
X179799326Y-66995363D01*
X179799326Y-67004637D01*
X179780660Y-67503490D01*
X179779967Y-67512737D01*
X179724074Y-68008802D01*
X179722692Y-68017971D01*
X179629885Y-68508464D01*
X179627822Y-68517504D01*
X179498618Y-68999702D01*
X179495885Y-69008564D01*
X179331007Y-69479758D01*
X179327619Y-69488390D01*
X179127988Y-69945949D01*
X179123964Y-69954303D01*
X178890711Y-70395640D01*
X178886075Y-70403671D01*
X178620478Y-70826367D01*
X178615254Y-70834029D01*
X178318822Y-71235680D01*
X178313040Y-71242930D01*
X177987403Y-71621327D01*
X177981096Y-71628124D01*
X177628124Y-71981096D01*
X177621327Y-71987403D01*
X177242930Y-72313040D01*
X177235680Y-72318822D01*
X176834029Y-72615254D01*
X176826367Y-72620478D01*
X176403671Y-72886075D01*
X176395640Y-72890711D01*
X175954303Y-73123964D01*
X175945949Y-73127988D01*
X175488390Y-73327619D01*
X175479758Y-73331007D01*
X175008564Y-73495885D01*
X174999702Y-73498618D01*
X174517504Y-73627822D01*
X174508464Y-73629885D01*
X174017971Y-73722692D01*
X174008802Y-73724074D01*
X173512737Y-73779967D01*
X173503490Y-73780660D01*
X173002325Y-73799413D01*
X172997688Y-73799500D01*
X161794081Y-73799500D01*
X161669790Y-73799478D01*
X161411176Y-73830193D01*
X161157987Y-73891193D01*
X160942414Y-73971017D01*
X160913774Y-73981622D01*
X160681922Y-74100224D01*
X160681919Y-74100225D01*
X160681919Y-74100226D01*
X160681911Y-74100231D01*
X160465677Y-74245339D01*
X160465676Y-74245340D01*
X160268053Y-74414949D01*
X160268040Y-74414962D01*
X160091811Y-74606680D01*
X159939405Y-74817867D01*
X159939404Y-74817869D01*
X159812981Y-75045534D01*
X159812978Y-75045540D01*
X159714280Y-75286541D01*
X159644697Y-75537489D01*
X159644695Y-75537499D01*
X159627112Y-75652195D01*
X159624774Y-75663747D01*
X159499773Y-76159065D01*
X159497462Y-76167079D01*
X159337669Y-76658341D01*
X159334824Y-76666181D01*
X159142364Y-77145600D01*
X159138998Y-77153231D01*
X158914754Y-77618611D01*
X158910883Y-77625999D01*
X158655851Y-78075267D01*
X158651492Y-78082377D01*
X158366848Y-78513468D01*
X158362021Y-78520270D01*
X158049024Y-78931275D01*
X158043750Y-78937736D01*
X157703856Y-79326743D01*
X157698160Y-79332836D01*
X157332874Y-79698123D01*
X157326782Y-79703819D01*
X156937752Y-80043738D01*
X156931290Y-80049011D01*
X156520311Y-80361992D01*
X156513510Y-80366819D01*
X156082418Y-80651468D01*
X156075307Y-80655828D01*
X155626036Y-80910863D01*
X155618648Y-80914734D01*
X155153257Y-81138987D01*
X155145626Y-81142352D01*
X154666239Y-81334802D01*
X154658399Y-81337648D01*
X154167118Y-81497450D01*
X154159105Y-81499761D01*
X153663783Y-81624766D01*
X153652228Y-81627104D01*
X153537557Y-81644681D01*
X153537534Y-81644686D01*
X153286602Y-81714259D01*
X153286577Y-81714268D01*
X153045585Y-81812955D01*
X153045574Y-81812961D01*
X152817907Y-81939379D01*
X152817885Y-81939393D01*
X152606715Y-82091781D01*
X152414972Y-82268028D01*
X152245355Y-82465656D01*
X152100228Y-82681912D01*
X151981631Y-82913750D01*
X151891193Y-83157981D01*
X151830194Y-83411165D01*
X151830193Y-83411168D01*
X151799477Y-83669787D01*
X151799500Y-83800000D01*
X151799500Y-94997688D01*
X151799413Y-95002325D01*
X151780660Y-95503490D01*
X151779967Y-95512737D01*
X151724074Y-96008802D01*
X151722692Y-96017971D01*
X151629885Y-96508464D01*
X151627822Y-96517504D01*
X151498618Y-96999702D01*
X151495885Y-97008564D01*
X151331007Y-97479758D01*
X151327619Y-97488390D01*
X151127988Y-97945949D01*
X151123964Y-97954303D01*
X150890711Y-98395640D01*
X150886075Y-98403671D01*
X150620478Y-98826367D01*
X150615254Y-98834029D01*
X150318822Y-99235680D01*
X150313040Y-99242930D01*
X149987403Y-99621327D01*
X149981096Y-99628124D01*
X149628124Y-99981096D01*
X149621327Y-99987403D01*
X149242930Y-100313040D01*
X149235680Y-100318822D01*
X148834029Y-100615254D01*
X148826367Y-100620478D01*
X148403671Y-100886075D01*
X148395640Y-100890711D01*
X147954303Y-101123964D01*
X147945949Y-101127988D01*
X147488390Y-101327619D01*
X147479758Y-101331007D01*
X147008564Y-101495885D01*
X146999702Y-101498618D01*
X146517504Y-101627822D01*
X146508464Y-101629885D01*
X146017971Y-101722692D01*
X146008802Y-101724074D01*
X145512737Y-101779967D01*
X145503490Y-101780660D01*
X145004637Y-101799326D01*
X144995363Y-101799326D01*
X144496509Y-101780660D01*
X144487262Y-101779967D01*
X143991197Y-101724074D01*
X143982028Y-101722692D01*
X143491535Y-101629885D01*
X143482495Y-101627822D01*
X143000297Y-101498618D01*
X142991435Y-101495885D01*
X142520241Y-101331007D01*
X142511609Y-101327619D01*
X142054050Y-101127988D01*
X142045696Y-101123964D01*
X141604359Y-100890711D01*
X141596328Y-100886075D01*
X141173632Y-100620478D01*
X141165970Y-100615254D01*
X140764319Y-100318822D01*
X140757069Y-100313040D01*
X140378672Y-99987403D01*
X140371875Y-99981096D01*
X140018903Y-99628124D01*
X140012596Y-99621327D01*
X139686959Y-99242930D01*
X139681177Y-99235680D01*
X139384745Y-98834029D01*
X139379521Y-98826367D01*
X139113924Y-98403671D01*
X139109288Y-98395640D01*
X138876035Y-97954303D01*
X138872011Y-97945949D01*
X138672380Y-97488390D01*
X138668992Y-97479758D01*
X138504112Y-97008558D01*
X138501381Y-96999702D01*
X138372177Y-96517504D01*
X138370114Y-96508464D01*
X138332326Y-96308749D01*
X138277305Y-96017960D01*
X138275925Y-96008802D01*
X138263692Y-95900233D01*
X138220031Y-95512725D01*
X138219339Y-95503489D01*
X138210346Y-95263152D01*
X138200587Y-95002324D01*
X138200500Y-94997688D01*
X138200500Y-94818209D01*
X141299500Y-94818209D01*
X141299500Y-95181790D01*
X141335137Y-95543630D01*
X141406064Y-95900212D01*
X141406067Y-95900223D01*
X141511614Y-96248165D01*
X141650754Y-96584078D01*
X141650756Y-96584083D01*
X141822140Y-96904720D01*
X141822151Y-96904738D01*
X142024140Y-97207035D01*
X142024150Y-97207049D01*
X142254807Y-97488106D01*
X142511893Y-97745192D01*
X142511898Y-97745196D01*
X142511899Y-97745197D01*
X142792956Y-97975854D01*
X143095268Y-98177853D01*
X143095277Y-98177858D01*
X143095279Y-98177859D01*
X143415916Y-98349243D01*
X143415918Y-98349243D01*
X143415924Y-98349247D01*
X143751836Y-98488386D01*
X144099767Y-98593930D01*
X144099773Y-98593931D01*
X144099776Y-98593932D01*
X144099787Y-98593935D01*
X144456369Y-98664862D01*
X144818206Y-98700500D01*
X144818209Y-98700500D01*
X145181791Y-98700500D01*
X145181794Y-98700500D01*
X145543631Y-98664862D01*
X145613045Y-98651054D01*
X145900212Y-98593935D01*
X145900223Y-98593932D01*
X145900223Y-98593931D01*
X145900233Y-98593930D01*
X146248164Y-98488386D01*
X146584076Y-98349247D01*
X146904732Y-98177853D01*
X147207044Y-97975854D01*
X147488101Y-97745197D01*
X147745197Y-97488101D01*
X147975854Y-97207044D01*
X148177853Y-96904732D01*
X148349247Y-96584076D01*
X148488386Y-96248164D01*
X148593930Y-95900233D01*
X148593932Y-95900223D01*
X148593935Y-95900212D01*
X148664862Y-95543630D01*
X148668359Y-95508127D01*
X148700500Y-95181794D01*
X148700500Y-94818206D01*
X148664862Y-94456369D01*
X148613527Y-94198287D01*
X148593935Y-94099787D01*
X148593932Y-94099776D01*
X148593931Y-94099773D01*
X148593930Y-94099767D01*
X148488386Y-93751836D01*
X148349247Y-93415924D01*
X148177853Y-93095268D01*
X147975854Y-92792956D01*
X147745197Y-92511899D01*
X147745196Y-92511898D01*
X147745192Y-92511893D01*
X147488106Y-92254807D01*
X147207049Y-92024150D01*
X147207048Y-92024149D01*
X147207044Y-92024146D01*
X146904732Y-91822147D01*
X146904727Y-91822144D01*
X146904720Y-91822140D01*
X146584083Y-91650756D01*
X146584078Y-91650754D01*
X146248165Y-91511614D01*
X145900223Y-91406067D01*
X145900212Y-91406064D01*
X145543630Y-91335137D01*
X145271111Y-91308296D01*
X145181794Y-91299500D01*
X144818206Y-91299500D01*
X144735679Y-91307628D01*
X144456369Y-91335137D01*
X144099787Y-91406064D01*
X144099776Y-91406067D01*
X143751834Y-91511614D01*
X143415921Y-91650754D01*
X143415916Y-91650756D01*
X143095279Y-91822140D01*
X143095261Y-91822151D01*
X142792964Y-92024140D01*
X142792950Y-92024150D01*
X142511893Y-92254807D01*
X142254807Y-92511893D01*
X142024150Y-92792950D01*
X142024140Y-92792964D01*
X141822151Y-93095261D01*
X141822140Y-93095279D01*
X141650756Y-93415916D01*
X141650754Y-93415921D01*
X141511614Y-93751834D01*
X141406067Y-94099776D01*
X141406064Y-94099787D01*
X141335137Y-94456369D01*
X141299500Y-94818209D01*
X138200500Y-94818209D01*
X138200500Y-83800000D01*
X138200503Y-83669476D01*
X138169644Y-83410258D01*
X138145129Y-83308757D01*
X138108360Y-83156519D01*
X138108359Y-83156518D01*
X138108357Y-83156507D01*
X138017502Y-82911779D01*
X138016710Y-82910236D01*
X137899587Y-82681912D01*
X137898354Y-82679508D01*
X137794341Y-82524986D01*
X139912501Y-82524986D01*
X139922994Y-82627697D01*
X139978141Y-82794119D01*
X139978143Y-82794124D01*
X140070184Y-82943345D01*
X140194154Y-83067315D01*
X140343375Y-83159356D01*
X140343380Y-83159358D01*
X140509802Y-83214505D01*
X140509809Y-83214506D01*
X140612519Y-83224999D01*
X140749999Y-83224999D01*
X140750000Y-83224998D01*
X140750000Y-82250000D01*
X139912501Y-82250000D01*
X139912501Y-82524986D01*
X137794341Y-82524986D01*
X137752584Y-82462951D01*
X137582236Y-82265144D01*
X137571972Y-82255747D01*
X137454065Y-82147795D01*
X137389698Y-82088863D01*
X137177671Y-81936578D01*
X136949129Y-81810426D01*
X136868511Y-81777675D01*
X136707277Y-81712175D01*
X136455504Y-81643204D01*
X136455487Y-81643200D01*
X136410818Y-81636501D01*
X136397616Y-81633781D01*
X136382912Y-81629906D01*
X136379371Y-81627417D01*
X136340451Y-81618711D01*
X136340451Y-81618710D01*
X136338415Y-81618182D01*
X136338194Y-81618124D01*
X136237015Y-81591897D01*
X136237014Y-81591896D01*
X135850617Y-81491736D01*
X135842635Y-81489378D01*
X135799397Y-81475013D01*
X139912500Y-81475013D01*
X139912500Y-81750000D01*
X140750000Y-81750000D01*
X140750000Y-80775000D01*
X140612527Y-80775000D01*
X140612512Y-80775001D01*
X140509802Y-80785494D01*
X140343380Y-80840641D01*
X140343375Y-80840643D01*
X140194154Y-80932684D01*
X140070184Y-81056654D01*
X139978143Y-81205875D01*
X139978141Y-81205880D01*
X139922994Y-81372302D01*
X139922993Y-81372309D01*
X139912500Y-81475013D01*
X135799397Y-81475013D01*
X135489947Y-81372203D01*
X135366388Y-81331152D01*
X135358585Y-81328266D01*
X134894022Y-81138454D01*
X134886428Y-81135050D01*
X134435629Y-80914500D01*
X134428281Y-80910594D01*
X133993300Y-80660310D01*
X133986230Y-80655920D01*
X133569012Y-80377021D01*
X133562253Y-80372167D01*
X133164674Y-80065909D01*
X133158256Y-80060612D01*
X132782132Y-79728391D01*
X132776083Y-79722676D01*
X132555720Y-79500000D01*
X132423073Y-79365960D01*
X132417425Y-79359856D01*
X132348147Y-79279752D01*
X132348145Y-79279749D01*
X132089139Y-78980270D01*
X132083918Y-78973808D01*
X131781814Y-78573034D01*
X131777036Y-78566232D01*
X131747001Y-78520270D01*
X131502511Y-78146126D01*
X131498201Y-78139019D01*
X131444066Y-78042620D01*
X131252469Y-77701442D01*
X131248643Y-77694059D01*
X131238545Y-77672862D01*
X131032813Y-77240982D01*
X131029490Y-77233357D01*
X130997724Y-77153231D01*
X130844535Y-76766823D01*
X130841730Y-76758989D01*
X130720741Y-76381696D01*
X130688487Y-76281113D01*
X130686214Y-76273111D01*
X130565367Y-75786027D01*
X130563635Y-75777888D01*
X130550130Y-75701983D01*
X130480059Y-75308136D01*
X130479684Y-75305905D01*
X130477756Y-75293788D01*
X130478450Y-75276235D01*
X130472317Y-75259603D01*
X130470408Y-75247599D01*
X130470472Y-75247099D01*
X130470125Y-75245729D01*
X130469335Y-75240218D01*
X130464054Y-75231311D01*
X130454394Y-75211028D01*
X130418200Y-75112990D01*
X130295524Y-74874431D01*
X130144782Y-74652538D01*
X130039545Y-74532184D01*
X129968204Y-74450595D01*
X129768409Y-74271598D01*
X129768397Y-74271589D01*
X129548356Y-74118195D01*
X129548357Y-74118195D01*
X129548349Y-74118190D01*
X129548338Y-74118184D01*
X129311286Y-73992644D01*
X129311272Y-73992638D01*
X129060733Y-73896824D01*
X128800401Y-73832144D01*
X128800395Y-73832143D01*
X128800394Y-73832143D01*
X128696162Y-73819389D01*
X128534129Y-73799562D01*
X128452019Y-73799523D01*
X128451777Y-73799500D01*
X128439882Y-73799500D01*
X117002312Y-73799500D01*
X116997675Y-73799413D01*
X116496509Y-73780660D01*
X116487262Y-73779967D01*
X115991197Y-73724074D01*
X115982028Y-73722692D01*
X115491535Y-73629885D01*
X115482495Y-73627822D01*
X115000297Y-73498618D01*
X114991435Y-73495885D01*
X114520241Y-73331007D01*
X114511609Y-73327619D01*
X114054050Y-73127988D01*
X114045696Y-73123964D01*
X113604359Y-72890711D01*
X113596328Y-72886075D01*
X113173632Y-72620478D01*
X113165970Y-72615254D01*
X112764319Y-72318822D01*
X112757069Y-72313040D01*
X112378672Y-71987403D01*
X112371875Y-71981096D01*
X112018903Y-71628124D01*
X112012596Y-71621327D01*
X111686959Y-71242930D01*
X111681177Y-71235680D01*
X111661075Y-71208443D01*
X111384745Y-70834029D01*
X111379521Y-70826367D01*
X111113924Y-70403671D01*
X111109288Y-70395640D01*
X110876035Y-69954303D01*
X110872011Y-69945949D01*
X110672380Y-69488390D01*
X110668992Y-69479758D01*
X110504112Y-69008558D01*
X110501381Y-68999702D01*
X110372177Y-68517504D01*
X110370114Y-68508464D01*
X110328060Y-68286203D01*
X110277305Y-68017960D01*
X110275925Y-68008802D01*
X110267749Y-67936239D01*
X110220031Y-67512725D01*
X110219339Y-67503490D01*
X110218841Y-67490170D01*
X110200673Y-67004623D01*
X110200673Y-66995364D01*
X110207302Y-66818209D01*
X113299500Y-66818209D01*
X113299500Y-67181790D01*
X113335137Y-67543630D01*
X113406064Y-67900212D01*
X113406067Y-67900223D01*
X113511614Y-68248165D01*
X113650754Y-68584078D01*
X113650756Y-68584083D01*
X113822140Y-68904720D01*
X113822151Y-68904738D01*
X114024140Y-69207035D01*
X114024150Y-69207049D01*
X114254807Y-69488106D01*
X114511893Y-69745192D01*
X114511898Y-69745196D01*
X114511899Y-69745197D01*
X114792956Y-69975854D01*
X115095268Y-70177853D01*
X115095277Y-70177858D01*
X115095279Y-70177859D01*
X115415916Y-70349243D01*
X115415918Y-70349243D01*
X115415924Y-70349247D01*
X115751836Y-70488386D01*
X116099767Y-70593930D01*
X116099773Y-70593931D01*
X116099776Y-70593932D01*
X116099787Y-70593935D01*
X116456369Y-70664862D01*
X116818206Y-70700500D01*
X116818209Y-70700500D01*
X117181791Y-70700500D01*
X117181794Y-70700500D01*
X117543631Y-70664862D01*
X117613045Y-70651054D01*
X117900212Y-70593935D01*
X117900223Y-70593932D01*
X117900223Y-70593931D01*
X117900233Y-70593930D01*
X118248164Y-70488386D01*
X118584076Y-70349247D01*
X118904732Y-70177853D01*
X119207044Y-69975854D01*
X119285699Y-69911304D01*
X125099500Y-69911304D01*
X125099500Y-70088695D01*
X125134103Y-70262658D01*
X125134106Y-70262667D01*
X125201983Y-70426540D01*
X125201990Y-70426553D01*
X125300535Y-70574034D01*
X125300538Y-70574038D01*
X125425961Y-70699461D01*
X125425965Y-70699464D01*
X125573446Y-70798009D01*
X125573459Y-70798016D01*
X125651389Y-70830295D01*
X125737334Y-70865894D01*
X125737336Y-70865894D01*
X125737341Y-70865896D01*
X125911304Y-70900499D01*
X125911307Y-70900500D01*
X125911309Y-70900500D01*
X126088691Y-70900500D01*
X128075638Y-70900500D01*
X128142677Y-70920185D01*
X128163319Y-70936819D01*
X134925966Y-77699466D01*
X134936711Y-77706645D01*
X134985040Y-77738936D01*
X135073453Y-77798013D01*
X135155393Y-77831953D01*
X135161480Y-77834474D01*
X135161485Y-77834477D01*
X135186767Y-77844949D01*
X135237334Y-77865895D01*
X135411303Y-77900499D01*
X135411307Y-77900500D01*
X135411308Y-77900500D01*
X138088693Y-77900500D01*
X138088694Y-77900499D01*
X138262666Y-77865895D01*
X138344606Y-77831953D01*
X138426547Y-77798013D01*
X138514959Y-77738936D01*
X138574036Y-77699464D01*
X138836681Y-77436819D01*
X138898004Y-77403334D01*
X138924362Y-77400500D01*
X140437638Y-77400500D01*
X140504677Y-77420185D01*
X140525319Y-77436819D01*
X140673681Y-77585181D01*
X140707166Y-77646504D01*
X140710000Y-77672862D01*
X140710000Y-78566988D01*
X140652993Y-78534075D01*
X140525826Y-78500000D01*
X140394174Y-78500000D01*
X140267007Y-78534075D01*
X140210000Y-78566988D01*
X140210000Y-77650000D01*
X139562155Y-77650000D01*
X139502627Y-77656401D01*
X139502620Y-77656403D01*
X139367913Y-77706645D01*
X139367906Y-77706649D01*
X139252812Y-77792809D01*
X139252809Y-77792812D01*
X139166649Y-77907906D01*
X139166645Y-77907913D01*
X139116403Y-78042620D01*
X139116401Y-78042627D01*
X139110000Y-78102155D01*
X139110000Y-78750000D01*
X140026988Y-78750000D01*
X139994075Y-78807007D01*
X139960000Y-78934174D01*
X139960000Y-79065826D01*
X139994075Y-79192993D01*
X140026988Y-79250000D01*
X139110000Y-79250000D01*
X139110000Y-79897844D01*
X139116401Y-79957372D01*
X139116403Y-79957379D01*
X139166645Y-80092086D01*
X139166649Y-80092093D01*
X139252809Y-80207187D01*
X139252812Y-80207190D01*
X139367906Y-80293350D01*
X139367913Y-80293354D01*
X139502620Y-80343596D01*
X139502627Y-80343598D01*
X139562155Y-80349999D01*
X139562172Y-80350000D01*
X140210000Y-80350000D01*
X140210000Y-79433012D01*
X140267007Y-79465925D01*
X140394174Y-79500000D01*
X140525826Y-79500000D01*
X140652993Y-79465925D01*
X140710000Y-79433012D01*
X140710000Y-80350000D01*
X141357828Y-80350000D01*
X141357844Y-80349999D01*
X141417372Y-80343598D01*
X141417379Y-80343596D01*
X141552086Y-80293354D01*
X141552093Y-80293350D01*
X141667187Y-80207190D01*
X141667190Y-80207187D01*
X141753350Y-80092093D01*
X141753354Y-80092086D01*
X141802422Y-79960529D01*
X141822940Y-79933119D01*
X141843146Y-79905464D01*
X141843844Y-79905194D01*
X141844293Y-79904595D01*
X141876372Y-79892629D01*
X141908322Y-79880289D01*
X141909055Y-79880439D01*
X141909757Y-79880178D01*
X141943193Y-79887451D01*
X141976763Y-79894347D01*
X141977543Y-79894924D01*
X141978030Y-79895030D01*
X142005261Y-79915169D01*
X142005783Y-79915679D01*
X142120208Y-80030104D01*
X142130694Y-80037722D01*
X142137157Y-80044037D01*
X142150009Y-80066937D01*
X142166049Y-80087736D01*
X142168245Y-80099432D01*
X142171352Y-80104967D01*
X142170852Y-80113310D01*
X142174500Y-80132730D01*
X142174500Y-80975666D01*
X142154815Y-81042705D01*
X142147770Y-81052572D01*
X142144785Y-81056346D01*
X142142741Y-81059661D01*
X142140747Y-81061453D01*
X142140311Y-81062006D01*
X142140216Y-81061931D01*
X142090791Y-81106383D01*
X142021828Y-81117602D01*
X141957747Y-81089755D01*
X141931668Y-81059656D01*
X141929819Y-81056659D01*
X141929816Y-81056655D01*
X141805845Y-80932684D01*
X141656624Y-80840643D01*
X141656619Y-80840641D01*
X141490197Y-80785494D01*
X141490190Y-80785493D01*
X141387486Y-80775000D01*
X141250000Y-80775000D01*
X141250000Y-83224999D01*
X141387472Y-83224999D01*
X141387486Y-83224998D01*
X141490197Y-83214505D01*
X141656619Y-83159358D01*
X141656624Y-83159356D01*
X141805845Y-83067315D01*
X141929818Y-82943342D01*
X141931665Y-82940348D01*
X141933469Y-82938724D01*
X141934298Y-82937677D01*
X141934476Y-82937818D01*
X141956589Y-82917926D01*
X141981007Y-82894906D01*
X141982489Y-82894628D01*
X141983610Y-82893621D01*
X142016709Y-82888233D01*
X142049688Y-82882070D01*
X142051084Y-82882638D01*
X142052573Y-82882396D01*
X142083339Y-82895762D01*
X142114405Y-82908402D01*
X142115640Y-82909795D01*
X142116656Y-82910236D01*
X142138617Y-82934083D01*
X142140775Y-82937150D01*
X142144788Y-82943656D01*
X142146694Y-82945562D01*
X142151911Y-82952976D01*
X142162080Y-82982904D01*
X142173907Y-83012217D01*
X142174220Y-83018629D01*
X142174391Y-83019130D01*
X142174269Y-83019619D01*
X142174500Y-83024333D01*
X142174500Y-85663696D01*
X142209103Y-85837658D01*
X142209105Y-85837666D01*
X142240882Y-85914383D01*
X142240884Y-85914387D01*
X142243046Y-85919606D01*
X142276987Y-86001547D01*
X142318763Y-86064069D01*
X142322387Y-86069493D01*
X142322393Y-86069504D01*
X142375532Y-86149031D01*
X142375538Y-86149039D01*
X142800536Y-86574035D01*
X142925965Y-86699464D01*
X143073453Y-86798013D01*
X143121452Y-86817895D01*
X143237334Y-86865895D01*
X143411303Y-86900499D01*
X143411307Y-86900500D01*
X143411308Y-86900500D01*
X143588693Y-86900500D01*
X143588694Y-86900499D01*
X143762666Y-86865895D01*
X143926547Y-86798013D01*
X144074036Y-86699464D01*
X144199464Y-86574036D01*
X144298013Y-86426547D01*
X144365895Y-86262666D01*
X144400500Y-86088692D01*
X144400500Y-85911308D01*
X144365895Y-85737334D01*
X144300339Y-85579071D01*
X144298695Y-85574474D01*
X144199465Y-85425966D01*
X144199464Y-85425965D01*
X144074035Y-85300536D01*
X144011817Y-85238317D01*
X143978333Y-85176993D01*
X143978333Y-85176988D01*
X143975500Y-85150637D01*
X143975500Y-83024333D01*
X143995185Y-82957294D01*
X144002175Y-82947497D01*
X144002430Y-82947174D01*
X144059420Y-82906753D01*
X144087610Y-82900606D01*
X144088682Y-82900500D01*
X144088692Y-82900500D01*
X144262666Y-82865895D01*
X144344606Y-82831953D01*
X144426547Y-82798013D01*
X144548921Y-82716245D01*
X144574036Y-82699464D01*
X147100141Y-80173357D01*
X147161462Y-80139874D01*
X147231153Y-80144858D01*
X147247781Y-80152959D01*
X147247843Y-80152839D01*
X147252183Y-80155050D01*
X147252184Y-80155051D01*
X147441588Y-80251557D01*
X147643757Y-80317246D01*
X147853713Y-80350500D01*
X147853714Y-80350500D01*
X148066286Y-80350500D01*
X148066287Y-80350500D01*
X148276243Y-80317246D01*
X148478412Y-80251557D01*
X148667816Y-80155051D01*
X148754478Y-80092088D01*
X148839784Y-80030110D01*
X148839784Y-80030109D01*
X148839792Y-80030104D01*
X148953717Y-79916178D01*
X149015036Y-79882696D01*
X149084728Y-79887680D01*
X149140662Y-79929551D01*
X149157577Y-79960528D01*
X149206646Y-80092088D01*
X149206649Y-80092093D01*
X149292809Y-80207187D01*
X149292812Y-80207190D01*
X149407906Y-80293350D01*
X149407913Y-80293354D01*
X149542620Y-80343596D01*
X149542627Y-80343598D01*
X149602155Y-80349999D01*
X149602172Y-80350000D01*
X150250000Y-80350000D01*
X150250000Y-79433012D01*
X150307007Y-79465925D01*
X150434174Y-79500000D01*
X150565826Y-79500000D01*
X150692993Y-79465925D01*
X150750000Y-79433012D01*
X150750000Y-80350000D01*
X151397828Y-80350000D01*
X151397844Y-80349999D01*
X151457372Y-80343598D01*
X151457379Y-80343596D01*
X151592086Y-80293354D01*
X151592093Y-80293350D01*
X151707187Y-80207190D01*
X151707190Y-80207187D01*
X151793350Y-80092093D01*
X151793354Y-80092086D01*
X151843596Y-79957379D01*
X151843598Y-79957372D01*
X151849999Y-79897844D01*
X151850000Y-79897827D01*
X151850000Y-79250000D01*
X150933012Y-79250000D01*
X150965925Y-79192993D01*
X151000000Y-79065826D01*
X151000000Y-78934174D01*
X150965925Y-78807007D01*
X150933012Y-78750000D01*
X151850000Y-78750000D01*
X151850000Y-78102172D01*
X151849999Y-78102155D01*
X151843598Y-78042627D01*
X151843596Y-78042620D01*
X151793354Y-77907913D01*
X151793350Y-77907906D01*
X151707190Y-77792812D01*
X151707187Y-77792809D01*
X151592093Y-77706649D01*
X151592086Y-77706645D01*
X151457379Y-77656403D01*
X151457372Y-77656401D01*
X151397844Y-77650000D01*
X150750000Y-77650000D01*
X150750000Y-78566988D01*
X150692993Y-78534075D01*
X150565826Y-78500000D01*
X150434174Y-78500000D01*
X150307007Y-78534075D01*
X150250000Y-78566988D01*
X150250000Y-77650000D01*
X149602155Y-77650000D01*
X149542627Y-77656401D01*
X149542620Y-77656403D01*
X149407913Y-77706645D01*
X149407906Y-77706649D01*
X149292812Y-77792809D01*
X149292809Y-77792812D01*
X149206649Y-77907906D01*
X149206646Y-77907912D01*
X149157577Y-78039471D01*
X149115705Y-78095404D01*
X149050241Y-78119821D01*
X148981968Y-78104969D01*
X148953714Y-78083818D01*
X148896819Y-78026923D01*
X148863334Y-77965600D01*
X148860500Y-77939242D01*
X148860500Y-77298844D01*
X148864973Y-77268693D01*
X148864707Y-77268641D01*
X148865785Y-77263221D01*
X148865841Y-77262844D01*
X148865893Y-77262670D01*
X148865895Y-77262666D01*
X148900500Y-77088691D01*
X148900500Y-76911308D01*
X148900500Y-76381696D01*
X148920185Y-76314657D01*
X148955608Y-76278594D01*
X149017359Y-76237334D01*
X149074036Y-76199464D01*
X149354295Y-75919205D01*
X149699463Y-75574037D01*
X149711355Y-75556239D01*
X149736630Y-75518412D01*
X149798013Y-75426547D01*
X149827260Y-75355937D01*
X149865895Y-75262666D01*
X149900500Y-75088692D01*
X149900500Y-74911308D01*
X149865895Y-74737334D01*
X149798013Y-74573453D01*
X149798012Y-74573452D01*
X149798009Y-74573446D01*
X149699464Y-74425964D01*
X149699461Y-74425960D01*
X149574039Y-74300538D01*
X149574035Y-74300535D01*
X149426553Y-74201990D01*
X149426544Y-74201985D01*
X149262666Y-74134105D01*
X149262658Y-74134103D01*
X149088696Y-74099500D01*
X149088692Y-74099500D01*
X149024500Y-74099500D01*
X148957461Y-74079815D01*
X148911706Y-74027011D01*
X148900500Y-73975500D01*
X148900500Y-68881696D01*
X148902736Y-68874080D01*
X148901466Y-68866244D01*
X148912441Y-68841029D01*
X148920185Y-68814657D01*
X148926892Y-68807828D01*
X148929351Y-68802180D01*
X148955609Y-68778594D01*
X148960912Y-68775051D01*
X149027587Y-68730500D01*
X149074036Y-68699464D01*
X149699464Y-68074035D01*
X149706123Y-68064069D01*
X149774727Y-67961395D01*
X149798010Y-67926552D01*
X149798010Y-67926550D01*
X149798013Y-67926547D01*
X149828098Y-67853914D01*
X149865895Y-67762666D01*
X149900500Y-67588692D01*
X149900500Y-67411308D01*
X149865895Y-67237334D01*
X149798013Y-67073453D01*
X149798012Y-67073452D01*
X149798009Y-67073446D01*
X149699464Y-66925964D01*
X149699461Y-66925960D01*
X149574039Y-66800538D01*
X149574035Y-66800535D01*
X149426553Y-66701990D01*
X149426544Y-66701985D01*
X149262666Y-66634105D01*
X149262658Y-66634103D01*
X149088696Y-66599500D01*
X149088692Y-66599500D01*
X149024500Y-66599500D01*
X148957461Y-66579815D01*
X148911706Y-66527011D01*
X148900500Y-66475500D01*
X148900500Y-60381696D01*
X148920185Y-60314657D01*
X148955610Y-60278594D01*
X149044029Y-60219514D01*
X149051505Y-60214518D01*
X149074036Y-60199464D01*
X149563829Y-59709668D01*
X149563834Y-59709665D01*
X149574034Y-59699464D01*
X149574036Y-59699464D01*
X150336680Y-58936818D01*
X150398003Y-58903334D01*
X150424361Y-58900500D01*
X151525500Y-58900500D01*
X151592539Y-58920185D01*
X151638294Y-58972989D01*
X151649500Y-59024500D01*
X151649500Y-60657870D01*
X151649501Y-60657876D01*
X151655908Y-60717483D01*
X151706202Y-60852328D01*
X151706206Y-60852335D01*
X151792452Y-60967544D01*
X151792455Y-60967547D01*
X151907664Y-61053793D01*
X151907671Y-61053797D01*
X151952618Y-61070561D01*
X152042517Y-61104091D01*
X152102127Y-61110500D01*
X152112685Y-61110499D01*
X152179723Y-61130179D01*
X152200372Y-61146818D01*
X152870591Y-61817037D01*
X152807007Y-61834075D01*
X152692993Y-61899901D01*
X152599901Y-61992993D01*
X152534075Y-62107007D01*
X152517037Y-62170591D01*
X151884728Y-61538282D01*
X151884727Y-61538282D01*
X151845380Y-61592439D01*
X151748904Y-61781782D01*
X151683242Y-61983869D01*
X151683242Y-61983872D01*
X151650000Y-62193753D01*
X151650000Y-62406246D01*
X151683242Y-62616127D01*
X151683242Y-62616130D01*
X151748904Y-62818217D01*
X151845375Y-63007550D01*
X151884728Y-63061716D01*
X152517037Y-62429408D01*
X152534075Y-62492993D01*
X152599901Y-62607007D01*
X152692993Y-62700099D01*
X152807007Y-62765925D01*
X152870590Y-62782962D01*
X152238282Y-63415269D01*
X152238282Y-63415270D01*
X152292452Y-63454626D01*
X152292451Y-63454626D01*
X152301495Y-63459234D01*
X152352292Y-63507208D01*
X152369087Y-63575029D01*
X152346550Y-63641164D01*
X152301499Y-63680202D01*
X152292182Y-63684949D01*
X152120213Y-63809890D01*
X151969890Y-63960213D01*
X151844951Y-64132179D01*
X151748444Y-64321585D01*
X151682753Y-64523760D01*
X151649500Y-64733713D01*
X151649500Y-64946286D01*
X151680225Y-65140279D01*
X151682754Y-65156243D01*
X151746916Y-65353713D01*
X151748444Y-65358414D01*
X151844951Y-65547820D01*
X151969890Y-65719786D01*
X152120213Y-65870109D01*
X152292182Y-65995050D01*
X152300946Y-65999516D01*
X152351742Y-66047491D01*
X152368536Y-66115312D01*
X152345998Y-66181447D01*
X152300946Y-66220484D01*
X152292182Y-66224949D01*
X152120213Y-66349890D01*
X151969890Y-66500213D01*
X151844951Y-66672179D01*
X151748444Y-66861585D01*
X151682753Y-67063760D01*
X151649500Y-67273713D01*
X151649500Y-67486286D01*
X151680225Y-67680279D01*
X151682754Y-67696243D01*
X151746916Y-67893713D01*
X151748444Y-67898414D01*
X151844951Y-68087820D01*
X151969890Y-68259786D01*
X152120213Y-68410109D01*
X152292182Y-68535050D01*
X152300946Y-68539516D01*
X152351742Y-68587491D01*
X152368536Y-68655312D01*
X152345998Y-68721447D01*
X152300946Y-68760484D01*
X152292182Y-68764949D01*
X152120213Y-68889890D01*
X151969890Y-69040213D01*
X151844951Y-69212179D01*
X151748444Y-69401585D01*
X151682753Y-69603760D01*
X151649500Y-69813713D01*
X151649500Y-70026286D01*
X151677111Y-70200618D01*
X151682754Y-70236243D01*
X151734545Y-70395640D01*
X151748444Y-70438414D01*
X151844951Y-70627820D01*
X151969890Y-70799786D01*
X152120213Y-70950109D01*
X152292182Y-71075050D01*
X152300946Y-71079516D01*
X152351742Y-71127491D01*
X152368536Y-71195312D01*
X152345998Y-71261447D01*
X152300946Y-71300484D01*
X152292182Y-71304949D01*
X152120213Y-71429890D01*
X151969890Y-71580213D01*
X151844951Y-71752179D01*
X151748444Y-71941585D01*
X151682753Y-72143760D01*
X151655942Y-72313040D01*
X151649500Y-72353713D01*
X151649500Y-72566287D01*
X151682754Y-72776243D01*
X151744175Y-72965277D01*
X151748444Y-72978414D01*
X151844951Y-73167820D01*
X151969890Y-73339786D01*
X152120213Y-73490109D01*
X152292182Y-73615050D01*
X152300946Y-73619516D01*
X152351742Y-73667491D01*
X152368536Y-73735312D01*
X152345998Y-73801447D01*
X152300946Y-73840484D01*
X152292182Y-73844949D01*
X152120213Y-73969890D01*
X151969890Y-74120213D01*
X151844951Y-74292179D01*
X151748444Y-74481585D01*
X151682753Y-74683760D01*
X151649500Y-74893713D01*
X151649500Y-75106286D01*
X151681116Y-75305905D01*
X151682754Y-75316243D01*
X151744175Y-75505277D01*
X151748444Y-75518414D01*
X151844951Y-75707820D01*
X151969890Y-75879786D01*
X152120213Y-76030109D01*
X152292179Y-76155048D01*
X152292181Y-76155049D01*
X152292184Y-76155051D01*
X152481588Y-76251557D01*
X152683757Y-76317246D01*
X152893713Y-76350500D01*
X152893714Y-76350500D01*
X153106286Y-76350500D01*
X153106287Y-76350500D01*
X153316243Y-76317246D01*
X153518412Y-76251557D01*
X153707816Y-76155051D01*
X153788177Y-76096666D01*
X153879786Y-76030109D01*
X153879788Y-76030106D01*
X153879792Y-76030104D01*
X154030104Y-75879792D01*
X154030106Y-75879788D01*
X154030109Y-75879786D01*
X154157915Y-75703875D01*
X154159259Y-75704851D01*
X154205705Y-75662834D01*
X154259618Y-75650500D01*
X155064071Y-75650500D01*
X155148615Y-75633682D01*
X155189744Y-75625501D01*
X155308127Y-75576465D01*
X155310836Y-75574654D01*
X155311772Y-75574030D01*
X155346991Y-75550497D01*
X155414669Y-75505277D01*
X161569289Y-69350655D01*
X161630610Y-69317172D01*
X161678754Y-69317685D01*
X161678945Y-69316484D01*
X161783888Y-69333105D01*
X161893713Y-69350500D01*
X161893714Y-69350500D01*
X162106286Y-69350500D01*
X162106287Y-69350500D01*
X162316243Y-69317246D01*
X162518412Y-69251557D01*
X162707816Y-69155051D01*
X162742447Y-69129890D01*
X162879786Y-69030109D01*
X162879788Y-69030106D01*
X162879792Y-69030104D01*
X163030104Y-68879792D01*
X163030106Y-68879788D01*
X163030109Y-68879786D01*
X163155048Y-68707820D01*
X163155047Y-68707820D01*
X163155051Y-68707816D01*
X163251557Y-68518412D01*
X163317246Y-68316243D01*
X163350500Y-68106287D01*
X163350500Y-67893713D01*
X163317246Y-67683757D01*
X163251557Y-67481588D01*
X163155051Y-67292184D01*
X163155049Y-67292181D01*
X163155048Y-67292179D01*
X163030109Y-67120213D01*
X162916181Y-67006285D01*
X162902174Y-66980634D01*
X162885776Y-66956441D01*
X162885626Y-66950328D01*
X162882696Y-66944962D01*
X162884780Y-66915810D01*
X162884065Y-66886592D01*
X162887243Y-66881368D01*
X162887680Y-66875270D01*
X162905193Y-66851875D01*
X162920389Y-66826907D01*
X162926823Y-66822982D01*
X162929552Y-66819337D01*
X162931401Y-66818209D01*
X169299500Y-66818209D01*
X169299500Y-67181790D01*
X169335137Y-67543630D01*
X169406064Y-67900212D01*
X169406067Y-67900223D01*
X169511614Y-68248165D01*
X169650754Y-68584078D01*
X169650756Y-68584083D01*
X169822140Y-68904720D01*
X169822151Y-68904738D01*
X170024140Y-69207035D01*
X170024150Y-69207049D01*
X170254807Y-69488106D01*
X170511893Y-69745192D01*
X170511898Y-69745196D01*
X170511899Y-69745197D01*
X170792956Y-69975854D01*
X171095268Y-70177853D01*
X171095277Y-70177858D01*
X171095279Y-70177859D01*
X171415916Y-70349243D01*
X171415918Y-70349243D01*
X171415924Y-70349247D01*
X171751836Y-70488386D01*
X172099767Y-70593930D01*
X172099773Y-70593931D01*
X172099776Y-70593932D01*
X172099787Y-70593935D01*
X172456369Y-70664862D01*
X172818206Y-70700500D01*
X172818209Y-70700500D01*
X173181791Y-70700500D01*
X173181794Y-70700500D01*
X173543631Y-70664862D01*
X173613045Y-70651054D01*
X173900212Y-70593935D01*
X173900223Y-70593932D01*
X173900223Y-70593931D01*
X173900233Y-70593930D01*
X174248164Y-70488386D01*
X174584076Y-70349247D01*
X174904732Y-70177853D01*
X175207044Y-69975854D01*
X175488101Y-69745197D01*
X175745197Y-69488101D01*
X175975854Y-69207044D01*
X176177853Y-68904732D01*
X176349247Y-68584076D01*
X176488386Y-68248164D01*
X176593930Y-67900233D01*
X176593932Y-67900223D01*
X176593935Y-67900212D01*
X176655899Y-67588692D01*
X176664862Y-67543631D01*
X176700500Y-67181794D01*
X176700500Y-66818206D01*
X176664862Y-66456369D01*
X176657733Y-66420528D01*
X176593935Y-66099787D01*
X176593932Y-66099776D01*
X176593931Y-66099773D01*
X176593930Y-66099767D01*
X176488386Y-65751836D01*
X176349247Y-65415924D01*
X176338727Y-65396243D01*
X176177859Y-65095279D01*
X176177858Y-65095277D01*
X176177853Y-65095268D01*
X175975854Y-64792956D01*
X175745197Y-64511899D01*
X175745196Y-64511898D01*
X175745192Y-64511893D01*
X175488106Y-64254807D01*
X175207049Y-64024150D01*
X175207048Y-64024149D01*
X175207044Y-64024146D01*
X174904732Y-63822147D01*
X174904727Y-63822144D01*
X174904720Y-63822140D01*
X174584083Y-63650756D01*
X174584078Y-63650754D01*
X174248165Y-63511614D01*
X173900223Y-63406067D01*
X173900212Y-63406064D01*
X173543630Y-63335137D01*
X173271111Y-63308296D01*
X173181794Y-63299500D01*
X172818206Y-63299500D01*
X172735679Y-63307628D01*
X172456369Y-63335137D01*
X172099787Y-63406064D01*
X172099776Y-63406067D01*
X171751834Y-63511614D01*
X171415921Y-63650754D01*
X171415916Y-63650756D01*
X171095279Y-63822140D01*
X171095261Y-63822151D01*
X170792964Y-64024140D01*
X170792950Y-64024150D01*
X170511893Y-64254807D01*
X170254807Y-64511893D01*
X170024150Y-64792950D01*
X170024140Y-64792964D01*
X169822151Y-65095261D01*
X169822140Y-65095279D01*
X169650756Y-65415916D01*
X169650754Y-65415921D01*
X169511614Y-65751834D01*
X169406067Y-66099776D01*
X169406064Y-66099787D01*
X169335137Y-66456369D01*
X169317632Y-66634105D01*
X169300257Y-66810526D01*
X169299500Y-66818209D01*
X162931401Y-66818209D01*
X162949605Y-66807104D01*
X163151574Y-66708822D01*
X163207187Y-66667190D01*
X163207190Y-66667187D01*
X163293350Y-66552093D01*
X163293354Y-66552086D01*
X163343596Y-66417379D01*
X163343598Y-66417372D01*
X163349999Y-66357844D01*
X163350000Y-66357827D01*
X163350000Y-65710000D01*
X162433012Y-65710000D01*
X162465925Y-65652993D01*
X162500000Y-65525826D01*
X162500000Y-65394174D01*
X162465925Y-65267007D01*
X162433012Y-65210000D01*
X163350000Y-65210000D01*
X163350000Y-64562172D01*
X163349999Y-64562155D01*
X163343598Y-64502627D01*
X163343596Y-64502620D01*
X163293354Y-64367913D01*
X163293350Y-64367906D01*
X163207190Y-64252812D01*
X163207187Y-64252809D01*
X163092093Y-64166649D01*
X163092086Y-64166645D01*
X163022475Y-64140682D01*
X162966541Y-64098811D01*
X162942124Y-64033346D01*
X162956976Y-63965073D01*
X163006381Y-63915668D01*
X163065808Y-63900500D01*
X166075639Y-63900500D01*
X166105079Y-63909144D01*
X166135066Y-63915668D01*
X166140081Y-63919422D01*
X166142678Y-63920185D01*
X166163320Y-63936819D01*
X166300536Y-64074035D01*
X166367183Y-64140682D01*
X166425966Y-64199465D01*
X166573448Y-64298010D01*
X166573449Y-64298010D01*
X166573453Y-64298013D01*
X166603011Y-64310256D01*
X166737334Y-64365895D01*
X166877187Y-64393713D01*
X166911303Y-64400499D01*
X166911307Y-64400500D01*
X166911308Y-64400500D01*
X167088693Y-64400500D01*
X167088694Y-64400499D01*
X167262666Y-64365895D01*
X167426547Y-64298013D01*
X167574036Y-64199464D01*
X167699464Y-64074036D01*
X167798013Y-63926547D01*
X167865895Y-63762666D01*
X167900500Y-63588692D01*
X167900500Y-63411308D01*
X167865895Y-63237334D01*
X167804325Y-63088692D01*
X167798013Y-63073453D01*
X167798012Y-63073451D01*
X167798011Y-63073449D01*
X167699465Y-62925966D01*
X167661318Y-62887819D01*
X167574035Y-62800536D01*
X167473598Y-62700099D01*
X167074041Y-62300540D01*
X167074037Y-62300537D01*
X167074036Y-62300536D01*
X167014959Y-62261063D01*
X166926547Y-62201987D01*
X166844606Y-62168046D01*
X166762666Y-62134105D01*
X166762658Y-62134103D01*
X166588696Y-62099500D01*
X166588692Y-62099500D01*
X166588691Y-62099500D01*
X156924361Y-62099500D01*
X156857322Y-62079815D01*
X156836680Y-62063181D01*
X156436819Y-61663319D01*
X156403334Y-61601996D01*
X156400500Y-61575638D01*
X156400500Y-58911309D01*
X156399775Y-58907664D01*
X156392953Y-58873368D01*
X156365895Y-58737334D01*
X156300339Y-58579071D01*
X156298695Y-58574474D01*
X156199465Y-58425966D01*
X156170598Y-58397099D01*
X156074035Y-58300536D01*
X155824061Y-58050562D01*
X155074041Y-57300540D01*
X155074040Y-57300539D01*
X155074036Y-57300536D01*
X155014959Y-57261063D01*
X154926547Y-57201987D01*
X154844606Y-57168046D01*
X154762666Y-57134105D01*
X154762658Y-57134103D01*
X154588696Y-57099500D01*
X154588692Y-57099500D01*
X154588691Y-57099500D01*
X150088692Y-57099500D01*
X149911309Y-57099500D01*
X149911304Y-57099500D01*
X149737339Y-57134103D01*
X149737323Y-57134108D01*
X149621453Y-57182102D01*
X149621454Y-57182103D01*
X149573454Y-57201986D01*
X149425965Y-57300535D01*
X149425961Y-57300538D01*
X149112181Y-57614319D01*
X149050858Y-57647804D01*
X148981166Y-57642820D01*
X148925233Y-57600948D01*
X148900816Y-57535484D01*
X148900500Y-57526638D01*
X148900500Y-50911306D01*
X148900499Y-50911304D01*
X148865896Y-50737341D01*
X148865893Y-50737332D01*
X148798016Y-50573459D01*
X148798009Y-50573446D01*
X148699465Y-50425966D01*
X148649663Y-50376164D01*
X148574035Y-50300536D01*
X148200043Y-49926544D01*
X147074041Y-48800540D01*
X147074040Y-48800539D01*
X147074036Y-48800536D01*
X147014959Y-48761063D01*
X146926547Y-48701987D01*
X146844606Y-48668046D01*
X146762666Y-48634105D01*
X146762658Y-48634103D01*
X146588696Y-48599500D01*
X146588692Y-48599500D01*
X146411308Y-48599500D01*
X146411303Y-48599500D01*
X146237341Y-48634103D01*
X146237329Y-48634106D01*
X146155392Y-48668045D01*
X146155393Y-48668046D01*
X146073455Y-48701985D01*
X145985040Y-48761063D01*
X145985039Y-48761064D01*
X145925961Y-48800537D01*
X145800537Y-48925961D01*
X145761064Y-48985039D01*
X145761063Y-48985040D01*
X145701985Y-49073455D01*
X145668046Y-49155393D01*
X145634106Y-49237329D01*
X145634103Y-49237341D01*
X145599500Y-49411303D01*
X145599500Y-49588696D01*
X145634103Y-49762658D01*
X145634106Y-49762670D01*
X145652936Y-49808128D01*
X145701985Y-49926544D01*
X145761063Y-50014960D01*
X145800537Y-50074038D01*
X145800540Y-50074041D01*
X147063181Y-51336680D01*
X147096666Y-51398003D01*
X147099500Y-51424361D01*
X147099500Y-76741154D01*
X147095028Y-76771307D01*
X147095293Y-76771360D01*
X147094223Y-76776736D01*
X147094164Y-76777138D01*
X147094104Y-76777332D01*
X147064424Y-76926544D01*
X147064425Y-76926545D01*
X147059500Y-76951308D01*
X147059500Y-77939242D01*
X147050854Y-77968686D01*
X147044331Y-77998670D01*
X147040577Y-78003683D01*
X147039815Y-78006281D01*
X147023181Y-78026923D01*
X147023180Y-78026924D01*
X146986269Y-78063834D01*
X146924945Y-78097319D01*
X146912111Y-78099339D01*
X146737341Y-78134103D01*
X146737333Y-78134105D01*
X146639813Y-78174500D01*
X146639812Y-78174500D01*
X146573457Y-78201984D01*
X146573456Y-78201985D01*
X146438465Y-78292184D01*
X146438461Y-78292187D01*
X146425965Y-78300535D01*
X144187181Y-80539319D01*
X144125858Y-80572804D01*
X144056166Y-80567820D01*
X144000233Y-80525948D01*
X143975816Y-80460484D01*
X143975500Y-80451638D01*
X143975500Y-79985758D01*
X143995185Y-79918719D01*
X144011819Y-79898077D01*
X144017267Y-79892629D01*
X144030104Y-79879792D01*
X144030106Y-79879788D01*
X144030109Y-79879786D01*
X144155048Y-79707820D01*
X144155047Y-79707820D01*
X144155051Y-79707816D01*
X144251557Y-79518412D01*
X144317246Y-79316243D01*
X144350500Y-79106287D01*
X144350500Y-78893713D01*
X144317246Y-78683757D01*
X144251557Y-78481588D01*
X144155051Y-78292184D01*
X144155049Y-78292181D01*
X144155048Y-78292179D01*
X144030109Y-78120213D01*
X143879786Y-77969890D01*
X143707817Y-77844949D01*
X143605485Y-77792809D01*
X143518412Y-77748443D01*
X143491231Y-77739610D01*
X143476350Y-77733687D01*
X143468184Y-77729808D01*
X143426547Y-77701987D01*
X143294392Y-77647247D01*
X143291542Y-77645893D01*
X143285818Y-77640780D01*
X143257069Y-77621570D01*
X141436041Y-75800540D01*
X141436038Y-75800537D01*
X141372991Y-75758411D01*
X141288544Y-75701985D01*
X141288542Y-75701984D01*
X141202161Y-75666205D01*
X141124666Y-75634105D01*
X141124658Y-75634103D01*
X140950696Y-75599500D01*
X140950692Y-75599500D01*
X140950691Y-75599500D01*
X138588692Y-75599500D01*
X138411308Y-75599500D01*
X138411303Y-75599500D01*
X138237341Y-75634103D01*
X138237333Y-75634105D01*
X138159839Y-75666205D01*
X138159838Y-75666205D01*
X138073459Y-75701983D01*
X138073447Y-75701990D01*
X137952067Y-75783095D01*
X137952066Y-75783095D01*
X137925969Y-75800532D01*
X137925961Y-75800538D01*
X137663320Y-76063181D01*
X137601997Y-76096666D01*
X137575639Y-76099500D01*
X137280114Y-76099500D01*
X137213075Y-76079815D01*
X137167320Y-76027011D01*
X137157376Y-75957853D01*
X137169629Y-75919205D01*
X137189714Y-75879786D01*
X137251557Y-75758412D01*
X137317246Y-75556243D01*
X137350500Y-75346287D01*
X137350500Y-75133713D01*
X137317246Y-74923757D01*
X137251557Y-74721588D01*
X137155051Y-74532184D01*
X137155049Y-74532181D01*
X137155048Y-74532179D01*
X137030109Y-74360213D01*
X136879786Y-74209890D01*
X136707820Y-74084951D01*
X136707115Y-74084591D01*
X136699054Y-74080485D01*
X136648259Y-74032512D01*
X136631463Y-73964692D01*
X136653999Y-73898556D01*
X136699054Y-73859515D01*
X136707816Y-73855051D01*
X136784191Y-73799562D01*
X136879786Y-73730109D01*
X136879788Y-73730106D01*
X136879792Y-73730104D01*
X137030104Y-73579792D01*
X137030106Y-73579788D01*
X137030109Y-73579786D01*
X137155048Y-73407820D01*
X137155047Y-73407820D01*
X137155051Y-73407816D01*
X137251557Y-73218412D01*
X137317246Y-73016243D01*
X137350500Y-72806287D01*
X137350500Y-72593713D01*
X137317246Y-72383757D01*
X137251557Y-72181588D01*
X137155051Y-71992184D01*
X137155049Y-71992181D01*
X137155048Y-71992179D01*
X137030109Y-71820213D01*
X136879786Y-71669890D01*
X136707820Y-71544951D01*
X136707115Y-71544591D01*
X136699054Y-71540485D01*
X136648259Y-71492512D01*
X136631463Y-71424692D01*
X136653999Y-71358556D01*
X136699054Y-71319515D01*
X136707816Y-71315051D01*
X136781596Y-71261447D01*
X136879786Y-71190109D01*
X136879788Y-71190106D01*
X136879792Y-71190104D01*
X137030104Y-71039792D01*
X137030106Y-71039788D01*
X137030109Y-71039786D01*
X137155048Y-70867820D01*
X137155047Y-70867820D01*
X137155051Y-70867816D01*
X137251557Y-70678412D01*
X137317246Y-70476243D01*
X137350500Y-70266287D01*
X137350500Y-70053713D01*
X137317246Y-69843757D01*
X137251557Y-69641588D01*
X137155051Y-69452184D01*
X137155049Y-69452181D01*
X137155048Y-69452179D01*
X137030109Y-69280213D01*
X136879786Y-69129890D01*
X136707820Y-69004951D01*
X136706322Y-69004188D01*
X136699054Y-69000485D01*
X136648259Y-68952512D01*
X136631463Y-68884692D01*
X136653999Y-68818556D01*
X136699054Y-68779515D01*
X136707816Y-68775051D01*
X136781596Y-68721447D01*
X136879786Y-68650109D01*
X136879788Y-68650106D01*
X136879792Y-68650104D01*
X137030104Y-68499792D01*
X137030106Y-68499788D01*
X137030109Y-68499786D01*
X137155048Y-68327820D01*
X137155047Y-68327820D01*
X137155051Y-68327816D01*
X137251557Y-68138412D01*
X137317246Y-67936243D01*
X137350500Y-67726287D01*
X137350500Y-67513713D01*
X137317246Y-67303757D01*
X137251557Y-67101588D01*
X137155051Y-66912184D01*
X137155049Y-66912181D01*
X137155048Y-66912179D01*
X137030109Y-66740213D01*
X136879786Y-66589890D01*
X136707820Y-66464951D01*
X136707115Y-66464591D01*
X136699054Y-66460485D01*
X136648259Y-66412512D01*
X136631463Y-66344692D01*
X136653999Y-66278556D01*
X136699054Y-66239515D01*
X136707816Y-66235051D01*
X136781596Y-66181447D01*
X136879786Y-66110109D01*
X136879788Y-66110106D01*
X136879792Y-66110104D01*
X137030104Y-65959792D01*
X137030106Y-65959788D01*
X137030109Y-65959786D01*
X137155048Y-65787820D01*
X137155047Y-65787820D01*
X137155051Y-65787816D01*
X137251557Y-65598412D01*
X137317246Y-65396243D01*
X137350500Y-65186287D01*
X137350500Y-64973713D01*
X137317246Y-64763757D01*
X137251557Y-64561588D01*
X137155051Y-64372184D01*
X137155049Y-64372181D01*
X137155048Y-64372179D01*
X137030109Y-64200213D01*
X136879786Y-64049890D01*
X136707820Y-63924951D01*
X136707115Y-63924591D01*
X136699054Y-63920485D01*
X136648259Y-63872512D01*
X136631463Y-63804692D01*
X136653999Y-63738556D01*
X136699054Y-63699515D01*
X136707816Y-63695051D01*
X136768786Y-63650754D01*
X136879786Y-63570109D01*
X136879788Y-63570106D01*
X136879792Y-63570104D01*
X137030104Y-63419792D01*
X137030106Y-63419788D01*
X137030109Y-63419786D01*
X137155048Y-63247820D01*
X137155047Y-63247820D01*
X137155051Y-63247816D01*
X137251557Y-63058412D01*
X137317246Y-62856243D01*
X137350500Y-62646287D01*
X137350500Y-62433713D01*
X137317246Y-62223757D01*
X137251557Y-62021588D01*
X137155051Y-61832184D01*
X137155049Y-61832181D01*
X137155048Y-61832179D01*
X137030109Y-61660213D01*
X136916569Y-61546673D01*
X136883084Y-61485350D01*
X136888068Y-61415658D01*
X136929940Y-61359725D01*
X136960915Y-61342810D01*
X137092331Y-61293796D01*
X137207546Y-61207546D01*
X137293796Y-61092331D01*
X137344091Y-60957483D01*
X137350500Y-60897873D01*
X137350499Y-59102128D01*
X137344091Y-59042517D01*
X137333207Y-59013336D01*
X137293797Y-58907671D01*
X137293793Y-58907664D01*
X137207547Y-58792455D01*
X137207544Y-58792452D01*
X137092335Y-58706206D01*
X137092328Y-58706202D01*
X136957482Y-58655908D01*
X136957483Y-58655908D01*
X136897883Y-58649501D01*
X136897881Y-58649500D01*
X136897873Y-58649500D01*
X136897864Y-58649500D01*
X135102129Y-58649500D01*
X135102123Y-58649501D01*
X135042516Y-58655908D01*
X134907671Y-58706202D01*
X134907664Y-58706206D01*
X134792455Y-58792452D01*
X134792452Y-58792455D01*
X134706206Y-58907664D01*
X134706202Y-58907671D01*
X134655908Y-59042517D01*
X134654947Y-59051460D01*
X134649501Y-59102123D01*
X134649500Y-59102135D01*
X134649500Y-60897870D01*
X134649501Y-60897876D01*
X134655908Y-60957483D01*
X134706202Y-61092328D01*
X134706206Y-61092335D01*
X134792452Y-61207544D01*
X134792455Y-61207547D01*
X134907664Y-61293793D01*
X134907671Y-61293797D01*
X135039082Y-61342810D01*
X135095016Y-61384681D01*
X135119433Y-61450145D01*
X135104582Y-61518418D01*
X135083431Y-61546673D01*
X134969889Y-61660215D01*
X134844951Y-61832179D01*
X134748444Y-62021585D01*
X134682753Y-62223760D01*
X134649500Y-62433713D01*
X134649500Y-62646286D01*
X134668194Y-62764319D01*
X134682754Y-62856243D01*
X134715769Y-62957853D01*
X134748444Y-63058414D01*
X134844951Y-63247820D01*
X134969890Y-63419786D01*
X135120213Y-63570109D01*
X135292182Y-63695050D01*
X135300946Y-63699516D01*
X135351742Y-63747491D01*
X135368536Y-63815312D01*
X135345998Y-63881447D01*
X135300946Y-63920484D01*
X135292182Y-63924949D01*
X135120213Y-64049890D01*
X134969890Y-64200213D01*
X134844951Y-64372179D01*
X134748444Y-64561585D01*
X134682753Y-64763760D01*
X134649500Y-64973713D01*
X134649500Y-65186286D01*
X134672895Y-65334000D01*
X134682754Y-65396243D01*
X134745476Y-65589282D01*
X134748444Y-65598414D01*
X134844951Y-65787820D01*
X134969890Y-65959786D01*
X135120213Y-66110109D01*
X135292182Y-66235050D01*
X135300946Y-66239516D01*
X135351742Y-66287491D01*
X135368536Y-66355312D01*
X135345998Y-66421447D01*
X135300946Y-66460484D01*
X135292182Y-66464949D01*
X135120213Y-66589890D01*
X134969894Y-66740209D01*
X134924891Y-66802151D01*
X134869561Y-66844816D01*
X134799947Y-66850795D01*
X134738152Y-66818189D01*
X134736892Y-66816946D01*
X132850657Y-64930711D01*
X132817172Y-64869388D01*
X132817689Y-64821245D01*
X132816484Y-64821055D01*
X132850500Y-64606286D01*
X132850500Y-64393713D01*
X132846413Y-64367912D01*
X132817246Y-64183757D01*
X132751557Y-63981588D01*
X132655051Y-63792184D01*
X132655049Y-63792181D01*
X132655048Y-63792179D01*
X132530109Y-63620213D01*
X132379786Y-63469890D01*
X132207820Y-63344951D01*
X132018414Y-63248444D01*
X132018413Y-63248443D01*
X132018412Y-63248443D01*
X131816243Y-63182754D01*
X131816241Y-63182753D01*
X131816240Y-63182753D01*
X131654957Y-63157208D01*
X131606287Y-63149500D01*
X131393713Y-63149500D01*
X131345042Y-63157208D01*
X131183760Y-63182753D01*
X130981585Y-63248444D01*
X130792179Y-63344951D01*
X130620213Y-63469890D01*
X130469890Y-63620213D01*
X130344951Y-63792179D01*
X130248444Y-63981585D01*
X130182753Y-64183760D01*
X130149500Y-64393713D01*
X130149500Y-64606286D01*
X130179065Y-64792956D01*
X130182754Y-64816243D01*
X130240535Y-64994075D01*
X130248444Y-65018414D01*
X130344951Y-65207820D01*
X130469890Y-65379786D01*
X130620213Y-65530109D01*
X130792182Y-65655050D01*
X130800946Y-65659516D01*
X130851742Y-65707491D01*
X130868536Y-65775312D01*
X130845998Y-65841447D01*
X130800946Y-65880484D01*
X130792182Y-65884949D01*
X130620213Y-66009890D01*
X130469890Y-66160213D01*
X130344951Y-66332179D01*
X130248444Y-66521585D01*
X130182753Y-66723760D01*
X130149500Y-66933713D01*
X130149500Y-67146286D01*
X130172607Y-67292182D01*
X130182754Y-67356243D01*
X130243640Y-67543631D01*
X130248444Y-67558414D01*
X130344951Y-67747820D01*
X130469890Y-67919786D01*
X130583430Y-68033326D01*
X130616915Y-68094649D01*
X130611931Y-68164341D01*
X130570059Y-68220274D01*
X130539083Y-68237189D01*
X130407669Y-68286203D01*
X130407664Y-68286206D01*
X130292455Y-68372452D01*
X130292452Y-68372455D01*
X130206206Y-68487664D01*
X130206202Y-68487671D01*
X130155908Y-68622517D01*
X130149501Y-68682116D01*
X130149500Y-68682135D01*
X130149500Y-70076637D01*
X130129815Y-70143676D01*
X130077011Y-70189431D01*
X130007853Y-70199375D01*
X129944297Y-70170350D01*
X129937819Y-70164318D01*
X129074038Y-69300537D01*
X129000732Y-69251556D01*
X128926544Y-69201985D01*
X128926542Y-69201984D01*
X128838051Y-69165331D01*
X128762666Y-69134105D01*
X128762658Y-69134103D01*
X128588696Y-69099500D01*
X128588692Y-69099500D01*
X128588691Y-69099500D01*
X126088691Y-69099500D01*
X125911309Y-69099500D01*
X125911306Y-69099500D01*
X125737341Y-69134103D01*
X125737332Y-69134106D01*
X125573459Y-69201983D01*
X125573446Y-69201990D01*
X125425965Y-69300535D01*
X125425961Y-69300538D01*
X125300538Y-69425961D01*
X125300535Y-69425965D01*
X125201990Y-69573446D01*
X125201983Y-69573459D01*
X125134106Y-69737332D01*
X125134103Y-69737341D01*
X125099500Y-69911304D01*
X119285699Y-69911304D01*
X119488101Y-69745197D01*
X119745197Y-69488101D01*
X119975854Y-69207044D01*
X120177853Y-68904732D01*
X120349247Y-68584076D01*
X120488386Y-68248164D01*
X120593930Y-67900233D01*
X120593932Y-67900223D01*
X120593935Y-67900212D01*
X120655899Y-67588692D01*
X120664862Y-67543631D01*
X120700500Y-67181794D01*
X120700500Y-66818206D01*
X120664862Y-66456369D01*
X120657733Y-66420528D01*
X120593935Y-66099787D01*
X120593932Y-66099776D01*
X120593931Y-66099773D01*
X120593930Y-66099767D01*
X120488386Y-65751836D01*
X120349247Y-65415924D01*
X120338727Y-65396243D01*
X120177859Y-65095279D01*
X120177858Y-65095277D01*
X120177853Y-65095268D01*
X119975854Y-64792956D01*
X119745197Y-64511899D01*
X119745196Y-64511898D01*
X119745192Y-64511893D01*
X119488106Y-64254807D01*
X119207049Y-64024150D01*
X119207048Y-64024149D01*
X119207044Y-64024146D01*
X118904732Y-63822147D01*
X118904727Y-63822144D01*
X118904720Y-63822140D01*
X118584083Y-63650756D01*
X118584078Y-63650754D01*
X118248165Y-63511614D01*
X117900223Y-63406067D01*
X117900212Y-63406064D01*
X117543630Y-63335137D01*
X117271111Y-63308296D01*
X117181794Y-63299500D01*
X116818206Y-63299500D01*
X116735679Y-63307628D01*
X116456369Y-63335137D01*
X116099787Y-63406064D01*
X116099776Y-63406067D01*
X115751834Y-63511614D01*
X115415921Y-63650754D01*
X115415916Y-63650756D01*
X115095279Y-63822140D01*
X115095261Y-63822151D01*
X114792964Y-64024140D01*
X114792950Y-64024150D01*
X114511893Y-64254807D01*
X114254807Y-64511893D01*
X114024150Y-64792950D01*
X114024140Y-64792964D01*
X113822151Y-65095261D01*
X113822140Y-65095279D01*
X113650756Y-65415916D01*
X113650754Y-65415921D01*
X113511614Y-65751834D01*
X113406067Y-66099776D01*
X113406064Y-66099787D01*
X113335137Y-66456369D01*
X113317632Y-66634105D01*
X113300257Y-66810526D01*
X113299500Y-66818209D01*
X110207302Y-66818209D01*
X110219340Y-66496494D01*
X110220030Y-66487276D01*
X110275927Y-65991181D01*
X110277304Y-65982043D01*
X110370114Y-65491533D01*
X110372177Y-65482495D01*
X110442189Y-65221206D01*
X110501382Y-65000290D01*
X110504109Y-64991448D01*
X110668995Y-64520231D01*
X110672380Y-64511609D01*
X110720857Y-64400500D01*
X110872013Y-64054044D01*
X110876035Y-64045696D01*
X110882562Y-64033346D01*
X111109291Y-63604352D01*
X111113924Y-63596328D01*
X111379527Y-63173622D01*
X111384738Y-63165979D01*
X111681193Y-62764298D01*
X111686959Y-62757069D01*
X111782296Y-62646286D01*
X112012596Y-62378672D01*
X112018890Y-62371888D01*
X112371888Y-62018890D01*
X112378672Y-62012596D01*
X112588315Y-61832184D01*
X112757074Y-61686954D01*
X112764298Y-61681193D01*
X113165979Y-61384738D01*
X113173622Y-61379527D01*
X113596334Y-61113920D01*
X113604352Y-61109291D01*
X114045701Y-60876032D01*
X114054044Y-60872013D01*
X114511618Y-60672376D01*
X114520231Y-60668995D01*
X114991448Y-60504109D01*
X115000290Y-60501382D01*
X115446969Y-60381696D01*
X115482495Y-60372177D01*
X115491535Y-60370114D01*
X115499415Y-60368623D01*
X115982043Y-60277304D01*
X115991181Y-60275927D01*
X116487276Y-60220030D01*
X116496496Y-60219339D01*
X116959234Y-60202025D01*
X116997676Y-60200587D01*
X117002312Y-60200500D01*
X128252107Y-60200500D01*
X128252275Y-60200483D01*
X128339162Y-60200455D01*
X128615269Y-60165391D01*
X128884759Y-60095823D01*
X129143337Y-59992858D01*
X129386883Y-59858138D01*
X129611517Y-59693809D01*
X129813659Y-59502489D01*
X129990087Y-59287228D01*
X130137991Y-59051455D01*
X130255014Y-58798927D01*
X130339291Y-58533669D01*
X130363062Y-58404233D01*
X130364563Y-58397217D01*
X130486579Y-57898199D01*
X130488812Y-57890236D01*
X130644081Y-57400096D01*
X130646841Y-57392299D01*
X130834561Y-56913654D01*
X130837847Y-56906037D01*
X130858871Y-56861465D01*
X131057182Y-56441021D01*
X131060971Y-56433641D01*
X131310925Y-55984365D01*
X131315187Y-55977274D01*
X131594686Y-55545674D01*
X131599394Y-55538913D01*
X131907132Y-55127011D01*
X131912280Y-55120580D01*
X132246917Y-54730171D01*
X132252489Y-54724095D01*
X132612478Y-54356981D01*
X132618479Y-54351260D01*
X133002202Y-54009086D01*
X133008559Y-54003787D01*
X133414353Y-53688036D01*
X133421044Y-53683180D01*
X133847074Y-53395284D01*
X133854053Y-53390901D01*
X134298381Y-53132171D01*
X134305649Y-53128258D01*
X134766311Y-52899837D01*
X134773841Y-52896413D01*
X135248706Y-52699355D01*
X135256475Y-52696432D01*
X135743492Y-52531584D01*
X135751393Y-52529202D01*
X136248364Y-52397315D01*
X136256397Y-52395468D01*
X136761071Y-52297137D01*
X136769259Y-52295824D01*
X137279360Y-52231491D01*
X137287594Y-52230731D01*
X137752410Y-52203517D01*
X137800331Y-52200712D01*
X137807578Y-52200500D01*
X137852725Y-52200500D01*
X137852727Y-52200500D01*
X137954587Y-52173207D01*
X138045913Y-52120480D01*
X138120480Y-52045913D01*
X138173207Y-51954587D01*
X138200500Y-51852727D01*
X138200500Y-51800000D01*
X138200500Y-51760118D01*
X138200500Y-39002311D01*
X138200587Y-38997674D01*
X138207302Y-38818209D01*
X141299500Y-38818209D01*
X141299500Y-39181790D01*
X141335137Y-39543630D01*
X141406064Y-39900212D01*
X141406067Y-39900223D01*
X141511614Y-40248165D01*
X141650754Y-40584078D01*
X141650756Y-40584083D01*
X141822140Y-40904720D01*
X141822151Y-40904738D01*
X142024140Y-41207035D01*
X142024150Y-41207049D01*
X142254807Y-41488106D01*
X142511893Y-41745192D01*
X142511898Y-41745196D01*
X142511899Y-41745197D01*
X142792956Y-41975854D01*
X143095268Y-42177853D01*
X143095277Y-42177858D01*
X143095279Y-42177859D01*
X143415916Y-42349243D01*
X143415918Y-42349243D01*
X143415924Y-42349247D01*
X143751836Y-42488386D01*
X144099767Y-42593930D01*
X144099773Y-42593931D01*
X144099776Y-42593932D01*
X144099787Y-42593935D01*
X144456369Y-42664862D01*
X144818206Y-42700500D01*
X144818209Y-42700500D01*
X145181791Y-42700500D01*
X145181794Y-42700500D01*
X145543631Y-42664862D01*
X145613045Y-42651054D01*
X145900212Y-42593935D01*
X145900223Y-42593932D01*
X145900223Y-42593931D01*
X145900233Y-42593930D01*
X146248164Y-42488386D01*
X146584076Y-42349247D01*
X146904732Y-42177853D01*
X147207044Y-41975854D01*
X147488101Y-41745197D01*
X147745197Y-41488101D01*
X147975854Y-41207044D01*
X148177853Y-40904732D01*
X148349247Y-40584076D01*
X148488386Y-40248164D01*
X148593930Y-39900233D01*
X148593932Y-39900223D01*
X148593935Y-39900212D01*
X148664862Y-39543630D01*
X148700500Y-39181790D01*
X148700500Y-38818209D01*
X148664862Y-38456369D01*
X148593935Y-38099787D01*
X148593932Y-38099776D01*
X148593931Y-38099773D01*
X148593930Y-38099767D01*
X148488386Y-37751836D01*
X148349247Y-37415924D01*
X148177853Y-37095268D01*
X147975854Y-36792956D01*
X147745197Y-36511899D01*
X147745196Y-36511898D01*
X147745192Y-36511893D01*
X147488106Y-36254807D01*
X147207049Y-36024150D01*
X147207048Y-36024149D01*
X147207044Y-36024146D01*
X146904732Y-35822147D01*
X146904727Y-35822144D01*
X146904720Y-35822140D01*
X146584083Y-35650756D01*
X146584078Y-35650754D01*
X146248165Y-35511614D01*
X145900223Y-35406067D01*
X145900212Y-35406064D01*
X145543630Y-35335137D01*
X145271111Y-35308296D01*
X145181794Y-35299500D01*
X144818206Y-35299500D01*
X144735679Y-35307628D01*
X144456369Y-35335137D01*
X144099787Y-35406064D01*
X144099776Y-35406067D01*
X143751834Y-35511614D01*
X143415921Y-35650754D01*
X143415916Y-35650756D01*
X143095279Y-35822140D01*
X143095261Y-35822151D01*
X142792964Y-36024140D01*
X142792950Y-36024150D01*
X142511893Y-36254807D01*
X142254807Y-36511893D01*
X142024150Y-36792950D01*
X142024140Y-36792964D01*
X141822151Y-37095261D01*
X141822140Y-37095279D01*
X141650756Y-37415916D01*
X141650754Y-37415921D01*
X141511614Y-37751834D01*
X141406067Y-38099776D01*
X141406064Y-38099787D01*
X141335137Y-38456369D01*
X141299500Y-38818209D01*
X138207302Y-38818209D01*
X138207590Y-38810525D01*
X138207590Y-38810524D01*
X138219339Y-38496510D01*
X138219340Y-38496509D01*
X138219339Y-38496496D01*
X138220030Y-38487276D01*
X138275927Y-37991181D01*
X138277304Y-37982043D01*
X138370114Y-37491533D01*
X138372177Y-37482495D01*
X138501381Y-37000297D01*
X138504109Y-36991448D01*
X138668995Y-36520231D01*
X138672380Y-36511609D01*
X138742970Y-36349817D01*
X138872013Y-36054044D01*
X138876035Y-36045696D01*
X139109291Y-35604352D01*
X139113924Y-35596328D01*
X139379527Y-35173622D01*
X139384738Y-35165979D01*
X139681193Y-34764298D01*
X139686959Y-34757069D01*
X140012596Y-34378672D01*
X140018890Y-34371888D01*
X140371888Y-34018890D01*
X140378672Y-34012596D01*
X140757069Y-33686959D01*
X140764298Y-33681193D01*
X141165979Y-33384738D01*
X141173622Y-33379527D01*
X141596334Y-33113920D01*
X141604352Y-33109291D01*
X142045701Y-32876032D01*
X142054044Y-32872013D01*
X142511618Y-32672376D01*
X142520231Y-32668995D01*
X142991448Y-32504109D01*
X143000290Y-32501382D01*
X143269847Y-32429155D01*
X143482495Y-32372177D01*
X143491535Y-32370114D01*
X143982043Y-32277304D01*
X143991181Y-32275927D01*
X144487276Y-32220030D01*
X144496494Y-32219340D01*
X144995377Y-32200673D01*
X145004623Y-32200673D01*
X145503503Y-32219339D01*
G37*
G04 #@! TD.AperFunction*
M02*
