M48
; DRILL file {KiCad 9.0.6} date 2025-12-10T21:01:55+0200
; FORMAT={-:-/ absolute / metric / decimal}
; #@! TF.CreationDate,2025-12-10T21:01:55+02:00
; #@! TF.GenerationSoftware,Kicad,Pcbnew,9.0.6
; #@! TF.FileFunction,Plated,1,2,PTH
FMAT,2
METRIC
; #@! TA.AperFunction,Plated,PTH,ViaDrill
T1C0.300
; #@! TA.AperFunction,Plated,PTH,ComponentDrill
T2C1.000
%
G90
G05
T1
X126.0Y-70.0
X143.5Y-86.0
X146.5Y-49.5
X149.0Y-59.0
X149.0Y-67.5
X149.0Y-75.0
X167.0Y-63.5
T2
X131.5Y-64.5
X131.5Y-67.04
X131.5Y-69.58
X136.0Y-60.0
X136.0Y-62.54
X136.0Y-65.08
X136.0Y-67.62
X136.0Y-70.16
X136.0Y-72.7
X136.0Y-75.24
X140.46Y-79.0
X143.0Y-79.0
X147.96Y-79.0
X150.5Y-79.0
X153.0Y-59.76
X153.0Y-62.3
X153.0Y-64.84
X153.0Y-67.38
X153.0Y-69.92
X153.0Y-72.46
X153.0Y-75.0
X156.92Y-65.46
X156.92Y-68.0
X159.46Y-65.46
X159.46Y-68.0
X162.0Y-65.46
X162.0Y-68.0
M30
