G04 #@! TF.GenerationSoftware,KiCad,Pcbnew,9.0.6*
G04 #@! TF.CreationDate,2025-12-08T21:00:49+02:00*
G04 #@! TF.ProjectId,tinywhoop_frame,74696e79-7768-46f6-9f70-5f6672616d65,rev?*
G04 #@! TF.SameCoordinates,Original*
G04 #@! TF.FileFunction,Legend,Top*
G04 #@! TF.FilePolarity,Positive*
%FSLAX46Y46*%
G04 Gerber Fmt 4.6, Leading zero omitted, Abs format (unit mm)*
G04 Created by KiCad (PCBNEW 9.0.6) date 2025-12-08 21:00:49*
%MOMM*%
%LPD*%
G01*
G04 APERTURE LIST*
G04 Aperture macros list*
%AMRoundRect*
0 Rectangle with rounded corners*
0 $1 Rounding radius*
0 $2 $3 $4 $5 $6 $7 $8 $9 X,Y pos of 4 corners*
0 Add a 4 corners polygon primitive as box body*
4,1,4,$2,$3,$4,$5,$6,$7,$8,$9,$2,$3,0*
0 Add four circle primitives for the rounded corners*
1,1,$1+$1,$2,$3*
1,1,$1+$1,$4,$5*
1,1,$1+$1,$6,$7*
1,1,$1+$1,$8,$9*
0 Add four rect primitives between the rounded corners*
20,1,$1+$1,$2,$3,$4,$5,0*
20,1,$1+$1,$4,$5,$6,$7,0*
20,1,$1+$1,$6,$7,$8,$9,0*
20,1,$1+$1,$8,$9,$2,$3,0*%
G04 Aperture macros list end*
%ADD10C,0.150000*%
%ADD11C,0.120000*%
%ADD12C,1.700000*%
%ADD13R,1.700000X1.700000*%
%ADD14RoundRect,0.150000X-0.150000X0.587500X-0.150000X-0.587500X0.150000X-0.587500X0.150000X0.587500X0*%
%ADD15RoundRect,0.250000X-0.550000X0.550000X-0.550000X-0.550000X0.550000X-0.550000X0.550000X0.550000X0*%
%ADD16C,1.600000*%
%ADD17RoundRect,0.250000X0.550000X0.550000X-0.550000X0.550000X-0.550000X-0.550000X0.550000X-0.550000X0*%
%ADD18RoundRect,0.150000X0.587500X0.150000X-0.587500X0.150000X-0.587500X-0.150000X0.587500X-0.150000X0*%
%ADD19RoundRect,0.250000X-0.450000X0.262500X-0.450000X-0.262500X0.450000X-0.262500X0.450000X0.262500X0*%
%ADD20RoundRect,0.250000X0.450000X-0.262500X0.450000X0.262500X-0.450000X0.262500X-0.450000X-0.262500X0*%
%ADD21RoundRect,0.150000X-0.587500X-0.150000X0.587500X-0.150000X0.587500X0.150000X-0.587500X0.150000X0*%
%ADD22RoundRect,0.150000X0.150000X-0.587500X0.150000X0.587500X-0.150000X0.587500X-0.150000X-0.587500X0*%
%ADD23RoundRect,0.250000X0.262500X0.450000X-0.262500X0.450000X-0.262500X-0.450000X0.262500X-0.450000X0*%
%ADD24RoundRect,0.250000X-0.550000X-0.550000X0.550000X-0.550000X0.550000X0.550000X-0.550000X0.550000X0*%
%ADD25RoundRect,0.250000X0.550000X-0.550000X0.550000X0.550000X-0.550000X0.550000X-0.550000X-0.550000X0*%
%ADD26RoundRect,0.250000X-0.262500X-0.450000X0.262500X-0.450000X0.262500X0.450000X-0.262500X0.450000X0*%
G04 APERTURE END LIST*
D10*
X147950057Y-93157738D02*
X147902438Y-93252976D01*
X147902438Y-93252976D02*
X147807200Y-93348214D01*
X147807200Y-93348214D02*
X147664342Y-93491071D01*
X147664342Y-93491071D02*
X147616723Y-93586309D01*
X147616723Y-93586309D02*
X147616723Y-93681547D01*
X147854819Y-93633928D02*
X147807200Y-93729166D01*
X147807200Y-93729166D02*
X147711961Y-93824404D01*
X147711961Y-93824404D02*
X147521485Y-93872023D01*
X147521485Y-93872023D02*
X147188152Y-93872023D01*
X147188152Y-93872023D02*
X146997676Y-93824404D01*
X146997676Y-93824404D02*
X146902438Y-93729166D01*
X146902438Y-93729166D02*
X146854819Y-93633928D01*
X146854819Y-93633928D02*
X146854819Y-93443452D01*
X146854819Y-93443452D02*
X146902438Y-93348214D01*
X146902438Y-93348214D02*
X146997676Y-93252976D01*
X146997676Y-93252976D02*
X147188152Y-93205357D01*
X147188152Y-93205357D02*
X147521485Y-93205357D01*
X147521485Y-93205357D02*
X147711961Y-93252976D01*
X147711961Y-93252976D02*
X147807200Y-93348214D01*
X147807200Y-93348214D02*
X147854819Y-93443452D01*
X147854819Y-93443452D02*
X147854819Y-93633928D01*
X146950057Y-92824404D02*
X146902438Y-92776785D01*
X146902438Y-92776785D02*
X146854819Y-92681547D01*
X146854819Y-92681547D02*
X146854819Y-92443452D01*
X146854819Y-92443452D02*
X146902438Y-92348214D01*
X146902438Y-92348214D02*
X146950057Y-92300595D01*
X146950057Y-92300595D02*
X147045295Y-92252976D01*
X147045295Y-92252976D02*
X147140533Y-92252976D01*
X147140533Y-92252976D02*
X147283390Y-92300595D01*
X147283390Y-92300595D02*
X147854819Y-92872023D01*
X147854819Y-92872023D02*
X147854819Y-92252976D01*
X113454819Y-68238094D02*
X112454819Y-68238094D01*
X112454819Y-68238094D02*
X112454819Y-67999999D01*
X112454819Y-67999999D02*
X112502438Y-67857142D01*
X112502438Y-67857142D02*
X112597676Y-67761904D01*
X112597676Y-67761904D02*
X112692914Y-67714285D01*
X112692914Y-67714285D02*
X112883390Y-67666666D01*
X112883390Y-67666666D02*
X113026247Y-67666666D01*
X113026247Y-67666666D02*
X113216723Y-67714285D01*
X113216723Y-67714285D02*
X113311961Y-67761904D01*
X113311961Y-67761904D02*
X113407200Y-67857142D01*
X113407200Y-67857142D02*
X113454819Y-67999999D01*
X113454819Y-67999999D02*
X113454819Y-68238094D01*
X112788152Y-66809523D02*
X113454819Y-66809523D01*
X112407200Y-67047618D02*
X113121485Y-67285713D01*
X113121485Y-67285713D02*
X113121485Y-66666666D01*
X117254819Y-63461904D02*
X116254819Y-63461904D01*
X117254819Y-62890476D02*
X116683390Y-63319047D01*
X116254819Y-62890476D02*
X116826247Y-63461904D01*
X144261905Y-35454819D02*
X144261905Y-34454819D01*
X144261905Y-34454819D02*
X144500000Y-34454819D01*
X144500000Y-34454819D02*
X144642857Y-34502438D01*
X144642857Y-34502438D02*
X144738095Y-34597676D01*
X144738095Y-34597676D02*
X144785714Y-34692914D01*
X144785714Y-34692914D02*
X144833333Y-34883390D01*
X144833333Y-34883390D02*
X144833333Y-35026247D01*
X144833333Y-35026247D02*
X144785714Y-35216723D01*
X144785714Y-35216723D02*
X144738095Y-35311961D01*
X144738095Y-35311961D02*
X144642857Y-35407200D01*
X144642857Y-35407200D02*
X144500000Y-35454819D01*
X144500000Y-35454819D02*
X144261905Y-35454819D01*
X145785714Y-35454819D02*
X145214286Y-35454819D01*
X145500000Y-35454819D02*
X145500000Y-34454819D01*
X145500000Y-34454819D02*
X145404762Y-34597676D01*
X145404762Y-34597676D02*
X145309524Y-34692914D01*
X145309524Y-34692914D02*
X145214286Y-34740533D01*
X148538095Y-39254819D02*
X148538095Y-38254819D01*
X149109523Y-39254819D02*
X148680952Y-38683390D01*
X149109523Y-38254819D02*
X148538095Y-38826247D01*
X118967261Y-70000057D02*
X118872023Y-69952438D01*
X118872023Y-69952438D02*
X118776785Y-69857200D01*
X118776785Y-69857200D02*
X118633928Y-69714342D01*
X118633928Y-69714342D02*
X118538690Y-69666723D01*
X118538690Y-69666723D02*
X118443452Y-69666723D01*
X118491071Y-69904819D02*
X118395833Y-69857200D01*
X118395833Y-69857200D02*
X118300595Y-69761961D01*
X118300595Y-69761961D02*
X118252976Y-69571485D01*
X118252976Y-69571485D02*
X118252976Y-69238152D01*
X118252976Y-69238152D02*
X118300595Y-69047676D01*
X118300595Y-69047676D02*
X118395833Y-68952438D01*
X118395833Y-68952438D02*
X118491071Y-68904819D01*
X118491071Y-68904819D02*
X118681547Y-68904819D01*
X118681547Y-68904819D02*
X118776785Y-68952438D01*
X118776785Y-68952438D02*
X118872023Y-69047676D01*
X118872023Y-69047676D02*
X118919642Y-69238152D01*
X118919642Y-69238152D02*
X118919642Y-69571485D01*
X118919642Y-69571485D02*
X118872023Y-69761961D01*
X118872023Y-69761961D02*
X118776785Y-69857200D01*
X118776785Y-69857200D02*
X118681547Y-69904819D01*
X118681547Y-69904819D02*
X118491071Y-69904819D01*
X119776785Y-69238152D02*
X119776785Y-69904819D01*
X119538690Y-68857200D02*
X119300595Y-69571485D01*
X119300595Y-69571485D02*
X119919642Y-69571485D01*
X167833333Y-64954819D02*
X167500000Y-64478628D01*
X167261905Y-64954819D02*
X167261905Y-63954819D01*
X167261905Y-63954819D02*
X167642857Y-63954819D01*
X167642857Y-63954819D02*
X167738095Y-64002438D01*
X167738095Y-64002438D02*
X167785714Y-64050057D01*
X167785714Y-64050057D02*
X167833333Y-64145295D01*
X167833333Y-64145295D02*
X167833333Y-64288152D01*
X167833333Y-64288152D02*
X167785714Y-64383390D01*
X167785714Y-64383390D02*
X167738095Y-64431009D01*
X167738095Y-64431009D02*
X167642857Y-64478628D01*
X167642857Y-64478628D02*
X167261905Y-64478628D01*
X168166667Y-63954819D02*
X168785714Y-63954819D01*
X168785714Y-63954819D02*
X168452381Y-64335771D01*
X168452381Y-64335771D02*
X168595238Y-64335771D01*
X168595238Y-64335771D02*
X168690476Y-64383390D01*
X168690476Y-64383390D02*
X168738095Y-64431009D01*
X168738095Y-64431009D02*
X168785714Y-64526247D01*
X168785714Y-64526247D02*
X168785714Y-64764342D01*
X168785714Y-64764342D02*
X168738095Y-64859580D01*
X168738095Y-64859580D02*
X168690476Y-64907200D01*
X168690476Y-64907200D02*
X168595238Y-64954819D01*
X168595238Y-64954819D02*
X168309524Y-64954819D01*
X168309524Y-64954819D02*
X168214286Y-64907200D01*
X168214286Y-64907200D02*
X168166667Y-64859580D01*
X122833333Y-69954819D02*
X122500000Y-69478628D01*
X122261905Y-69954819D02*
X122261905Y-68954819D01*
X122261905Y-68954819D02*
X122642857Y-68954819D01*
X122642857Y-68954819D02*
X122738095Y-69002438D01*
X122738095Y-69002438D02*
X122785714Y-69050057D01*
X122785714Y-69050057D02*
X122833333Y-69145295D01*
X122833333Y-69145295D02*
X122833333Y-69288152D01*
X122833333Y-69288152D02*
X122785714Y-69383390D01*
X122785714Y-69383390D02*
X122738095Y-69431009D01*
X122738095Y-69431009D02*
X122642857Y-69478628D01*
X122642857Y-69478628D02*
X122261905Y-69478628D01*
X123690476Y-69288152D02*
X123690476Y-69954819D01*
X123452381Y-68907200D02*
X123214286Y-69621485D01*
X123214286Y-69621485D02*
X123833333Y-69621485D01*
X170967261Y-65150057D02*
X170872023Y-65102438D01*
X170872023Y-65102438D02*
X170776785Y-65007200D01*
X170776785Y-65007200D02*
X170633928Y-64864342D01*
X170633928Y-64864342D02*
X170538690Y-64816723D01*
X170538690Y-64816723D02*
X170443452Y-64816723D01*
X170491071Y-65054819D02*
X170395833Y-65007200D01*
X170395833Y-65007200D02*
X170300595Y-64911961D01*
X170300595Y-64911961D02*
X170252976Y-64721485D01*
X170252976Y-64721485D02*
X170252976Y-64388152D01*
X170252976Y-64388152D02*
X170300595Y-64197676D01*
X170300595Y-64197676D02*
X170395833Y-64102438D01*
X170395833Y-64102438D02*
X170491071Y-64054819D01*
X170491071Y-64054819D02*
X170681547Y-64054819D01*
X170681547Y-64054819D02*
X170776785Y-64102438D01*
X170776785Y-64102438D02*
X170872023Y-64197676D01*
X170872023Y-64197676D02*
X170919642Y-64388152D01*
X170919642Y-64388152D02*
X170919642Y-64721485D01*
X170919642Y-64721485D02*
X170872023Y-64911961D01*
X170872023Y-64911961D02*
X170776785Y-65007200D01*
X170776785Y-65007200D02*
X170681547Y-65054819D01*
X170681547Y-65054819D02*
X170491071Y-65054819D01*
X171252976Y-64054819D02*
X171872023Y-64054819D01*
X171872023Y-64054819D02*
X171538690Y-64435771D01*
X171538690Y-64435771D02*
X171681547Y-64435771D01*
X171681547Y-64435771D02*
X171776785Y-64483390D01*
X171776785Y-64483390D02*
X171824404Y-64531009D01*
X171824404Y-64531009D02*
X171872023Y-64626247D01*
X171872023Y-64626247D02*
X171872023Y-64864342D01*
X171872023Y-64864342D02*
X171824404Y-64959580D01*
X171824404Y-64959580D02*
X171776785Y-65007200D01*
X171776785Y-65007200D02*
X171681547Y-65054819D01*
X171681547Y-65054819D02*
X171395833Y-65054819D01*
X171395833Y-65054819D02*
X171300595Y-65007200D01*
X171300595Y-65007200D02*
X171252976Y-64959580D01*
X143150057Y-41032738D02*
X143102438Y-41127976D01*
X143102438Y-41127976D02*
X143007200Y-41223214D01*
X143007200Y-41223214D02*
X142864342Y-41366071D01*
X142864342Y-41366071D02*
X142816723Y-41461309D01*
X142816723Y-41461309D02*
X142816723Y-41556547D01*
X143054819Y-41508928D02*
X143007200Y-41604166D01*
X143007200Y-41604166D02*
X142911961Y-41699404D01*
X142911961Y-41699404D02*
X142721485Y-41747023D01*
X142721485Y-41747023D02*
X142388152Y-41747023D01*
X142388152Y-41747023D02*
X142197676Y-41699404D01*
X142197676Y-41699404D02*
X142102438Y-41604166D01*
X142102438Y-41604166D02*
X142054819Y-41508928D01*
X142054819Y-41508928D02*
X142054819Y-41318452D01*
X142054819Y-41318452D02*
X142102438Y-41223214D01*
X142102438Y-41223214D02*
X142197676Y-41127976D01*
X142197676Y-41127976D02*
X142388152Y-41080357D01*
X142388152Y-41080357D02*
X142721485Y-41080357D01*
X142721485Y-41080357D02*
X142911961Y-41127976D01*
X142911961Y-41127976D02*
X143007200Y-41223214D01*
X143007200Y-41223214D02*
X143054819Y-41318452D01*
X143054819Y-41318452D02*
X143054819Y-41508928D01*
X143054819Y-40127976D02*
X143054819Y-40699404D01*
X143054819Y-40413690D02*
X142054819Y-40413690D01*
X142054819Y-40413690D02*
X142197676Y-40508928D01*
X142197676Y-40508928D02*
X142292914Y-40604166D01*
X142292914Y-40604166D02*
X142340533Y-40699404D01*
X147954819Y-89166666D02*
X147478628Y-89499999D01*
X147954819Y-89738094D02*
X146954819Y-89738094D01*
X146954819Y-89738094D02*
X146954819Y-89357142D01*
X146954819Y-89357142D02*
X147002438Y-89261904D01*
X147002438Y-89261904D02*
X147050057Y-89214285D01*
X147050057Y-89214285D02*
X147145295Y-89166666D01*
X147145295Y-89166666D02*
X147288152Y-89166666D01*
X147288152Y-89166666D02*
X147383390Y-89214285D01*
X147383390Y-89214285D02*
X147431009Y-89261904D01*
X147431009Y-89261904D02*
X147478628Y-89357142D01*
X147478628Y-89357142D02*
X147478628Y-89738094D01*
X147050057Y-88785713D02*
X147002438Y-88738094D01*
X147002438Y-88738094D02*
X146954819Y-88642856D01*
X146954819Y-88642856D02*
X146954819Y-88404761D01*
X146954819Y-88404761D02*
X147002438Y-88309523D01*
X147002438Y-88309523D02*
X147050057Y-88261904D01*
X147050057Y-88261904D02*
X147145295Y-88214285D01*
X147145295Y-88214285D02*
X147240533Y-88214285D01*
X147240533Y-88214285D02*
X147383390Y-88261904D01*
X147383390Y-88261904D02*
X147954819Y-88833332D01*
X147954819Y-88833332D02*
X147954819Y-88214285D01*
X131166666Y-71414819D02*
X131166666Y-72129104D01*
X131166666Y-72129104D02*
X131119047Y-72271961D01*
X131119047Y-72271961D02*
X131023809Y-72367200D01*
X131023809Y-72367200D02*
X130880952Y-72414819D01*
X130880952Y-72414819D02*
X130785714Y-72414819D01*
X131547619Y-71414819D02*
X132166666Y-71414819D01*
X132166666Y-71414819D02*
X131833333Y-71795771D01*
X131833333Y-71795771D02*
X131976190Y-71795771D01*
X131976190Y-71795771D02*
X132071428Y-71843390D01*
X132071428Y-71843390D02*
X132119047Y-71891009D01*
X132119047Y-71891009D02*
X132166666Y-71986247D01*
X132166666Y-71986247D02*
X132166666Y-72224342D01*
X132166666Y-72224342D02*
X132119047Y-72319580D01*
X132119047Y-72319580D02*
X132071428Y-72367200D01*
X132071428Y-72367200D02*
X131976190Y-72414819D01*
X131976190Y-72414819D02*
X131690476Y-72414819D01*
X131690476Y-72414819D02*
X131595238Y-72367200D01*
X131595238Y-72367200D02*
X131547619Y-72319580D01*
X144271905Y-99454819D02*
X144271905Y-98454819D01*
X144271905Y-98454819D02*
X144510000Y-98454819D01*
X144510000Y-98454819D02*
X144652857Y-98502438D01*
X144652857Y-98502438D02*
X144748095Y-98597676D01*
X144748095Y-98597676D02*
X144795714Y-98692914D01*
X144795714Y-98692914D02*
X144843333Y-98883390D01*
X144843333Y-98883390D02*
X144843333Y-99026247D01*
X144843333Y-99026247D02*
X144795714Y-99216723D01*
X144795714Y-99216723D02*
X144748095Y-99311961D01*
X144748095Y-99311961D02*
X144652857Y-99407200D01*
X144652857Y-99407200D02*
X144510000Y-99454819D01*
X144510000Y-99454819D02*
X144271905Y-99454819D01*
X145224286Y-98550057D02*
X145271905Y-98502438D01*
X145271905Y-98502438D02*
X145367143Y-98454819D01*
X145367143Y-98454819D02*
X145605238Y-98454819D01*
X145605238Y-98454819D02*
X145700476Y-98502438D01*
X145700476Y-98502438D02*
X145748095Y-98550057D01*
X145748095Y-98550057D02*
X145795714Y-98645295D01*
X145795714Y-98645295D02*
X145795714Y-98740533D01*
X145795714Y-98740533D02*
X145748095Y-98883390D01*
X145748095Y-98883390D02*
X145176667Y-99454819D01*
X145176667Y-99454819D02*
X145795714Y-99454819D01*
X140938095Y-95654819D02*
X140938095Y-94654819D01*
X141509523Y-95654819D02*
X141080952Y-95083390D01*
X141509523Y-94654819D02*
X140938095Y-95226247D01*
X177454819Y-67738094D02*
X176454819Y-67738094D01*
X176454819Y-67738094D02*
X176454819Y-67499999D01*
X176454819Y-67499999D02*
X176502438Y-67357142D01*
X176502438Y-67357142D02*
X176597676Y-67261904D01*
X176597676Y-67261904D02*
X176692914Y-67214285D01*
X176692914Y-67214285D02*
X176883390Y-67166666D01*
X176883390Y-67166666D02*
X177026247Y-67166666D01*
X177026247Y-67166666D02*
X177216723Y-67214285D01*
X177216723Y-67214285D02*
X177311961Y-67261904D01*
X177311961Y-67261904D02*
X177407200Y-67357142D01*
X177407200Y-67357142D02*
X177454819Y-67499999D01*
X177454819Y-67499999D02*
X177454819Y-67738094D01*
X176454819Y-66833332D02*
X176454819Y-66214285D01*
X176454819Y-66214285D02*
X176835771Y-66547618D01*
X176835771Y-66547618D02*
X176835771Y-66404761D01*
X176835771Y-66404761D02*
X176883390Y-66309523D01*
X176883390Y-66309523D02*
X176931009Y-66261904D01*
X176931009Y-66261904D02*
X177026247Y-66214285D01*
X177026247Y-66214285D02*
X177264342Y-66214285D01*
X177264342Y-66214285D02*
X177359580Y-66261904D01*
X177359580Y-66261904D02*
X177407200Y-66309523D01*
X177407200Y-66309523D02*
X177454819Y-66404761D01*
X177454819Y-66404761D02*
X177454819Y-66690475D01*
X177454819Y-66690475D02*
X177407200Y-66785713D01*
X177407200Y-66785713D02*
X177359580Y-66833332D01*
X173654819Y-71061904D02*
X172654819Y-71061904D01*
X173654819Y-70490476D02*
X173083390Y-70919047D01*
X172654819Y-70490476D02*
X173226247Y-71061904D01*
X142954819Y-44666666D02*
X142478628Y-44999999D01*
X142954819Y-45238094D02*
X141954819Y-45238094D01*
X141954819Y-45238094D02*
X141954819Y-44857142D01*
X141954819Y-44857142D02*
X142002438Y-44761904D01*
X142002438Y-44761904D02*
X142050057Y-44714285D01*
X142050057Y-44714285D02*
X142145295Y-44666666D01*
X142145295Y-44666666D02*
X142288152Y-44666666D01*
X142288152Y-44666666D02*
X142383390Y-44714285D01*
X142383390Y-44714285D02*
X142431009Y-44761904D01*
X142431009Y-44761904D02*
X142478628Y-44857142D01*
X142478628Y-44857142D02*
X142478628Y-45238094D01*
X142954819Y-43714285D02*
X142954819Y-44285713D01*
X142954819Y-43999999D02*
X141954819Y-43999999D01*
X141954819Y-43999999D02*
X142097676Y-44095237D01*
X142097676Y-44095237D02*
X142192914Y-44190475D01*
X142192914Y-44190475D02*
X142240533Y-44285713D01*
D11*
X143440000Y-92302500D02*
X143490000Y-92302500D01*
X143440000Y-93822500D02*
X143440000Y-92302500D01*
X144440000Y-93822500D02*
X143440000Y-93822500D01*
X144610000Y-92302500D02*
X145390000Y-92302500D01*
X146510000Y-92302500D02*
X146560000Y-92302500D01*
X146560000Y-92302500D02*
X146560000Y-93822500D01*
X146560000Y-93822500D02*
X145560000Y-93822500D01*
X145380000Y-91762500D02*
X145050000Y-92002500D01*
X145050000Y-91522500D01*
X145380000Y-91762500D01*
G36*
X145380000Y-91762500D02*
G01*
X145050000Y-92002500D01*
X145050000Y-91522500D01*
X145380000Y-91762500D01*
G37*
X115000000Y-64240000D02*
X115000000Y-64890000D01*
X115000000Y-69780000D02*
X115000000Y-69130000D01*
X116120000Y-65490000D02*
X113880000Y-65490000D01*
X116120000Y-65610000D02*
X113880000Y-65610000D01*
X116120000Y-65730000D02*
X113880000Y-65730000D01*
X116120000Y-64890000D02*
X113880000Y-64890000D01*
X113880000Y-69130000D01*
X116120000Y-69130000D01*
X116120000Y-64890000D01*
X142220000Y-37000000D02*
X142870000Y-37000000D01*
X146270000Y-38120000D02*
X146270000Y-35880000D01*
X146390000Y-38120000D02*
X146390000Y-35880000D01*
X146510000Y-38120000D02*
X146510000Y-35880000D01*
X147760000Y-37000000D02*
X147110000Y-37000000D01*
X147110000Y-38120000D02*
X142870000Y-38120000D01*
X142870000Y-35880000D01*
X147110000Y-35880000D01*
X147110000Y-38120000D01*
X118302500Y-65490000D02*
X119822500Y-65490000D01*
X118302500Y-66490000D02*
X118302500Y-65490000D01*
X118302500Y-68610000D02*
X118302500Y-67610000D01*
X119822500Y-65490000D02*
X119822500Y-65540000D01*
X119822500Y-66660000D02*
X119822500Y-67440000D01*
X119822500Y-68560000D02*
X119822500Y-68610000D01*
X119822500Y-68610000D02*
X118302500Y-68610000D01*
X120362500Y-67430000D02*
X120122500Y-67100000D01*
X120602500Y-67100000D01*
X120362500Y-67430000D01*
G36*
X120362500Y-67430000D02*
G01*
X120122500Y-67100000D01*
X120602500Y-67100000D01*
X120362500Y-67430000D01*
G37*
X166265000Y-66772936D02*
X166265000Y-67227064D01*
X167735000Y-66772936D02*
X167735000Y-67227064D01*
X122265000Y-67314564D02*
X122265000Y-66860436D01*
X123735000Y-67314564D02*
X123735000Y-66860436D01*
X170302500Y-65440000D02*
X171822500Y-65440000D01*
X170302500Y-65490000D02*
X170302500Y-65440000D01*
X170302500Y-67390000D02*
X170302500Y-66610000D01*
X170302500Y-68560000D02*
X170302500Y-68510000D01*
X171822500Y-65440000D02*
X171822500Y-66440000D01*
X171822500Y-67560000D02*
X171822500Y-68560000D01*
X171822500Y-68560000D02*
X170302500Y-68560000D01*
X170002500Y-66950000D02*
X169522500Y-66950000D01*
X169762500Y-66620000D01*
X170002500Y-66950000D01*
G36*
X170002500Y-66950000D02*
G01*
X169522500Y-66950000D01*
X169762500Y-66620000D01*
X170002500Y-66950000D01*
G37*
X143440000Y-40177500D02*
X144440000Y-40177500D01*
X143440000Y-41697500D02*
X143440000Y-40177500D01*
X143490000Y-41697500D02*
X143440000Y-41697500D01*
X145390000Y-41697500D02*
X144610000Y-41697500D01*
X145560000Y-40177500D02*
X146560000Y-40177500D01*
X146560000Y-40177500D02*
X146560000Y-41697500D01*
X146560000Y-41697500D02*
X146510000Y-41697500D01*
X144950000Y-42477500D02*
X144620000Y-42237500D01*
X144950000Y-41997500D01*
X144950000Y-42477500D01*
G36*
X144950000Y-42477500D02*
G01*
X144620000Y-42237500D01*
X144950000Y-41997500D01*
X144950000Y-42477500D01*
G37*
X145139564Y-88265000D02*
X144685436Y-88265000D01*
X145139564Y-89735000D02*
X144685436Y-89735000D01*
X130120000Y-68310000D02*
X130120000Y-63120000D01*
X132880000Y-63120000D02*
X130120000Y-63120000D01*
X132880000Y-68310000D02*
X130120000Y-68310000D01*
X132880000Y-68310000D02*
X132880000Y-63120000D01*
X132880000Y-69580000D02*
X132880000Y-70960000D01*
X132880000Y-70960000D02*
X131500000Y-70960000D01*
X142240000Y-97000000D02*
X142890000Y-97000000D01*
X143490000Y-95880000D02*
X143490000Y-98120000D01*
X143610000Y-95880000D02*
X143610000Y-98120000D01*
X143730000Y-95880000D02*
X143730000Y-98120000D01*
X147780000Y-97000000D02*
X147130000Y-97000000D01*
X142890000Y-95880000D02*
X147130000Y-95880000D01*
X147130000Y-98120000D01*
X142890000Y-98120000D01*
X142890000Y-95880000D01*
X134620000Y-58620000D02*
X136000000Y-58620000D01*
X134620000Y-60000000D02*
X134620000Y-58620000D01*
X134620000Y-61270000D02*
X134620000Y-76620000D01*
X134620000Y-61270000D02*
X137380000Y-61270000D01*
X134620000Y-76620000D02*
X137380000Y-76620000D01*
X137380000Y-61270000D02*
X137380000Y-76620000D01*
X173880000Y-68270000D02*
X176120000Y-68270000D01*
X173880000Y-68390000D02*
X176120000Y-68390000D01*
X173880000Y-68510000D02*
X176120000Y-68510000D01*
X175000000Y-64220000D02*
X175000000Y-64870000D01*
X175000000Y-69760000D02*
X175000000Y-69110000D01*
X173880000Y-69110000D02*
X176120000Y-69110000D01*
X176120000Y-64870000D01*
X173880000Y-64870000D01*
X173880000Y-69110000D01*
X139080000Y-80380000D02*
X139080000Y-79000000D01*
X140460000Y-80380000D02*
X139080000Y-80380000D01*
X141730000Y-77620000D02*
X144380000Y-77620000D01*
X141730000Y-80380000D02*
X141730000Y-77620000D01*
X141730000Y-80380000D02*
X144380000Y-80380000D01*
X144380000Y-80380000D02*
X144380000Y-77620000D01*
X144860436Y-44265000D02*
X145314564Y-44265000D01*
X144860436Y-45735000D02*
X145314564Y-45735000D01*
X151620000Y-58380000D02*
X153000000Y-58380000D01*
X151620000Y-59760000D02*
X151620000Y-58380000D01*
X151620000Y-61030000D02*
X151620000Y-76380000D01*
X151620000Y-61030000D02*
X154380000Y-61030000D01*
X151620000Y-76380000D02*
X154380000Y-76380000D01*
X154380000Y-61030000D02*
X154380000Y-76380000D01*
%LPC*%
D12*
X156920000Y-68000000D03*
X156920000Y-65460000D03*
X159460000Y-68000000D03*
X159460000Y-65460000D03*
X162000000Y-68000000D03*
D13*
X162000000Y-65460000D03*
D14*
X145950000Y-92125000D03*
X144050000Y-92125000D03*
X145000000Y-94000000D03*
D15*
X115000000Y-63200000D03*
D16*
X115000000Y-70820000D03*
D17*
X148800000Y-37000000D03*
D16*
X141180000Y-37000000D03*
D18*
X120000000Y-68000000D03*
X120000000Y-66100000D03*
X118125000Y-67050000D03*
D19*
X167000000Y-66087500D03*
X167000000Y-67912500D03*
D20*
X123000000Y-68000000D03*
X123000000Y-66175000D03*
D21*
X170125000Y-66050000D03*
X170125000Y-67950000D03*
X172000000Y-67000000D03*
D22*
X144050000Y-41875000D03*
X145950000Y-41875000D03*
X145000000Y-40000000D03*
D23*
X145825000Y-89000000D03*
X144000000Y-89000000D03*
D13*
X131500000Y-69580000D03*
D12*
X131500000Y-67040000D03*
X131500000Y-64500000D03*
D24*
X141200000Y-97000000D03*
D16*
X148820000Y-97000000D03*
D13*
X136000000Y-60000000D03*
D12*
X136000000Y-62540000D03*
X136000000Y-65080000D03*
X136000000Y-67620000D03*
X136000000Y-70160000D03*
X136000000Y-72700000D03*
X136000000Y-75240000D03*
D25*
X175000000Y-70800000D03*
D16*
X175000000Y-63180000D03*
D13*
X140460000Y-79000000D03*
D12*
X143000000Y-79000000D03*
D26*
X144175000Y-45000000D03*
X146000000Y-45000000D03*
D13*
X153000000Y-59760000D03*
D12*
X153000000Y-62300000D03*
X153000000Y-64840000D03*
X153000000Y-67380000D03*
X153000000Y-69920000D03*
X153000000Y-72460000D03*
X153000000Y-75000000D03*
%LPD*%
M02*
