G04 #@! TF.GenerationSoftware,KiCad,Pcbnew,9.0.6*
G04 #@! TF.CreationDate,2025-12-08T21:21:54+02:00*
G04 #@! TF.ProjectId,tinywhoop_frame,74696e79-7768-46f6-9f70-5f6672616d65,rev?*
G04 #@! TF.SameCoordinates,Original*
G04 #@! TF.FileFunction,Copper,L2,Bot*
G04 #@! TF.FilePolarity,Positive*
%FSLAX46Y46*%
G04 Gerber Fmt 4.6, Leading zero omitted, Abs format (unit mm)*
G04 Created by KiCad (PCBNEW 9.0.6) date 2025-12-08 21:21:54*
%MOMM*%
%LPD*%
G01*
G04 APERTURE LIST*
G04 Aperture macros list*
%AMRoundRect*
0 Rectangle with rounded corners*
0 $1 Rounding radius*
0 $2 $3 $4 $5 $6 $7 $8 $9 X,Y pos of 4 corners*
0 Add a 4 corners polygon primitive as box body*
4,1,4,$2,$3,$4,$5,$6,$7,$8,$9,$2,$3,0*
0 Add four circle primitives for the rounded corners*
1,1,$1+$1,$2,$3*
1,1,$1+$1,$4,$5*
1,1,$1+$1,$6,$7*
1,1,$1+$1,$8,$9*
0 Add four rect primitives between the rounded corners*
20,1,$1+$1,$2,$3,$4,$5,0*
20,1,$1+$1,$4,$5,$6,$7,0*
20,1,$1+$1,$6,$7,$8,$9,0*
20,1,$1+$1,$8,$9,$2,$3,0*%
G04 Aperture macros list end*
G04 #@! TA.AperFunction,ComponentPad*
%ADD10C,1.700000*%
G04 #@! TD*
G04 #@! TA.AperFunction,ComponentPad*
%ADD11R,1.700000X1.700000*%
G04 #@! TD*
G04 #@! TA.AperFunction,ComponentPad*
%ADD12RoundRect,0.250000X-0.550000X0.550000X-0.550000X-0.550000X0.550000X-0.550000X0.550000X0.550000X0*%
G04 #@! TD*
G04 #@! TA.AperFunction,ComponentPad*
%ADD13C,1.600000*%
G04 #@! TD*
G04 #@! TA.AperFunction,ComponentPad*
%ADD14RoundRect,0.250000X0.550000X0.550000X-0.550000X0.550000X-0.550000X-0.550000X0.550000X-0.550000X0*%
G04 #@! TD*
G04 #@! TA.AperFunction,ComponentPad*
%ADD15RoundRect,0.250000X-0.550000X-0.550000X0.550000X-0.550000X0.550000X0.550000X-0.550000X0.550000X0*%
G04 #@! TD*
G04 #@! TA.AperFunction,ComponentPad*
%ADD16RoundRect,0.250000X0.550000X-0.550000X0.550000X0.550000X-0.550000X0.550000X-0.550000X-0.550000X0*%
G04 #@! TD*
G04 #@! TA.AperFunction,ViaPad*
%ADD17C,0.800000*%
G04 #@! TD*
G04 #@! TA.AperFunction,Conductor*
%ADD18C,0.800000*%
G04 #@! TD*
G04 APERTURE END LIST*
D10*
X156920000Y-68000000D03*
X156920000Y-65460000D03*
X159460000Y-68000000D03*
X159460000Y-65460000D03*
X162000000Y-68000000D03*
D11*
X162000000Y-65460000D03*
D12*
X115000000Y-63200000D03*
D13*
X115000000Y-70820000D03*
D14*
X148800000Y-37000000D03*
D13*
X141180000Y-37000000D03*
D11*
X131500000Y-69580000D03*
D10*
X131500000Y-67040000D03*
X131500000Y-64500000D03*
D15*
X141200000Y-97000000D03*
D13*
X148820000Y-97000000D03*
D11*
X136000000Y-60000000D03*
D10*
X136000000Y-62540000D03*
X136000000Y-65080000D03*
X136000000Y-67620000D03*
X136000000Y-70160000D03*
X136000000Y-72700000D03*
X136000000Y-75240000D03*
D16*
X175000000Y-70800000D03*
D13*
X175000000Y-63180000D03*
D11*
X140460000Y-79000000D03*
D10*
X143000000Y-79000000D03*
D11*
X153000000Y-59760000D03*
D10*
X153000000Y-62300000D03*
X153000000Y-64840000D03*
X153000000Y-67380000D03*
X153000000Y-69920000D03*
X153000000Y-72460000D03*
X153000000Y-75000000D03*
D17*
X147500000Y-66000000D03*
X150500000Y-69000000D03*
X140500000Y-68000000D03*
X147500000Y-73000000D03*
X146500000Y-65000000D03*
X141500000Y-73000000D03*
X139500000Y-67000000D03*
X150500000Y-65000000D03*
X150500000Y-73000000D03*
X148500000Y-70000000D03*
X148500000Y-68000000D03*
X140500000Y-74000000D03*
X141500000Y-59000000D03*
X147500000Y-65000000D03*
X141500000Y-74000000D03*
X148500000Y-73000000D03*
X149500000Y-73000000D03*
X150500000Y-62000000D03*
X147500000Y-62000000D03*
X148500000Y-76000000D03*
X149500000Y-74000000D03*
X139500000Y-60000000D03*
X148500000Y-61000000D03*
X148500000Y-63000000D03*
X140500000Y-71000000D03*
X149500000Y-76000000D03*
X150500000Y-74000000D03*
X150500000Y-66000000D03*
X148500000Y-71000000D03*
X148500000Y-72000000D03*
X139500000Y-74000000D03*
X150500000Y-72000000D03*
X139500000Y-71000000D03*
X147500000Y-69000000D03*
X148500000Y-64000000D03*
X141500000Y-75000000D03*
X149500000Y-68000000D03*
X149500000Y-61000000D03*
X138500000Y-61000000D03*
X140500000Y-60000000D03*
X150500000Y-63000000D03*
X141500000Y-70000000D03*
X138500000Y-72000000D03*
X138500000Y-67000000D03*
X148500000Y-65000000D03*
X147500000Y-70000000D03*
X140500000Y-70000000D03*
X148500000Y-75000000D03*
X147500000Y-76000000D03*
X150500000Y-67000000D03*
X150500000Y-70000000D03*
X148500000Y-62000000D03*
X138500000Y-74000000D03*
X150500000Y-71000000D03*
X149500000Y-65000000D03*
X149500000Y-64000000D03*
X150500000Y-60000000D03*
X149500000Y-60000000D03*
X145500000Y-65000000D03*
X141500000Y-68000000D03*
X149500000Y-70000000D03*
X150500000Y-75000000D03*
X149500000Y-75000000D03*
X148500000Y-67000000D03*
X140500000Y-75000000D03*
X147500000Y-67000000D03*
X139500000Y-61000000D03*
X149500000Y-63000000D03*
X141500000Y-72000000D03*
X148500000Y-66000000D03*
X140500000Y-73000000D03*
X140500000Y-69000000D03*
X147500000Y-74000000D03*
X146500000Y-63000000D03*
X150500000Y-61000000D03*
X140500000Y-72000000D03*
X139500000Y-69000000D03*
X146500000Y-67000000D03*
X138500000Y-71000000D03*
X147500000Y-72000000D03*
X141500000Y-67000000D03*
X139500000Y-59000000D03*
X138500000Y-70000000D03*
X140500000Y-59000000D03*
X141500000Y-71000000D03*
X140500000Y-67000000D03*
X146500000Y-64000000D03*
X149500000Y-71000000D03*
X139500000Y-70000000D03*
X138500000Y-68000000D03*
X147500000Y-64000000D03*
X138500000Y-60000000D03*
X141500000Y-60000000D03*
X149500000Y-66000000D03*
X150500000Y-59000000D03*
X138500000Y-69000000D03*
X147500000Y-68000000D03*
X150500000Y-68000000D03*
X147500000Y-75000000D03*
X140500000Y-61000000D03*
X145500000Y-64000000D03*
X138500000Y-59000000D03*
X149500000Y-62000000D03*
X149500000Y-72000000D03*
X147500000Y-63000000D03*
X150500000Y-76000000D03*
X139500000Y-75000000D03*
X141500000Y-69000000D03*
X145500000Y-66000000D03*
X150500000Y-64000000D03*
X148500000Y-69000000D03*
X147500000Y-71000000D03*
X138500000Y-75000000D03*
X146500000Y-66000000D03*
X149500000Y-67000000D03*
X139500000Y-68000000D03*
X139500000Y-73000000D03*
X141500000Y-61000000D03*
X149500000Y-69000000D03*
X138500000Y-73000000D03*
X148500000Y-74000000D03*
X139500000Y-72000000D03*
D18*
X143000000Y-79000000D02*
X143000000Y-61000000D01*
X143000000Y-61000000D02*
X148800000Y-55200000D01*
X148800000Y-55200000D02*
X148800000Y-37000000D01*
X138500000Y-76500000D02*
X140862000Y-76500000D01*
X140862000Y-76500000D02*
X143000000Y-78638000D01*
X143000000Y-78638000D02*
X143000000Y-79000000D01*
X143000000Y-79000000D02*
X153000000Y-79000000D01*
X153000000Y-79000000D02*
X161200000Y-70800000D01*
X161200000Y-70800000D02*
X175000000Y-70800000D01*
X130500000Y-73000000D02*
X135000000Y-77500000D01*
X112500000Y-64000000D02*
X112500000Y-72000000D01*
X135000000Y-77500000D02*
X137500000Y-77500000D01*
X137500000Y-77500000D02*
X138500000Y-76500000D01*
X112500000Y-72000000D02*
X113500000Y-73000000D01*
X113300000Y-63200000D02*
X112500000Y-64000000D01*
X113500000Y-73000000D02*
X130500000Y-73000000D01*
X115000000Y-63200000D02*
X113300000Y-63200000D01*
G04 #@! TA.AperFunction,Conductor*
G36*
X145503503Y-22219339D02*
G01*
X145512725Y-22220031D01*
X146008814Y-22275926D01*
X146017960Y-22277305D01*
X146396587Y-22348945D01*
X146508464Y-22370114D01*
X146517504Y-22372177D01*
X146999702Y-22501381D01*
X147008558Y-22504112D01*
X147479758Y-22668992D01*
X147488390Y-22672380D01*
X147945949Y-22872011D01*
X147954303Y-22876035D01*
X148395640Y-23109288D01*
X148403671Y-23113924D01*
X148826367Y-23379521D01*
X148834029Y-23384745D01*
X149235688Y-23681183D01*
X149242930Y-23686959D01*
X149621327Y-24012596D01*
X149628124Y-24018903D01*
X149981096Y-24371875D01*
X149987403Y-24378672D01*
X150313040Y-24757069D01*
X150318822Y-24764319D01*
X150615254Y-25165970D01*
X150620478Y-25173632D01*
X150886075Y-25596328D01*
X150890711Y-25604359D01*
X151123964Y-26045696D01*
X151127988Y-26054050D01*
X151327619Y-26511609D01*
X151331007Y-26520241D01*
X151495885Y-26991435D01*
X151498618Y-27000297D01*
X151627822Y-27482495D01*
X151629885Y-27491535D01*
X151722692Y-27982028D01*
X151724074Y-27991197D01*
X151779967Y-28487262D01*
X151780660Y-28496509D01*
X151799413Y-28997674D01*
X151799500Y-29002311D01*
X151799500Y-51960118D01*
X151799500Y-52039882D01*
X151830024Y-52113574D01*
X151886426Y-52169976D01*
X151960118Y-52200500D01*
X151997875Y-52200500D01*
X152002107Y-52200571D01*
X152528037Y-52218537D01*
X152536460Y-52219114D01*
X153057844Y-52272714D01*
X153066182Y-52273860D01*
X153582685Y-52362915D01*
X153590974Y-52364637D01*
X154100179Y-52488727D01*
X154108293Y-52491000D01*
X154502030Y-52615967D01*
X154607851Y-52649553D01*
X154615829Y-52652388D01*
X154792117Y-52721906D01*
X155103407Y-52844663D01*
X155111153Y-52848029D01*
X155584458Y-53073123D01*
X155591950Y-53077004D01*
X156021195Y-53318357D01*
X156048801Y-53333879D01*
X156056035Y-53338278D01*
X156494288Y-53625728D01*
X156501189Y-53630599D01*
X156918811Y-53947293D01*
X156925356Y-53952618D01*
X157206760Y-54197989D01*
X157320378Y-54297059D01*
X157326566Y-54302838D01*
X157697161Y-54673433D01*
X157702940Y-54679621D01*
X158047379Y-55074640D01*
X158052709Y-55081191D01*
X158341985Y-55462658D01*
X158369394Y-55498802D01*
X158374277Y-55505719D01*
X158661721Y-55943964D01*
X158666120Y-55951198D01*
X158922988Y-56408036D01*
X158926883Y-56415554D01*
X159151966Y-56888836D01*
X159155340Y-56896602D01*
X159347611Y-57384170D01*
X159350446Y-57392148D01*
X159508993Y-57891687D01*
X159511277Y-57899840D01*
X159635361Y-58409024D01*
X159637084Y-58417314D01*
X159726135Y-58933792D01*
X159727288Y-58942180D01*
X159780884Y-59463526D01*
X159781462Y-59471973D01*
X159799428Y-59997891D01*
X159799500Y-60002125D01*
X159799500Y-60039882D01*
X159830024Y-60113574D01*
X159886426Y-60169976D01*
X159960118Y-60200500D01*
X182960118Y-60200500D01*
X182997688Y-60200500D01*
X183002324Y-60200587D01*
X183043658Y-60202133D01*
X183503501Y-60219339D01*
X183512725Y-60220031D01*
X184008814Y-60275926D01*
X184017960Y-60277305D01*
X184396587Y-60348945D01*
X184508464Y-60370114D01*
X184517504Y-60372177D01*
X184999702Y-60501381D01*
X185008558Y-60504112D01*
X185206723Y-60573453D01*
X185479758Y-60668992D01*
X185488390Y-60672380D01*
X185945949Y-60872011D01*
X185954303Y-60876035D01*
X186395640Y-61109288D01*
X186403671Y-61113924D01*
X186826367Y-61379521D01*
X186834029Y-61384745D01*
X186875915Y-61415658D01*
X187235688Y-61681183D01*
X187242930Y-61686959D01*
X187621327Y-62012596D01*
X187628124Y-62018903D01*
X187981096Y-62371875D01*
X187987403Y-62378672D01*
X188313040Y-62757069D01*
X188318819Y-62764315D01*
X188400852Y-62875466D01*
X188615254Y-63165970D01*
X188620478Y-63173632D01*
X188886075Y-63596328D01*
X188890711Y-63604359D01*
X189123964Y-64045696D01*
X189127988Y-64054050D01*
X189327619Y-64511609D01*
X189331007Y-64520241D01*
X189495885Y-64991435D01*
X189498618Y-65000297D01*
X189627822Y-65482495D01*
X189629885Y-65491535D01*
X189722692Y-65982028D01*
X189724074Y-65991197D01*
X189779967Y-66487262D01*
X189780660Y-66496509D01*
X189799326Y-66995363D01*
X189799326Y-67004637D01*
X189780660Y-67503490D01*
X189779967Y-67512737D01*
X189724074Y-68008802D01*
X189722692Y-68017971D01*
X189629885Y-68508464D01*
X189627822Y-68517504D01*
X189498618Y-68999702D01*
X189495885Y-69008564D01*
X189331007Y-69479758D01*
X189327619Y-69488390D01*
X189127988Y-69945949D01*
X189123964Y-69954303D01*
X188890711Y-70395640D01*
X188886075Y-70403671D01*
X188620478Y-70826367D01*
X188615254Y-70834029D01*
X188318822Y-71235680D01*
X188313040Y-71242930D01*
X187987403Y-71621327D01*
X187981096Y-71628124D01*
X187628124Y-71981096D01*
X187621327Y-71987403D01*
X187242930Y-72313040D01*
X187235680Y-72318822D01*
X186834029Y-72615254D01*
X186826367Y-72620478D01*
X186403671Y-72886075D01*
X186395640Y-72890711D01*
X185954303Y-73123964D01*
X185945949Y-73127988D01*
X185488390Y-73327619D01*
X185479758Y-73331007D01*
X185008564Y-73495885D01*
X184999702Y-73498618D01*
X184517504Y-73627822D01*
X184508464Y-73629885D01*
X184017971Y-73722692D01*
X184008802Y-73724074D01*
X183512737Y-73779967D01*
X183503490Y-73780660D01*
X183002325Y-73799413D01*
X182997688Y-73799500D01*
X159960116Y-73799500D01*
X159886425Y-73830024D01*
X159830024Y-73886425D01*
X159799500Y-73960116D01*
X159799500Y-73997874D01*
X159799428Y-74002108D01*
X159781462Y-74528026D01*
X159780884Y-74536473D01*
X159727288Y-75057819D01*
X159726135Y-75066207D01*
X159637084Y-75582685D01*
X159635361Y-75590975D01*
X159511277Y-76100159D01*
X159508993Y-76108312D01*
X159350446Y-76607851D01*
X159347611Y-76615829D01*
X159155340Y-77103397D01*
X159151966Y-77111163D01*
X158926883Y-77584445D01*
X158922988Y-77591963D01*
X158666120Y-78048801D01*
X158661721Y-78056035D01*
X158374277Y-78494280D01*
X158369394Y-78501197D01*
X158052716Y-78918799D01*
X158047372Y-78925367D01*
X157702940Y-79320378D01*
X157697161Y-79326566D01*
X157326566Y-79697161D01*
X157320378Y-79702940D01*
X156925367Y-80047372D01*
X156918799Y-80052716D01*
X156501197Y-80369394D01*
X156494280Y-80374277D01*
X156056035Y-80661721D01*
X156048801Y-80666120D01*
X155591963Y-80922988D01*
X155584445Y-80926883D01*
X155111163Y-81151966D01*
X155103397Y-81155340D01*
X154615829Y-81347611D01*
X154607851Y-81350446D01*
X154108312Y-81508993D01*
X154100159Y-81511277D01*
X153590975Y-81635361D01*
X153582685Y-81637084D01*
X153066207Y-81726135D01*
X153057819Y-81727288D01*
X152536473Y-81780884D01*
X152528026Y-81781462D01*
X152042164Y-81798059D01*
X152002106Y-81799428D01*
X151997875Y-81799500D01*
X151960116Y-81799500D01*
X151886425Y-81830024D01*
X151830024Y-81886425D01*
X151799500Y-81960116D01*
X151799500Y-104997688D01*
X151799413Y-105002325D01*
X151780660Y-105503490D01*
X151779967Y-105512737D01*
X151724074Y-106008802D01*
X151722692Y-106017971D01*
X151629885Y-106508464D01*
X151627822Y-106517504D01*
X151498618Y-106999702D01*
X151495885Y-107008564D01*
X151331007Y-107479758D01*
X151327619Y-107488390D01*
X151127988Y-107945949D01*
X151123964Y-107954303D01*
X150890711Y-108395640D01*
X150886075Y-108403671D01*
X150620478Y-108826367D01*
X150615254Y-108834029D01*
X150318822Y-109235680D01*
X150313040Y-109242930D01*
X149987403Y-109621327D01*
X149981096Y-109628124D01*
X149628124Y-109981096D01*
X149621327Y-109987403D01*
X149242930Y-110313040D01*
X149235680Y-110318822D01*
X148834029Y-110615254D01*
X148826367Y-110620478D01*
X148403671Y-110886075D01*
X148395640Y-110890711D01*
X147954303Y-111123964D01*
X147945949Y-111127988D01*
X147488390Y-111327619D01*
X147479758Y-111331007D01*
X147008564Y-111495885D01*
X146999702Y-111498618D01*
X146517504Y-111627822D01*
X146508464Y-111629885D01*
X146017971Y-111722692D01*
X146008802Y-111724074D01*
X145512737Y-111779967D01*
X145503490Y-111780660D01*
X145004637Y-111799326D01*
X144995363Y-111799326D01*
X144496509Y-111780660D01*
X144487262Y-111779967D01*
X143991197Y-111724074D01*
X143982028Y-111722692D01*
X143491535Y-111629885D01*
X143482495Y-111627822D01*
X143000297Y-111498618D01*
X142991435Y-111495885D01*
X142520241Y-111331007D01*
X142511609Y-111327619D01*
X142054050Y-111127988D01*
X142045696Y-111123964D01*
X141604359Y-110890711D01*
X141596328Y-110886075D01*
X141173632Y-110620478D01*
X141165970Y-110615254D01*
X140764319Y-110318822D01*
X140757069Y-110313040D01*
X140378672Y-109987403D01*
X140371875Y-109981096D01*
X140018903Y-109628124D01*
X140012596Y-109621327D01*
X139686959Y-109242930D01*
X139681177Y-109235680D01*
X139384745Y-108834029D01*
X139379521Y-108826367D01*
X139113924Y-108403671D01*
X139109288Y-108395640D01*
X138876035Y-107954303D01*
X138872011Y-107945949D01*
X138672380Y-107488390D01*
X138668992Y-107479758D01*
X138504112Y-107008558D01*
X138501381Y-106999702D01*
X138372177Y-106517504D01*
X138370114Y-106508464D01*
X138332326Y-106308749D01*
X138277305Y-106017960D01*
X138275925Y-106008802D01*
X138263692Y-105900233D01*
X138220031Y-105512725D01*
X138219339Y-105503489D01*
X138210346Y-105263152D01*
X138200587Y-105002324D01*
X138200500Y-104997688D01*
X138200500Y-104818209D01*
X141299500Y-104818209D01*
X141299500Y-105181790D01*
X141335137Y-105543630D01*
X141406064Y-105900212D01*
X141406067Y-105900223D01*
X141511614Y-106248165D01*
X141650754Y-106584078D01*
X141650756Y-106584083D01*
X141822140Y-106904720D01*
X141822151Y-106904738D01*
X142024140Y-107207035D01*
X142024150Y-107207049D01*
X142254807Y-107488106D01*
X142511893Y-107745192D01*
X142511898Y-107745196D01*
X142511899Y-107745197D01*
X142792956Y-107975854D01*
X143095268Y-108177853D01*
X143095277Y-108177858D01*
X143095279Y-108177859D01*
X143415916Y-108349243D01*
X143415918Y-108349243D01*
X143415924Y-108349247D01*
X143751836Y-108488386D01*
X144099767Y-108593930D01*
X144099773Y-108593931D01*
X144099776Y-108593932D01*
X144099787Y-108593935D01*
X144456369Y-108664862D01*
X144818206Y-108700500D01*
X144818209Y-108700500D01*
X145181791Y-108700500D01*
X145181794Y-108700500D01*
X145543631Y-108664862D01*
X145613045Y-108651054D01*
X145900212Y-108593935D01*
X145900223Y-108593932D01*
X145900223Y-108593931D01*
X145900233Y-108593930D01*
X146248164Y-108488386D01*
X146584076Y-108349247D01*
X146904732Y-108177853D01*
X147207044Y-107975854D01*
X147488101Y-107745197D01*
X147745197Y-107488101D01*
X147975854Y-107207044D01*
X148177853Y-106904732D01*
X148349247Y-106584076D01*
X148488386Y-106248164D01*
X148593930Y-105900233D01*
X148593932Y-105900223D01*
X148593935Y-105900212D01*
X148664862Y-105543630D01*
X148668359Y-105508127D01*
X148700500Y-105181794D01*
X148700500Y-104818206D01*
X148664862Y-104456369D01*
X148613527Y-104198287D01*
X148593935Y-104099787D01*
X148593932Y-104099776D01*
X148593931Y-104099773D01*
X148593930Y-104099767D01*
X148488386Y-103751836D01*
X148349247Y-103415924D01*
X148177853Y-103095268D01*
X147975854Y-102792956D01*
X147745197Y-102511899D01*
X147745196Y-102511898D01*
X147745192Y-102511893D01*
X147488106Y-102254807D01*
X147207049Y-102024150D01*
X147207048Y-102024149D01*
X147207044Y-102024146D01*
X146904732Y-101822147D01*
X146904727Y-101822144D01*
X146904720Y-101822140D01*
X146584083Y-101650756D01*
X146584078Y-101650754D01*
X146248165Y-101511614D01*
X145900223Y-101406067D01*
X145900212Y-101406064D01*
X145543630Y-101335137D01*
X145271111Y-101308296D01*
X145181794Y-101299500D01*
X144818206Y-101299500D01*
X144735679Y-101307628D01*
X144456369Y-101335137D01*
X144099787Y-101406064D01*
X144099776Y-101406067D01*
X143751834Y-101511614D01*
X143415921Y-101650754D01*
X143415916Y-101650756D01*
X143095279Y-101822140D01*
X143095261Y-101822151D01*
X142792964Y-102024140D01*
X142792950Y-102024150D01*
X142511893Y-102254807D01*
X142254807Y-102511893D01*
X142024150Y-102792950D01*
X142024140Y-102792964D01*
X141822151Y-103095261D01*
X141822140Y-103095279D01*
X141650756Y-103415916D01*
X141650754Y-103415921D01*
X141511614Y-103751834D01*
X141406067Y-104099776D01*
X141406064Y-104099787D01*
X141335137Y-104456369D01*
X141299500Y-104818209D01*
X138200500Y-104818209D01*
X138200500Y-96399983D01*
X139899500Y-96399983D01*
X139899500Y-97600001D01*
X139899501Y-97600018D01*
X139910000Y-97702796D01*
X139910001Y-97702799D01*
X139957856Y-97847213D01*
X139965186Y-97869334D01*
X140057288Y-98018656D01*
X140181344Y-98142712D01*
X140330666Y-98234814D01*
X140497203Y-98289999D01*
X140599991Y-98300500D01*
X141800008Y-98300499D01*
X141902797Y-98289999D01*
X142069334Y-98234814D01*
X142218656Y-98142712D01*
X142342712Y-98018656D01*
X142434814Y-97869334D01*
X142489999Y-97702797D01*
X142500500Y-97600009D01*
X142500499Y-96897648D01*
X147519500Y-96897648D01*
X147519500Y-97102351D01*
X147551522Y-97304534D01*
X147614781Y-97499223D01*
X147707715Y-97681613D01*
X147828028Y-97847213D01*
X147972786Y-97991971D01*
X148127749Y-98104556D01*
X148138390Y-98112287D01*
X148254607Y-98171503D01*
X148320776Y-98205218D01*
X148320778Y-98205218D01*
X148320781Y-98205220D01*
X148411856Y-98234812D01*
X148515465Y-98268477D01*
X148616557Y-98284488D01*
X148717648Y-98300500D01*
X148717649Y-98300500D01*
X148922351Y-98300500D01*
X148922352Y-98300500D01*
X149124534Y-98268477D01*
X149319219Y-98205220D01*
X149501610Y-98112287D01*
X149630482Y-98018657D01*
X149667213Y-97991971D01*
X149667215Y-97991968D01*
X149667219Y-97991966D01*
X149811966Y-97847219D01*
X149811968Y-97847215D01*
X149811971Y-97847213D01*
X149916892Y-97702799D01*
X149932287Y-97681610D01*
X150025220Y-97499219D01*
X150088477Y-97304534D01*
X150120500Y-97102352D01*
X150120500Y-96897648D01*
X150088477Y-96695466D01*
X150025220Y-96500781D01*
X150025218Y-96500778D01*
X150025218Y-96500776D01*
X149973865Y-96399991D01*
X149932287Y-96318390D01*
X149916892Y-96297200D01*
X149811971Y-96152786D01*
X149667213Y-96008028D01*
X149501613Y-95887715D01*
X149501612Y-95887714D01*
X149501610Y-95887713D01*
X149441898Y-95857288D01*
X149319223Y-95794781D01*
X149124534Y-95731522D01*
X148949995Y-95703878D01*
X148922352Y-95699500D01*
X148717648Y-95699500D01*
X148693329Y-95703351D01*
X148515465Y-95731522D01*
X148320776Y-95794781D01*
X148138386Y-95887715D01*
X147972786Y-96008028D01*
X147828028Y-96152786D01*
X147707715Y-96318386D01*
X147614781Y-96500776D01*
X147551522Y-96695465D01*
X147519500Y-96897648D01*
X142500499Y-96897648D01*
X142500499Y-96399992D01*
X142489999Y-96297203D01*
X142434814Y-96130666D01*
X142342712Y-95981344D01*
X142218656Y-95857288D01*
X142069334Y-95765186D01*
X141902797Y-95710001D01*
X141902795Y-95710000D01*
X141800010Y-95699500D01*
X140599998Y-95699500D01*
X140599981Y-95699501D01*
X140497203Y-95710000D01*
X140497200Y-95710001D01*
X140330668Y-95765185D01*
X140330663Y-95765187D01*
X140181342Y-95857289D01*
X140057289Y-95981342D01*
X139965187Y-96130663D01*
X139965186Y-96130666D01*
X139910001Y-96297203D01*
X139910001Y-96297204D01*
X139910000Y-96297204D01*
X139899500Y-96399983D01*
X138200500Y-96399983D01*
X138200500Y-81960119D01*
X138200499Y-81960116D01*
X138169976Y-81886426D01*
X138113574Y-81830024D01*
X138091361Y-81820823D01*
X138039883Y-81799500D01*
X138039882Y-81799500D01*
X138002125Y-81799500D01*
X137997893Y-81799428D01*
X137955308Y-81797973D01*
X137471973Y-81781462D01*
X137463526Y-81780884D01*
X136942180Y-81727288D01*
X136933792Y-81726135D01*
X136417314Y-81637084D01*
X136409024Y-81635361D01*
X135899840Y-81511277D01*
X135891687Y-81508993D01*
X135392148Y-81350446D01*
X135384170Y-81347611D01*
X134896602Y-81155340D01*
X134888836Y-81151966D01*
X134415554Y-80926883D01*
X134408036Y-80922988D01*
X133951198Y-80666120D01*
X133943964Y-80661721D01*
X133505719Y-80374277D01*
X133498802Y-80369394D01*
X133430035Y-80317246D01*
X133081191Y-80052709D01*
X133074640Y-80047379D01*
X132679621Y-79702940D01*
X132673433Y-79697161D01*
X132302838Y-79326566D01*
X132297073Y-79320394D01*
X131952618Y-78925356D01*
X131947293Y-78918811D01*
X131630599Y-78501189D01*
X131625722Y-78494280D01*
X131564211Y-78400499D01*
X131338278Y-78056035D01*
X131333879Y-78048801D01*
X131272277Y-77939242D01*
X131077004Y-77591950D01*
X131073123Y-77584458D01*
X130848029Y-77111153D01*
X130844659Y-77103397D01*
X130652388Y-76615829D01*
X130649553Y-76607851D01*
X130575707Y-76375182D01*
X130491000Y-76108293D01*
X130488727Y-76100179D01*
X130364637Y-75590974D01*
X130362915Y-75582685D01*
X130358355Y-75556239D01*
X130273860Y-75066182D01*
X130272714Y-75057844D01*
X130219114Y-74536460D01*
X130218537Y-74528025D01*
X130216951Y-74481585D01*
X130210315Y-74287336D01*
X130227700Y-74219666D01*
X130278911Y-74172135D01*
X130347689Y-74159836D01*
X130412199Y-74186674D01*
X130421924Y-74195424D01*
X134425966Y-78199466D01*
X134460326Y-78222423D01*
X134485040Y-78238936D01*
X134573453Y-78298013D01*
X134655393Y-78331953D01*
X134661480Y-78334474D01*
X134661485Y-78334477D01*
X134697940Y-78349577D01*
X134737334Y-78365895D01*
X134911303Y-78400499D01*
X134911307Y-78400500D01*
X134911308Y-78400500D01*
X137588693Y-78400500D01*
X137588694Y-78400499D01*
X137762666Y-78365895D01*
X137844606Y-78331953D01*
X137926547Y-78298013D01*
X138014959Y-78238936D01*
X138074036Y-78199464D01*
X138480688Y-77792812D01*
X138836680Y-77436819D01*
X138898003Y-77403334D01*
X138924361Y-77400500D01*
X140437638Y-77400500D01*
X140504677Y-77420185D01*
X140525319Y-77436819D01*
X140673681Y-77585181D01*
X140707166Y-77646504D01*
X140710000Y-77672862D01*
X140710000Y-78566988D01*
X140652993Y-78534075D01*
X140525826Y-78500000D01*
X140394174Y-78500000D01*
X140267007Y-78534075D01*
X140210000Y-78566988D01*
X140210000Y-77650000D01*
X139562155Y-77650000D01*
X139502627Y-77656401D01*
X139502620Y-77656403D01*
X139367913Y-77706645D01*
X139367906Y-77706649D01*
X139252812Y-77792809D01*
X139252809Y-77792812D01*
X139166649Y-77907906D01*
X139166645Y-77907913D01*
X139116403Y-78042620D01*
X139116401Y-78042627D01*
X139110000Y-78102155D01*
X139110000Y-78750000D01*
X140026988Y-78750000D01*
X139994075Y-78807007D01*
X139960000Y-78934174D01*
X139960000Y-79065826D01*
X139994075Y-79192993D01*
X140026988Y-79250000D01*
X139110000Y-79250000D01*
X139110000Y-79897844D01*
X139116401Y-79957372D01*
X139116403Y-79957379D01*
X139166645Y-80092086D01*
X139166649Y-80092093D01*
X139252809Y-80207187D01*
X139252812Y-80207190D01*
X139367906Y-80293350D01*
X139367913Y-80293354D01*
X139502620Y-80343596D01*
X139502627Y-80343598D01*
X139562155Y-80349999D01*
X139562172Y-80350000D01*
X140210000Y-80350000D01*
X140210000Y-79433012D01*
X140267007Y-79465925D01*
X140394174Y-79500000D01*
X140525826Y-79500000D01*
X140652993Y-79465925D01*
X140710000Y-79433012D01*
X140710000Y-80350000D01*
X141357828Y-80350000D01*
X141357844Y-80349999D01*
X141417372Y-80343598D01*
X141417379Y-80343596D01*
X141552086Y-80293354D01*
X141552093Y-80293350D01*
X141667187Y-80207190D01*
X141667190Y-80207187D01*
X141753350Y-80092093D01*
X141753354Y-80092086D01*
X141802422Y-79960529D01*
X141844293Y-79904595D01*
X141909757Y-79880178D01*
X141978030Y-79895030D01*
X142006285Y-79916181D01*
X142120213Y-80030109D01*
X142292179Y-80155048D01*
X142292181Y-80155049D01*
X142292184Y-80155051D01*
X142481588Y-80251557D01*
X142683757Y-80317246D01*
X142893713Y-80350500D01*
X142893714Y-80350500D01*
X143106286Y-80350500D01*
X143106287Y-80350500D01*
X143316243Y-80317246D01*
X143518412Y-80251557D01*
X143707816Y-80155051D01*
X143794471Y-80092093D01*
X143879786Y-80030109D01*
X143879788Y-80030106D01*
X143879792Y-80030104D01*
X143973077Y-79936819D01*
X144034400Y-79903334D01*
X144060758Y-79900500D01*
X153088693Y-79900500D01*
X153088694Y-79900499D01*
X153262666Y-79865895D01*
X153344606Y-79831953D01*
X153426547Y-79798013D01*
X153514959Y-79738936D01*
X153574036Y-79699464D01*
X161536681Y-71736819D01*
X161598004Y-71703334D01*
X161624362Y-71700500D01*
X173715202Y-71700500D01*
X173782241Y-71720185D01*
X173820739Y-71759401D01*
X173857288Y-71818656D01*
X173981344Y-71942712D01*
X174130666Y-72034814D01*
X174297203Y-72089999D01*
X174399991Y-72100500D01*
X175600008Y-72100499D01*
X175702797Y-72089999D01*
X175869334Y-72034814D01*
X176018656Y-71942712D01*
X176142712Y-71818656D01*
X176234814Y-71669334D01*
X176289999Y-71502797D01*
X176300500Y-71400009D01*
X176300499Y-70199992D01*
X176298237Y-70177853D01*
X176289999Y-70097203D01*
X176289998Y-70097200D01*
X176275588Y-70053713D01*
X176234814Y-69930666D01*
X176142712Y-69781344D01*
X176018656Y-69657288D01*
X175869334Y-69565186D01*
X175702797Y-69510001D01*
X175702795Y-69510000D01*
X175600010Y-69499500D01*
X174399998Y-69499500D01*
X174399981Y-69499501D01*
X174297203Y-69510000D01*
X174297200Y-69510001D01*
X174130668Y-69565185D01*
X174130663Y-69565187D01*
X173981342Y-69657289D01*
X173857289Y-69781342D01*
X173857288Y-69781344D01*
X173828490Y-69828034D01*
X173820741Y-69840597D01*
X173768793Y-69887321D01*
X173715202Y-69899500D01*
X161111303Y-69899500D01*
X160937341Y-69934103D01*
X160937329Y-69934106D01*
X160855392Y-69968045D01*
X160855393Y-69968046D01*
X160773455Y-70001985D01*
X160696040Y-70053713D01*
X160696039Y-70053714D01*
X160625961Y-70100537D01*
X160625960Y-70100538D01*
X152663319Y-78063181D01*
X152601996Y-78096666D01*
X152575638Y-78099500D01*
X144060758Y-78099500D01*
X144031317Y-78090855D01*
X144001331Y-78084332D01*
X143996315Y-78080577D01*
X143993719Y-78079815D01*
X143973077Y-78063181D01*
X143936819Y-78026923D01*
X143903334Y-77965600D01*
X143900500Y-77939242D01*
X143900500Y-61424361D01*
X143920185Y-61357322D01*
X143936819Y-61336680D01*
X146411364Y-58862135D01*
X151649500Y-58862135D01*
X151649500Y-60657870D01*
X151649501Y-60657876D01*
X151655908Y-60717483D01*
X151706202Y-60852328D01*
X151706206Y-60852335D01*
X151792452Y-60967544D01*
X151792455Y-60967547D01*
X151907664Y-61053793D01*
X151907671Y-61053797D01*
X151952618Y-61070561D01*
X152042517Y-61104091D01*
X152102127Y-61110500D01*
X152112685Y-61110499D01*
X152179723Y-61130179D01*
X152200372Y-61146818D01*
X152870591Y-61817037D01*
X152807007Y-61834075D01*
X152692993Y-61899901D01*
X152599901Y-61992993D01*
X152534075Y-62107007D01*
X152517037Y-62170591D01*
X151884728Y-61538282D01*
X151884727Y-61538282D01*
X151845380Y-61592439D01*
X151748904Y-61781782D01*
X151683242Y-61983869D01*
X151683242Y-61983872D01*
X151650000Y-62193753D01*
X151650000Y-62406246D01*
X151683242Y-62616127D01*
X151683242Y-62616130D01*
X151748904Y-62818217D01*
X151845375Y-63007550D01*
X151884728Y-63061716D01*
X152517037Y-62429408D01*
X152534075Y-62492993D01*
X152599901Y-62607007D01*
X152692993Y-62700099D01*
X152807007Y-62765925D01*
X152870590Y-62782962D01*
X152238282Y-63415269D01*
X152238282Y-63415270D01*
X152292452Y-63454626D01*
X152292451Y-63454626D01*
X152301495Y-63459234D01*
X152352292Y-63507208D01*
X152369087Y-63575029D01*
X152346550Y-63641164D01*
X152301499Y-63680202D01*
X152292182Y-63684949D01*
X152120213Y-63809890D01*
X151969890Y-63960213D01*
X151844951Y-64132179D01*
X151748444Y-64321585D01*
X151682753Y-64523760D01*
X151649500Y-64733713D01*
X151649500Y-64946286D01*
X151682753Y-65156239D01*
X151682753Y-65156241D01*
X151682754Y-65156243D01*
X151746916Y-65353713D01*
X151748444Y-65358414D01*
X151844951Y-65547820D01*
X151969890Y-65719786D01*
X152120213Y-65870109D01*
X152292182Y-65995050D01*
X152300946Y-65999516D01*
X152351742Y-66047491D01*
X152368536Y-66115312D01*
X152345998Y-66181447D01*
X152300946Y-66220484D01*
X152292182Y-66224949D01*
X152120213Y-66349890D01*
X151969890Y-66500213D01*
X151844951Y-66672179D01*
X151748444Y-66861585D01*
X151682753Y-67063760D01*
X151649500Y-67273713D01*
X151649500Y-67486287D01*
X151682754Y-67696243D01*
X151746916Y-67893713D01*
X151748444Y-67898414D01*
X151844951Y-68087820D01*
X151969890Y-68259786D01*
X152120213Y-68410109D01*
X152292182Y-68535050D01*
X152300946Y-68539516D01*
X152351742Y-68587491D01*
X152368536Y-68655312D01*
X152345998Y-68721447D01*
X152300946Y-68760484D01*
X152292182Y-68764949D01*
X152120213Y-68889890D01*
X151969890Y-69040213D01*
X151844951Y-69212179D01*
X151748444Y-69401585D01*
X151682753Y-69603760D01*
X151649500Y-69813713D01*
X151649500Y-70026286D01*
X151677111Y-70200618D01*
X151682754Y-70236243D01*
X151734545Y-70395640D01*
X151748444Y-70438414D01*
X151844951Y-70627820D01*
X151969890Y-70799786D01*
X152120213Y-70950109D01*
X152292182Y-71075050D01*
X152300946Y-71079516D01*
X152351742Y-71127491D01*
X152368536Y-71195312D01*
X152345998Y-71261447D01*
X152300946Y-71300484D01*
X152292182Y-71304949D01*
X152120213Y-71429890D01*
X151969890Y-71580213D01*
X151844951Y-71752179D01*
X151748444Y-71941585D01*
X151682753Y-72143760D01*
X151649500Y-72353713D01*
X151649500Y-72566286D01*
X151682753Y-72776239D01*
X151748444Y-72978414D01*
X151844951Y-73167820D01*
X151969890Y-73339786D01*
X152120213Y-73490109D01*
X152292182Y-73615050D01*
X152300946Y-73619516D01*
X152351742Y-73667491D01*
X152368536Y-73735312D01*
X152345998Y-73801447D01*
X152300946Y-73840484D01*
X152292182Y-73844949D01*
X152120213Y-73969890D01*
X151969890Y-74120213D01*
X151844951Y-74292179D01*
X151748444Y-74481585D01*
X151682753Y-74683760D01*
X151649500Y-74893713D01*
X151649500Y-75106286D01*
X151682753Y-75316239D01*
X151748444Y-75518414D01*
X151844951Y-75707820D01*
X151969890Y-75879786D01*
X152120213Y-76030109D01*
X152292179Y-76155048D01*
X152292181Y-76155049D01*
X152292184Y-76155051D01*
X152481588Y-76251557D01*
X152683757Y-76317246D01*
X152893713Y-76350500D01*
X152893714Y-76350500D01*
X153106286Y-76350500D01*
X153106287Y-76350500D01*
X153316243Y-76317246D01*
X153518412Y-76251557D01*
X153707816Y-76155051D01*
X153756346Y-76119792D01*
X153879786Y-76030109D01*
X153879788Y-76030106D01*
X153879792Y-76030104D01*
X154030104Y-75879792D01*
X154030106Y-75879788D01*
X154030109Y-75879786D01*
X154155048Y-75707820D01*
X154155047Y-75707820D01*
X154155051Y-75707816D01*
X154251557Y-75518412D01*
X154317246Y-75316243D01*
X154350500Y-75106287D01*
X154350500Y-74893713D01*
X154317246Y-74683757D01*
X154251557Y-74481588D01*
X154155051Y-74292184D01*
X154155049Y-74292181D01*
X154155048Y-74292179D01*
X154030109Y-74120213D01*
X153879786Y-73969890D01*
X153707820Y-73844951D01*
X153707115Y-73844591D01*
X153699054Y-73840485D01*
X153648259Y-73792512D01*
X153631463Y-73724692D01*
X153653999Y-73658556D01*
X153699054Y-73619515D01*
X153707816Y-73615051D01*
X153756346Y-73579792D01*
X153879786Y-73490109D01*
X153879788Y-73490106D01*
X153879792Y-73490104D01*
X154030104Y-73339792D01*
X154030106Y-73339788D01*
X154030109Y-73339786D01*
X154155048Y-73167820D01*
X154155047Y-73167820D01*
X154155051Y-73167816D01*
X154251557Y-72978412D01*
X154317246Y-72776243D01*
X154350500Y-72566287D01*
X154350500Y-72353713D01*
X154317246Y-72143757D01*
X154251557Y-71941588D01*
X154155051Y-71752184D01*
X154155049Y-71752181D01*
X154155048Y-71752179D01*
X154030109Y-71580213D01*
X153879786Y-71429890D01*
X153707820Y-71304951D01*
X153707115Y-71304591D01*
X153699054Y-71300485D01*
X153648259Y-71252512D01*
X153631463Y-71184692D01*
X153653999Y-71118556D01*
X153699054Y-71079515D01*
X153707816Y-71075051D01*
X153756346Y-71039792D01*
X153879786Y-70950109D01*
X153879788Y-70950106D01*
X153879792Y-70950104D01*
X154030104Y-70799792D01*
X154030106Y-70799788D01*
X154030109Y-70799786D01*
X154155048Y-70627820D01*
X154155047Y-70627820D01*
X154155051Y-70627816D01*
X154251557Y-70438412D01*
X154317246Y-70236243D01*
X154350500Y-70026287D01*
X154350500Y-69813713D01*
X154317246Y-69603757D01*
X154251557Y-69401588D01*
X154155051Y-69212184D01*
X154155049Y-69212181D01*
X154155048Y-69212179D01*
X154030109Y-69040213D01*
X153879786Y-68889890D01*
X153707820Y-68764951D01*
X153707115Y-68764591D01*
X153699054Y-68760485D01*
X153648259Y-68712512D01*
X153631463Y-68644692D01*
X153653999Y-68578556D01*
X153699054Y-68539515D01*
X153707816Y-68535051D01*
X153756346Y-68499792D01*
X153879786Y-68410109D01*
X153879788Y-68410106D01*
X153879792Y-68410104D01*
X154030104Y-68259792D01*
X154030106Y-68259788D01*
X154030109Y-68259786D01*
X154155048Y-68087820D01*
X154155047Y-68087820D01*
X154155051Y-68087816D01*
X154251557Y-67898412D01*
X154317246Y-67696243D01*
X154350500Y-67486287D01*
X154350500Y-67273713D01*
X154317246Y-67063757D01*
X154251557Y-66861588D01*
X154155051Y-66672184D01*
X154155049Y-66672181D01*
X154155048Y-66672179D01*
X154030109Y-66500213D01*
X153879786Y-66349890D01*
X153707820Y-66224951D01*
X153707115Y-66224591D01*
X153699054Y-66220485D01*
X153648259Y-66172512D01*
X153631463Y-66104692D01*
X153653999Y-66038556D01*
X153699054Y-65999515D01*
X153707816Y-65995051D01*
X153756346Y-65959792D01*
X153879786Y-65870109D01*
X153879788Y-65870106D01*
X153879792Y-65870104D01*
X154030104Y-65719792D01*
X154030106Y-65719788D01*
X154030109Y-65719786D01*
X154155048Y-65547820D01*
X154155047Y-65547820D01*
X154155051Y-65547816D01*
X154251557Y-65358412D01*
X154253084Y-65353713D01*
X155569500Y-65353713D01*
X155569500Y-65566287D01*
X155579534Y-65629644D01*
X155602606Y-65775312D01*
X155602754Y-65776243D01*
X155659503Y-65950899D01*
X155668444Y-65978414D01*
X155764951Y-66167820D01*
X155889890Y-66339786D01*
X156040213Y-66490109D01*
X156212182Y-66615050D01*
X156220946Y-66619516D01*
X156271742Y-66667491D01*
X156288536Y-66735312D01*
X156265998Y-66801447D01*
X156220946Y-66840484D01*
X156212182Y-66844949D01*
X156040213Y-66969890D01*
X155889890Y-67120213D01*
X155764951Y-67292179D01*
X155668444Y-67481585D01*
X155602753Y-67683760D01*
X155592608Y-67747816D01*
X155569500Y-67893713D01*
X155569500Y-68106287D01*
X155578695Y-68164341D01*
X155597996Y-68286206D01*
X155602754Y-68316243D01*
X155658452Y-68487664D01*
X155668444Y-68518414D01*
X155764951Y-68707820D01*
X155889890Y-68879786D01*
X156040213Y-69030109D01*
X156212179Y-69155048D01*
X156212181Y-69155049D01*
X156212184Y-69155051D01*
X156401588Y-69251557D01*
X156603757Y-69317246D01*
X156813713Y-69350500D01*
X156813714Y-69350500D01*
X157026286Y-69350500D01*
X157026287Y-69350500D01*
X157236243Y-69317246D01*
X157438412Y-69251557D01*
X157627816Y-69155051D01*
X157736839Y-69075842D01*
X157799786Y-69030109D01*
X157799788Y-69030106D01*
X157799792Y-69030104D01*
X157950104Y-68879792D01*
X157950106Y-68879788D01*
X157950109Y-68879786D01*
X158075048Y-68707820D01*
X158075047Y-68707820D01*
X158075051Y-68707816D01*
X158079514Y-68699054D01*
X158127488Y-68648259D01*
X158195308Y-68631463D01*
X158261444Y-68653999D01*
X158300486Y-68699056D01*
X158304951Y-68707820D01*
X158429890Y-68879786D01*
X158580213Y-69030109D01*
X158752179Y-69155048D01*
X158752181Y-69155049D01*
X158752184Y-69155051D01*
X158941588Y-69251557D01*
X159143757Y-69317246D01*
X159353713Y-69350500D01*
X159353714Y-69350500D01*
X159566286Y-69350500D01*
X159566287Y-69350500D01*
X159776243Y-69317246D01*
X159978412Y-69251557D01*
X160167816Y-69155051D01*
X160276839Y-69075842D01*
X160339786Y-69030109D01*
X160339788Y-69030106D01*
X160339792Y-69030104D01*
X160490104Y-68879792D01*
X160490106Y-68879788D01*
X160490109Y-68879786D01*
X160615048Y-68707820D01*
X160615047Y-68707820D01*
X160615051Y-68707816D01*
X160619514Y-68699054D01*
X160667488Y-68648259D01*
X160735308Y-68631463D01*
X160801444Y-68653999D01*
X160840486Y-68699056D01*
X160844951Y-68707820D01*
X160969890Y-68879786D01*
X161120213Y-69030109D01*
X161292179Y-69155048D01*
X161292181Y-69155049D01*
X161292184Y-69155051D01*
X161481588Y-69251557D01*
X161683757Y-69317246D01*
X161893713Y-69350500D01*
X161893714Y-69350500D01*
X162106286Y-69350500D01*
X162106287Y-69350500D01*
X162316243Y-69317246D01*
X162518412Y-69251557D01*
X162707816Y-69155051D01*
X162816839Y-69075842D01*
X162879786Y-69030109D01*
X162879788Y-69030106D01*
X162879792Y-69030104D01*
X163030104Y-68879792D01*
X163030106Y-68879788D01*
X163030109Y-68879786D01*
X163155048Y-68707820D01*
X163155047Y-68707820D01*
X163155051Y-68707816D01*
X163251557Y-68518412D01*
X163317246Y-68316243D01*
X163350500Y-68106287D01*
X163350500Y-67893713D01*
X163317246Y-67683757D01*
X163251557Y-67481588D01*
X163155051Y-67292184D01*
X163155049Y-67292181D01*
X163155048Y-67292179D01*
X163030109Y-67120213D01*
X162916569Y-67006673D01*
X162902583Y-66981060D01*
X162886188Y-66956906D01*
X162886033Y-66950751D01*
X162883084Y-66945350D01*
X162885166Y-66916235D01*
X162884433Y-66887058D01*
X162887628Y-66881799D01*
X162888068Y-66875658D01*
X162905561Y-66852290D01*
X162920718Y-66827349D01*
X162927190Y-66823398D01*
X162929940Y-66819725D01*
X162932423Y-66818209D01*
X179299500Y-66818209D01*
X179299500Y-67181790D01*
X179335137Y-67543630D01*
X179406064Y-67900212D01*
X179406067Y-67900223D01*
X179511614Y-68248165D01*
X179650754Y-68584078D01*
X179650756Y-68584083D01*
X179822140Y-68904720D01*
X179822151Y-68904738D01*
X180024140Y-69207035D01*
X180024150Y-69207049D01*
X180254807Y-69488106D01*
X180511893Y-69745192D01*
X180511898Y-69745196D01*
X180511899Y-69745197D01*
X180792956Y-69975854D01*
X181095268Y-70177853D01*
X181095277Y-70177858D01*
X181095279Y-70177859D01*
X181415916Y-70349243D01*
X181415918Y-70349243D01*
X181415924Y-70349247D01*
X181751836Y-70488386D01*
X182099767Y-70593930D01*
X182099773Y-70593931D01*
X182099776Y-70593932D01*
X182099787Y-70593935D01*
X182456369Y-70664862D01*
X182818206Y-70700500D01*
X182818209Y-70700500D01*
X183181791Y-70700500D01*
X183181794Y-70700500D01*
X183543631Y-70664862D01*
X183613045Y-70651054D01*
X183900212Y-70593935D01*
X183900223Y-70593932D01*
X183900223Y-70593931D01*
X183900233Y-70593930D01*
X184248164Y-70488386D01*
X184584076Y-70349247D01*
X184904732Y-70177853D01*
X185207044Y-69975854D01*
X185488101Y-69745197D01*
X185745197Y-69488101D01*
X185975854Y-69207044D01*
X186177853Y-68904732D01*
X186349247Y-68584076D01*
X186488386Y-68248164D01*
X186593930Y-67900233D01*
X186593932Y-67900223D01*
X186593935Y-67900212D01*
X186651054Y-67613045D01*
X186664862Y-67543631D01*
X186700500Y-67181794D01*
X186700500Y-66818206D01*
X186664862Y-66456369D01*
X186656138Y-66412512D01*
X186593935Y-66099787D01*
X186593932Y-66099776D01*
X186593931Y-66099773D01*
X186593930Y-66099767D01*
X186488386Y-65751836D01*
X186349247Y-65415924D01*
X186338727Y-65396243D01*
X186177859Y-65095279D01*
X186177858Y-65095277D01*
X186177853Y-65095268D01*
X185975854Y-64792956D01*
X185745197Y-64511899D01*
X185745196Y-64511898D01*
X185745192Y-64511893D01*
X185488106Y-64254807D01*
X185207049Y-64024150D01*
X185207048Y-64024149D01*
X185207044Y-64024146D01*
X184904732Y-63822147D01*
X184904727Y-63822144D01*
X184904720Y-63822140D01*
X184584083Y-63650756D01*
X184584078Y-63650754D01*
X184248165Y-63511614D01*
X183900223Y-63406067D01*
X183900212Y-63406064D01*
X183543630Y-63335137D01*
X183271111Y-63308296D01*
X183181794Y-63299500D01*
X182818206Y-63299500D01*
X182735679Y-63307628D01*
X182456369Y-63335137D01*
X182099787Y-63406064D01*
X182099776Y-63406067D01*
X181751834Y-63511614D01*
X181415921Y-63650754D01*
X181415916Y-63650756D01*
X181095279Y-63822140D01*
X181095261Y-63822151D01*
X180792964Y-64024140D01*
X180792950Y-64024150D01*
X180511893Y-64254807D01*
X180254807Y-64511893D01*
X180024150Y-64792950D01*
X180024140Y-64792964D01*
X179822151Y-65095261D01*
X179822140Y-65095279D01*
X179650756Y-65415916D01*
X179650754Y-65415921D01*
X179511614Y-65751834D01*
X179406067Y-66099776D01*
X179406064Y-66099787D01*
X179335137Y-66456369D01*
X179313882Y-66672179D01*
X179300257Y-66810526D01*
X179299500Y-66818209D01*
X162932423Y-66818209D01*
X162949920Y-66807528D01*
X162956826Y-66804161D01*
X162957483Y-66804091D01*
X163092331Y-66753796D01*
X163207546Y-66667546D01*
X163293796Y-66552331D01*
X163344091Y-66417483D01*
X163350500Y-66357873D01*
X163350499Y-64562128D01*
X163344091Y-64502517D01*
X163343338Y-64500499D01*
X163293797Y-64367671D01*
X163293793Y-64367664D01*
X163207547Y-64252455D01*
X163207544Y-64252452D01*
X163092335Y-64166206D01*
X163092328Y-64166202D01*
X162957482Y-64115908D01*
X162957483Y-64115908D01*
X162897883Y-64109501D01*
X162897881Y-64109500D01*
X162897873Y-64109500D01*
X162897864Y-64109500D01*
X161102129Y-64109500D01*
X161102123Y-64109501D01*
X161042516Y-64115908D01*
X160907671Y-64166202D01*
X160907664Y-64166206D01*
X160792455Y-64252452D01*
X160792452Y-64252455D01*
X160706206Y-64367664D01*
X160706203Y-64367669D01*
X160657189Y-64499083D01*
X160615317Y-64555016D01*
X160549853Y-64579433D01*
X160481580Y-64564581D01*
X160453326Y-64543430D01*
X160339786Y-64429890D01*
X160167820Y-64304951D01*
X159978414Y-64208444D01*
X159978413Y-64208443D01*
X159978412Y-64208443D01*
X159776243Y-64142754D01*
X159776241Y-64142753D01*
X159776240Y-64142753D01*
X159614957Y-64117208D01*
X159566287Y-64109500D01*
X159353713Y-64109500D01*
X159305042Y-64117208D01*
X159143760Y-64142753D01*
X158941585Y-64208444D01*
X158752179Y-64304951D01*
X158580213Y-64429890D01*
X158429890Y-64580213D01*
X158304949Y-64752182D01*
X158300484Y-64760946D01*
X158252509Y-64811742D01*
X158184688Y-64828536D01*
X158118553Y-64805998D01*
X158079516Y-64760946D01*
X158075050Y-64752182D01*
X157950109Y-64580213D01*
X157799786Y-64429890D01*
X157627820Y-64304951D01*
X157438414Y-64208444D01*
X157438413Y-64208443D01*
X157438412Y-64208443D01*
X157236243Y-64142754D01*
X157236241Y-64142753D01*
X157236240Y-64142753D01*
X157074957Y-64117208D01*
X157026287Y-64109500D01*
X156813713Y-64109500D01*
X156765042Y-64117208D01*
X156603760Y-64142753D01*
X156401585Y-64208444D01*
X156212179Y-64304951D01*
X156040213Y-64429890D01*
X155889890Y-64580213D01*
X155764951Y-64752179D01*
X155668444Y-64941585D01*
X155602753Y-65143760D01*
X155592608Y-65207816D01*
X155569500Y-65353713D01*
X154253084Y-65353713D01*
X154317246Y-65156243D01*
X154350500Y-64946287D01*
X154350500Y-64733713D01*
X154317246Y-64523757D01*
X154251557Y-64321588D01*
X154155051Y-64132184D01*
X154155049Y-64132181D01*
X154155048Y-64132179D01*
X154030109Y-63960213D01*
X153879786Y-63809890D01*
X153707817Y-63684949D01*
X153698504Y-63680204D01*
X153647707Y-63632230D01*
X153630912Y-63564409D01*
X153653449Y-63498274D01*
X153698507Y-63459232D01*
X153707555Y-63454622D01*
X153761716Y-63415270D01*
X153761717Y-63415270D01*
X153424094Y-63077648D01*
X173699500Y-63077648D01*
X173699500Y-63282351D01*
X173731522Y-63484534D01*
X173794781Y-63679223D01*
X173887715Y-63861613D01*
X174008028Y-64027213D01*
X174152786Y-64171971D01*
X174307749Y-64284556D01*
X174318390Y-64292287D01*
X174431299Y-64349817D01*
X174500776Y-64385218D01*
X174500778Y-64385218D01*
X174500781Y-64385220D01*
X174605137Y-64419127D01*
X174695465Y-64448477D01*
X174796557Y-64464488D01*
X174897648Y-64480500D01*
X174897649Y-64480500D01*
X175102351Y-64480500D01*
X175102352Y-64480500D01*
X175304534Y-64448477D01*
X175499219Y-64385220D01*
X175681610Y-64292287D01*
X175797011Y-64208444D01*
X175847213Y-64171971D01*
X175847215Y-64171968D01*
X175847219Y-64171966D01*
X175991966Y-64027219D01*
X175991968Y-64027215D01*
X175991971Y-64027213D01*
X176069513Y-63920484D01*
X176112287Y-63861610D01*
X176205220Y-63679219D01*
X176268477Y-63484534D01*
X176300500Y-63282352D01*
X176300500Y-63077648D01*
X176268477Y-62875466D01*
X176205220Y-62680781D01*
X176205218Y-62680778D01*
X176205218Y-62680776D01*
X176113381Y-62500538D01*
X176112287Y-62498390D01*
X176065297Y-62433713D01*
X175991971Y-62332786D01*
X175847213Y-62188028D01*
X175681613Y-62067715D01*
X175681612Y-62067714D01*
X175681610Y-62067713D01*
X175591079Y-62021585D01*
X175499223Y-61974781D01*
X175304534Y-61911522D01*
X175129995Y-61883878D01*
X175102352Y-61879500D01*
X174897648Y-61879500D01*
X174873329Y-61883351D01*
X174695465Y-61911522D01*
X174500776Y-61974781D01*
X174318386Y-62067715D01*
X174152786Y-62188028D01*
X174008028Y-62332786D01*
X173887715Y-62498386D01*
X173794781Y-62680776D01*
X173731522Y-62875465D01*
X173699500Y-63077648D01*
X153424094Y-63077648D01*
X153129408Y-62782962D01*
X153192993Y-62765925D01*
X153307007Y-62700099D01*
X153400099Y-62607007D01*
X153465925Y-62492993D01*
X153482962Y-62429408D01*
X154115270Y-63061717D01*
X154115270Y-63061716D01*
X154154621Y-63007555D01*
X154154623Y-63007553D01*
X154251095Y-62818217D01*
X154316757Y-62616130D01*
X154316757Y-62616127D01*
X154350000Y-62406246D01*
X154350000Y-62193753D01*
X154316757Y-61983872D01*
X154316757Y-61983869D01*
X154251095Y-61781782D01*
X154154624Y-61592449D01*
X154115270Y-61538282D01*
X154115269Y-61538282D01*
X153482962Y-62170590D01*
X153465925Y-62107007D01*
X153400099Y-61992993D01*
X153307007Y-61899901D01*
X153192993Y-61834075D01*
X153129409Y-61817037D01*
X153799627Y-61146818D01*
X153860950Y-61113333D01*
X153887307Y-61110499D01*
X153897872Y-61110499D01*
X153957483Y-61104091D01*
X154092331Y-61053796D01*
X154207546Y-60967546D01*
X154293796Y-60852331D01*
X154344091Y-60717483D01*
X154350500Y-60657873D01*
X154350499Y-58862128D01*
X154344091Y-58802517D01*
X154308169Y-58706206D01*
X154293797Y-58667671D01*
X154293793Y-58667664D01*
X154207547Y-58552455D01*
X154207544Y-58552452D01*
X154092335Y-58466206D01*
X154092328Y-58466202D01*
X153957482Y-58415908D01*
X153957483Y-58415908D01*
X153897883Y-58409501D01*
X153897881Y-58409500D01*
X153897873Y-58409500D01*
X153897864Y-58409500D01*
X152102129Y-58409500D01*
X152102123Y-58409501D01*
X152042516Y-58415908D01*
X151907671Y-58466202D01*
X151907664Y-58466206D01*
X151792455Y-58552452D01*
X151792452Y-58552455D01*
X151706206Y-58667664D01*
X151706202Y-58667671D01*
X151655908Y-58802517D01*
X151649501Y-58862116D01*
X151649501Y-58862123D01*
X151649500Y-58862135D01*
X146411364Y-58862135D01*
X149499461Y-55774038D01*
X149499464Y-55774035D01*
X149598013Y-55626547D01*
X149617895Y-55578547D01*
X149665895Y-55462666D01*
X149700500Y-55288691D01*
X149700500Y-55111308D01*
X149700500Y-38284797D01*
X149720185Y-38217758D01*
X149759403Y-38179258D01*
X149818656Y-38142712D01*
X149942712Y-38018656D01*
X150034814Y-37869334D01*
X150089999Y-37702797D01*
X150100500Y-37600009D01*
X150100499Y-36399992D01*
X150089999Y-36297203D01*
X150034814Y-36130666D01*
X149942712Y-35981344D01*
X149818656Y-35857288D01*
X149669334Y-35765186D01*
X149502797Y-35710001D01*
X149502795Y-35710000D01*
X149400010Y-35699500D01*
X148199998Y-35699500D01*
X148199981Y-35699501D01*
X148097203Y-35710000D01*
X148097200Y-35710001D01*
X147930668Y-35765185D01*
X147930663Y-35765187D01*
X147781342Y-35857289D01*
X147657289Y-35981342D01*
X147565187Y-36130663D01*
X147565186Y-36130666D01*
X147510001Y-36297203D01*
X147510001Y-36297204D01*
X147510000Y-36297204D01*
X147499500Y-36399983D01*
X147499500Y-37600001D01*
X147499501Y-37600018D01*
X147510000Y-37702796D01*
X147510001Y-37702799D01*
X147557856Y-37847213D01*
X147565186Y-37869334D01*
X147657288Y-38018656D01*
X147781344Y-38142712D01*
X147840596Y-38179258D01*
X147887321Y-38231204D01*
X147899500Y-38284797D01*
X147899500Y-54775637D01*
X147879815Y-54842676D01*
X147863181Y-54863318D01*
X142300538Y-60425960D01*
X142300537Y-60425961D01*
X142271264Y-60469771D01*
X142271257Y-60469782D01*
X142268497Y-60473914D01*
X142201987Y-60573453D01*
X142171676Y-60646632D01*
X142168923Y-60653276D01*
X142168919Y-60653285D01*
X142134105Y-60737333D01*
X142134103Y-60737341D01*
X142099500Y-60911303D01*
X142099500Y-76164637D01*
X142079815Y-76231676D01*
X142027011Y-76277431D01*
X141957853Y-76287375D01*
X141894297Y-76258350D01*
X141887819Y-76252318D01*
X141436038Y-75800537D01*
X141372991Y-75758411D01*
X141288544Y-75701985D01*
X141288542Y-75701984D01*
X141206607Y-75668046D01*
X141206606Y-75668046D01*
X141124666Y-75634105D01*
X141124658Y-75634103D01*
X140950696Y-75599500D01*
X140950692Y-75599500D01*
X140950691Y-75599500D01*
X138588692Y-75599500D01*
X138411309Y-75599500D01*
X138411304Y-75599500D01*
X138237339Y-75634103D01*
X138237323Y-75634108D01*
X138121453Y-75682102D01*
X138121454Y-75682103D01*
X138073454Y-75701986D01*
X138073453Y-75701987D01*
X137989008Y-75758412D01*
X137989007Y-75758412D01*
X137925969Y-75800532D01*
X137925961Y-75800538D01*
X137163319Y-76563181D01*
X137101996Y-76596666D01*
X137075638Y-76599500D01*
X136808050Y-76599500D01*
X136741011Y-76579815D01*
X136695256Y-76527011D01*
X136685312Y-76457853D01*
X136714337Y-76394297D01*
X136735165Y-76375182D01*
X136879785Y-76270109D01*
X136879783Y-76270109D01*
X136879792Y-76270104D01*
X137030104Y-76119792D01*
X137030106Y-76119788D01*
X137030109Y-76119786D01*
X137155048Y-75947820D01*
X137155047Y-75947820D01*
X137155051Y-75947816D01*
X137251557Y-75758412D01*
X137317246Y-75556243D01*
X137350500Y-75346287D01*
X137350500Y-75133713D01*
X137317246Y-74923757D01*
X137251557Y-74721588D01*
X137155051Y-74532184D01*
X137155049Y-74532181D01*
X137155048Y-74532179D01*
X137030109Y-74360213D01*
X136879786Y-74209890D01*
X136707820Y-74084951D01*
X136707115Y-74084591D01*
X136699054Y-74080485D01*
X136648259Y-74032512D01*
X136631463Y-73964692D01*
X136653999Y-73898556D01*
X136699054Y-73859515D01*
X136707816Y-73855051D01*
X136786323Y-73798013D01*
X136879786Y-73730109D01*
X136879788Y-73730106D01*
X136879792Y-73730104D01*
X137030104Y-73579792D01*
X137030106Y-73579788D01*
X137030109Y-73579786D01*
X137155048Y-73407820D01*
X137155047Y-73407820D01*
X137155051Y-73407816D01*
X137251557Y-73218412D01*
X137317246Y-73016243D01*
X137350500Y-72806287D01*
X137350500Y-72593713D01*
X137317246Y-72383757D01*
X137251557Y-72181588D01*
X137155051Y-71992184D01*
X137155049Y-71992181D01*
X137155048Y-71992179D01*
X137030109Y-71820213D01*
X136879786Y-71669890D01*
X136707820Y-71544951D01*
X136707115Y-71544591D01*
X136699054Y-71540485D01*
X136648259Y-71492512D01*
X136631463Y-71424692D01*
X136653999Y-71358556D01*
X136699054Y-71319515D01*
X136707816Y-71315051D01*
X136781596Y-71261447D01*
X136879786Y-71190109D01*
X136879788Y-71190106D01*
X136879792Y-71190104D01*
X137030104Y-71039792D01*
X137030106Y-71039788D01*
X137030109Y-71039786D01*
X137155048Y-70867820D01*
X137155047Y-70867820D01*
X137155051Y-70867816D01*
X137251557Y-70678412D01*
X137317246Y-70476243D01*
X137350500Y-70266287D01*
X137350500Y-70053713D01*
X137317246Y-69843757D01*
X137251557Y-69641588D01*
X137155051Y-69452184D01*
X137155049Y-69452181D01*
X137155048Y-69452179D01*
X137030109Y-69280213D01*
X136879786Y-69129890D01*
X136707820Y-69004951D01*
X136706322Y-69004188D01*
X136699054Y-69000485D01*
X136648259Y-68952512D01*
X136631463Y-68884692D01*
X136653999Y-68818556D01*
X136699054Y-68779515D01*
X136707816Y-68775051D01*
X136781596Y-68721447D01*
X136879786Y-68650109D01*
X136879788Y-68650106D01*
X136879792Y-68650104D01*
X137030104Y-68499792D01*
X137030106Y-68499788D01*
X137030109Y-68499786D01*
X137155048Y-68327820D01*
X137155047Y-68327820D01*
X137155051Y-68327816D01*
X137251557Y-68138412D01*
X137317246Y-67936243D01*
X137350500Y-67726287D01*
X137350500Y-67513713D01*
X137317246Y-67303757D01*
X137251557Y-67101588D01*
X137155051Y-66912184D01*
X137155049Y-66912181D01*
X137155048Y-66912179D01*
X137030109Y-66740213D01*
X136879786Y-66589890D01*
X136707820Y-66464951D01*
X136707115Y-66464591D01*
X136699054Y-66460485D01*
X136648259Y-66412512D01*
X136631463Y-66344692D01*
X136653999Y-66278556D01*
X136699054Y-66239515D01*
X136707816Y-66235051D01*
X136781596Y-66181447D01*
X136879786Y-66110109D01*
X136879788Y-66110106D01*
X136879792Y-66110104D01*
X137030104Y-65959792D01*
X137030106Y-65959788D01*
X137030109Y-65959786D01*
X137155048Y-65787820D01*
X137155047Y-65787820D01*
X137155051Y-65787816D01*
X137251557Y-65598412D01*
X137317246Y-65396243D01*
X137350500Y-65186287D01*
X137350500Y-64973713D01*
X137317246Y-64763757D01*
X137251557Y-64561588D01*
X137155051Y-64372184D01*
X137155049Y-64372181D01*
X137155048Y-64372179D01*
X137030109Y-64200213D01*
X136879786Y-64049890D01*
X136707820Y-63924951D01*
X136707115Y-63924591D01*
X136699054Y-63920485D01*
X136648259Y-63872512D01*
X136631463Y-63804692D01*
X136653999Y-63738556D01*
X136699054Y-63699515D01*
X136707816Y-63695051D01*
X136768786Y-63650754D01*
X136879786Y-63570109D01*
X136879788Y-63570106D01*
X136879792Y-63570104D01*
X137030104Y-63419792D01*
X137030106Y-63419788D01*
X137030109Y-63419786D01*
X137155048Y-63247820D01*
X137155047Y-63247820D01*
X137155051Y-63247816D01*
X137251557Y-63058412D01*
X137317246Y-62856243D01*
X137350500Y-62646287D01*
X137350500Y-62433713D01*
X137317246Y-62223757D01*
X137251557Y-62021588D01*
X137155051Y-61832184D01*
X137155049Y-61832181D01*
X137155048Y-61832179D01*
X137030109Y-61660213D01*
X136916569Y-61546673D01*
X136883084Y-61485350D01*
X136888068Y-61415658D01*
X136929940Y-61359725D01*
X136960915Y-61342810D01*
X137092331Y-61293796D01*
X137207546Y-61207546D01*
X137293796Y-61092331D01*
X137344091Y-60957483D01*
X137350500Y-60897873D01*
X137350499Y-59102128D01*
X137344091Y-59042517D01*
X137303539Y-58933792D01*
X137293797Y-58907671D01*
X137293793Y-58907664D01*
X137207547Y-58792455D01*
X137207544Y-58792452D01*
X137092335Y-58706206D01*
X137092328Y-58706202D01*
X136957482Y-58655908D01*
X136957483Y-58655908D01*
X136897883Y-58649501D01*
X136897881Y-58649500D01*
X136897873Y-58649500D01*
X136897864Y-58649500D01*
X135102129Y-58649500D01*
X135102123Y-58649501D01*
X135042516Y-58655908D01*
X134907671Y-58706202D01*
X134907664Y-58706206D01*
X134792455Y-58792452D01*
X134792452Y-58792455D01*
X134706206Y-58907664D01*
X134706202Y-58907671D01*
X134655908Y-59042517D01*
X134649501Y-59102116D01*
X134649501Y-59102123D01*
X134649500Y-59102135D01*
X134649500Y-60897870D01*
X134649501Y-60897876D01*
X134655908Y-60957483D01*
X134706202Y-61092328D01*
X134706206Y-61092335D01*
X134792452Y-61207544D01*
X134792455Y-61207547D01*
X134907664Y-61293793D01*
X134907671Y-61293797D01*
X135039082Y-61342810D01*
X135095016Y-61384681D01*
X135119433Y-61450145D01*
X135104582Y-61518418D01*
X135083431Y-61546673D01*
X134969889Y-61660215D01*
X134844951Y-61832179D01*
X134748444Y-62021585D01*
X134682753Y-62223760D01*
X134649500Y-62433713D01*
X134649500Y-62646286D01*
X134668194Y-62764319D01*
X134682754Y-62856243D01*
X134731918Y-63007555D01*
X134748444Y-63058414D01*
X134844951Y-63247820D01*
X134969890Y-63419786D01*
X135120213Y-63570109D01*
X135292182Y-63695050D01*
X135300946Y-63699516D01*
X135351742Y-63747491D01*
X135368536Y-63815312D01*
X135345998Y-63881447D01*
X135300946Y-63920484D01*
X135292182Y-63924949D01*
X135120213Y-64049890D01*
X134969890Y-64200213D01*
X134844951Y-64372179D01*
X134748444Y-64561585D01*
X134682753Y-64763760D01*
X134649500Y-64973713D01*
X134649500Y-65186286D01*
X134676762Y-65358416D01*
X134682754Y-65396243D01*
X134745476Y-65589282D01*
X134748444Y-65598414D01*
X134844951Y-65787820D01*
X134969890Y-65959786D01*
X135120213Y-66110109D01*
X135292182Y-66235050D01*
X135300946Y-66239516D01*
X135351742Y-66287491D01*
X135368536Y-66355312D01*
X135345998Y-66421447D01*
X135300946Y-66460484D01*
X135292182Y-66464949D01*
X135120213Y-66589890D01*
X134969890Y-66740213D01*
X134844951Y-66912179D01*
X134748444Y-67101585D01*
X134682753Y-67303760D01*
X134649500Y-67513713D01*
X134649500Y-67726286D01*
X134677050Y-67900233D01*
X134682754Y-67936243D01*
X134734223Y-68094649D01*
X134748444Y-68138414D01*
X134844951Y-68327820D01*
X134969890Y-68499786D01*
X135120213Y-68650109D01*
X135292182Y-68775050D01*
X135300946Y-68779516D01*
X135351742Y-68827491D01*
X135368536Y-68895312D01*
X135345998Y-68961447D01*
X135300946Y-69000484D01*
X135292182Y-69004949D01*
X135120213Y-69129890D01*
X134969890Y-69280213D01*
X134844951Y-69452179D01*
X134748444Y-69641585D01*
X134682753Y-69843760D01*
X134649500Y-70053713D01*
X134649500Y-70266286D01*
X134671259Y-70403671D01*
X134682754Y-70476243D01*
X134746468Y-70672335D01*
X134748444Y-70678414D01*
X134844951Y-70867820D01*
X134969890Y-71039786D01*
X135120213Y-71190109D01*
X135292182Y-71315050D01*
X135300946Y-71319516D01*
X135351742Y-71367491D01*
X135368536Y-71435312D01*
X135345998Y-71501447D01*
X135300946Y-71540484D01*
X135292182Y-71544949D01*
X135120213Y-71669890D01*
X134969890Y-71820213D01*
X134844951Y-71992179D01*
X134748444Y-72181585D01*
X134682753Y-72383760D01*
X134649500Y-72593713D01*
X134649500Y-72806286D01*
X134662871Y-72890711D01*
X134682754Y-73016243D01*
X134732003Y-73167816D01*
X134748444Y-73218414D01*
X134844951Y-73407820D01*
X134969890Y-73579786D01*
X135120213Y-73730109D01*
X135292182Y-73855050D01*
X135300946Y-73859516D01*
X135351742Y-73907491D01*
X135368536Y-73975312D01*
X135345998Y-74041447D01*
X135300946Y-74080484D01*
X135292182Y-74084949D01*
X135120213Y-74209890D01*
X134969890Y-74360213D01*
X134844951Y-74532179D01*
X134748444Y-74721585D01*
X134682753Y-74923760D01*
X134649500Y-75133713D01*
X134649500Y-75346286D01*
X134682753Y-75556240D01*
X134682754Y-75556244D01*
X134693054Y-75587944D01*
X134695049Y-75657785D01*
X134658968Y-75717618D01*
X134596267Y-75748445D01*
X134526853Y-75740480D01*
X134487442Y-75713942D01*
X131074039Y-72300538D01*
X131074038Y-72300537D01*
X130969150Y-72230454D01*
X130962613Y-72226086D01*
X130926547Y-72201987D01*
X130844606Y-72168046D01*
X130762666Y-72134105D01*
X130762658Y-72134103D01*
X130588696Y-72099500D01*
X130588692Y-72099500D01*
X130588691Y-72099500D01*
X115833095Y-72099500D01*
X115766056Y-72079815D01*
X115720301Y-72027011D01*
X115710357Y-71957853D01*
X115739382Y-71894297D01*
X115760210Y-71875181D01*
X115847219Y-71811966D01*
X115991966Y-71667219D01*
X115991968Y-71667215D01*
X115991971Y-71667213D01*
X116080798Y-71544951D01*
X116112287Y-71501610D01*
X116205220Y-71319219D01*
X116268477Y-71124534D01*
X116300500Y-70922352D01*
X116300500Y-70717648D01*
X116286272Y-70627816D01*
X116268477Y-70515465D01*
X116232153Y-70403671D01*
X116205220Y-70320781D01*
X116205218Y-70320778D01*
X116205218Y-70320776D01*
X116162146Y-70236243D01*
X116112287Y-70138390D01*
X116084786Y-70100538D01*
X115991971Y-69972786D01*
X115847213Y-69828028D01*
X115681613Y-69707715D01*
X115681612Y-69707714D01*
X115681610Y-69707713D01*
X115624653Y-69678691D01*
X115499223Y-69614781D01*
X115304534Y-69551522D01*
X115129995Y-69523878D01*
X115102352Y-69519500D01*
X114897648Y-69519500D01*
X114873329Y-69523351D01*
X114695465Y-69551522D01*
X114500776Y-69614781D01*
X114318386Y-69707715D01*
X114152786Y-69828028D01*
X114008028Y-69972786D01*
X113887715Y-70138386D01*
X113794781Y-70320776D01*
X113731522Y-70515465D01*
X113706677Y-70672335D01*
X113699500Y-70717648D01*
X113699500Y-70922352D01*
X113700790Y-70930498D01*
X113731522Y-71124534D01*
X113794781Y-71319223D01*
X113848521Y-71424692D01*
X113883077Y-71492512D01*
X113887715Y-71501613D01*
X114008028Y-71667213D01*
X114008034Y-71667219D01*
X114152781Y-71811966D01*
X114164132Y-71820213D01*
X114239790Y-71875181D01*
X114259057Y-71900167D01*
X114279699Y-71923989D01*
X114280219Y-71927611D01*
X114282456Y-71930511D01*
X114285154Y-71961931D01*
X114289643Y-71993147D01*
X114288121Y-71996478D01*
X114288435Y-72000125D01*
X114273719Y-72028015D01*
X114260618Y-72056703D01*
X114257538Y-72058682D01*
X114255830Y-72061920D01*
X114228371Y-72077426D01*
X114201840Y-72094477D01*
X114196927Y-72095183D01*
X114194991Y-72096277D01*
X114166905Y-72099500D01*
X113924361Y-72099500D01*
X113857322Y-72079815D01*
X113836680Y-72063181D01*
X113436819Y-71663319D01*
X113403334Y-71601996D01*
X113400500Y-71575638D01*
X113400500Y-64424362D01*
X113420185Y-64357323D01*
X113436819Y-64336681D01*
X113521048Y-64252452D01*
X113631017Y-64142482D01*
X113692338Y-64108999D01*
X113762029Y-64113983D01*
X113817963Y-64155854D01*
X113824232Y-64165064D01*
X113857288Y-64218656D01*
X113981344Y-64342712D01*
X114130666Y-64434814D01*
X114297203Y-64489999D01*
X114399991Y-64500500D01*
X115600008Y-64500499D01*
X115702797Y-64489999D01*
X115869334Y-64434814D01*
X115935970Y-64393713D01*
X130149500Y-64393713D01*
X130149500Y-64606286D01*
X130179065Y-64792956D01*
X130182754Y-64816243D01*
X130233919Y-64973713D01*
X130248444Y-65018414D01*
X130344951Y-65207820D01*
X130469890Y-65379786D01*
X130620213Y-65530109D01*
X130792182Y-65655050D01*
X130800946Y-65659516D01*
X130851742Y-65707491D01*
X130868536Y-65775312D01*
X130845998Y-65841447D01*
X130800946Y-65880484D01*
X130792182Y-65884949D01*
X130620213Y-66009890D01*
X130469890Y-66160213D01*
X130344951Y-66332179D01*
X130248444Y-66521585D01*
X130182753Y-66723760D01*
X130149500Y-66933713D01*
X130149500Y-67146286D01*
X130172607Y-67292182D01*
X130182754Y-67356243D01*
X130243640Y-67543631D01*
X130248444Y-67558414D01*
X130344951Y-67747820D01*
X130469890Y-67919786D01*
X130583430Y-68033326D01*
X130616915Y-68094649D01*
X130611931Y-68164341D01*
X130570059Y-68220274D01*
X130539083Y-68237189D01*
X130407669Y-68286203D01*
X130407664Y-68286206D01*
X130292455Y-68372452D01*
X130292452Y-68372455D01*
X130206206Y-68487664D01*
X130206202Y-68487671D01*
X130155908Y-68622517D01*
X130150971Y-68668443D01*
X130149501Y-68682123D01*
X130149500Y-68682135D01*
X130149500Y-70477870D01*
X130149501Y-70477876D01*
X130155908Y-70537483D01*
X130206202Y-70672328D01*
X130206206Y-70672335D01*
X130292452Y-70787544D01*
X130292455Y-70787547D01*
X130407664Y-70873793D01*
X130407671Y-70873797D01*
X130542517Y-70924091D01*
X130542516Y-70924091D01*
X130549444Y-70924835D01*
X130602127Y-70930500D01*
X132397872Y-70930499D01*
X132457483Y-70924091D01*
X132592331Y-70873796D01*
X132707546Y-70787546D01*
X132793796Y-70672331D01*
X132844091Y-70537483D01*
X132850500Y-70477873D01*
X132850499Y-68682128D01*
X132844091Y-68622517D01*
X132831027Y-68587491D01*
X132793797Y-68487671D01*
X132793793Y-68487664D01*
X132707547Y-68372455D01*
X132707544Y-68372452D01*
X132592335Y-68286206D01*
X132592328Y-68286202D01*
X132460917Y-68237189D01*
X132404983Y-68195318D01*
X132380566Y-68129853D01*
X132395418Y-68061580D01*
X132416563Y-68033332D01*
X132530104Y-67919792D01*
X132544315Y-67900233D01*
X132655048Y-67747820D01*
X132655047Y-67747820D01*
X132655051Y-67747816D01*
X132751557Y-67558412D01*
X132817246Y-67356243D01*
X132850500Y-67146287D01*
X132850500Y-66933713D01*
X132817246Y-66723757D01*
X132751557Y-66521588D01*
X132655051Y-66332184D01*
X132655049Y-66332181D01*
X132655048Y-66332179D01*
X132530109Y-66160213D01*
X132379786Y-66009890D01*
X132207820Y-65884951D01*
X132207115Y-65884591D01*
X132199054Y-65880485D01*
X132148259Y-65832512D01*
X132131463Y-65764692D01*
X132153999Y-65698556D01*
X132199054Y-65659515D01*
X132207816Y-65655051D01*
X132285771Y-65598414D01*
X132379786Y-65530109D01*
X132379788Y-65530106D01*
X132379792Y-65530104D01*
X132530104Y-65379792D01*
X132530106Y-65379788D01*
X132530109Y-65379786D01*
X132655048Y-65207820D01*
X132655047Y-65207820D01*
X132655051Y-65207816D01*
X132751557Y-65018412D01*
X132817246Y-64816243D01*
X132850500Y-64606287D01*
X132850500Y-64393713D01*
X132817246Y-64183757D01*
X132751557Y-63981588D01*
X132655051Y-63792184D01*
X132655049Y-63792181D01*
X132655048Y-63792179D01*
X132530109Y-63620213D01*
X132379786Y-63469890D01*
X132207820Y-63344951D01*
X132018414Y-63248444D01*
X132018413Y-63248443D01*
X132018412Y-63248443D01*
X131816243Y-63182754D01*
X131816241Y-63182753D01*
X131816240Y-63182753D01*
X131654957Y-63157208D01*
X131606287Y-63149500D01*
X131393713Y-63149500D01*
X131345042Y-63157208D01*
X131183760Y-63182753D01*
X130981585Y-63248444D01*
X130792179Y-63344951D01*
X130620213Y-63469890D01*
X130469890Y-63620213D01*
X130344951Y-63792179D01*
X130248444Y-63981585D01*
X130182753Y-64183760D01*
X130149500Y-64393713D01*
X115935970Y-64393713D01*
X116018656Y-64342712D01*
X116142712Y-64218656D01*
X116234814Y-64069334D01*
X116289999Y-63902797D01*
X116300500Y-63800009D01*
X116300499Y-62599992D01*
X116300122Y-62596306D01*
X116289999Y-62497203D01*
X116289998Y-62497200D01*
X116268960Y-62433713D01*
X116234814Y-62330666D01*
X116142712Y-62181344D01*
X116018656Y-62057288D01*
X115884890Y-61974781D01*
X115869336Y-61965187D01*
X115869331Y-61965185D01*
X115867862Y-61964698D01*
X115702797Y-61910001D01*
X115702795Y-61910000D01*
X115600010Y-61899500D01*
X114399998Y-61899500D01*
X114399981Y-61899501D01*
X114297203Y-61910000D01*
X114297200Y-61910001D01*
X114130668Y-61965185D01*
X114130663Y-61965187D01*
X113981342Y-62057289D01*
X113857289Y-62181342D01*
X113849634Y-62193753D01*
X113824703Y-62234174D01*
X113820741Y-62240597D01*
X113768793Y-62287321D01*
X113715202Y-62299500D01*
X113211303Y-62299500D01*
X113037341Y-62334103D01*
X113037333Y-62334105D01*
X112873455Y-62401985D01*
X112873446Y-62401990D01*
X112725964Y-62500535D01*
X112725960Y-62500538D01*
X111800540Y-63425958D01*
X111800534Y-63425965D01*
X111777885Y-63459862D01*
X111777872Y-63459882D01*
X111776013Y-63462666D01*
X111701987Y-63573453D01*
X111685454Y-63613368D01*
X111682071Y-63621534D01*
X111682071Y-63621535D01*
X111634105Y-63737333D01*
X111634103Y-63737341D01*
X111605833Y-63879462D01*
X111605834Y-63879463D01*
X111599500Y-63911308D01*
X111599500Y-72088696D01*
X111634103Y-72262658D01*
X111634105Y-72262666D01*
X111668046Y-72344606D01*
X111668046Y-72344607D01*
X111701984Y-72426542D01*
X111701985Y-72426544D01*
X111761063Y-72514960D01*
X111800537Y-72574038D01*
X111800540Y-72574041D01*
X112800536Y-73574035D01*
X112814320Y-73587819D01*
X112847805Y-73649142D01*
X112842821Y-73718834D01*
X112800949Y-73774767D01*
X112735485Y-73799184D01*
X112726639Y-73799500D01*
X107002312Y-73799500D01*
X106997675Y-73799413D01*
X106496509Y-73780660D01*
X106487262Y-73779967D01*
X105991197Y-73724074D01*
X105982028Y-73722692D01*
X105491535Y-73629885D01*
X105482495Y-73627822D01*
X105000297Y-73498618D01*
X104991435Y-73495885D01*
X104520241Y-73331007D01*
X104511609Y-73327619D01*
X104054050Y-73127988D01*
X104045696Y-73123964D01*
X103604359Y-72890711D01*
X103596328Y-72886075D01*
X103173632Y-72620478D01*
X103165970Y-72615254D01*
X102811595Y-72353713D01*
X102764315Y-72318819D01*
X102757069Y-72313040D01*
X102378672Y-71987403D01*
X102371875Y-71981096D01*
X102018903Y-71628124D01*
X102012596Y-71621327D01*
X101686959Y-71242930D01*
X101681177Y-71235680D01*
X101661075Y-71208443D01*
X101384745Y-70834029D01*
X101379521Y-70826367D01*
X101113924Y-70403671D01*
X101109288Y-70395640D01*
X100876035Y-69954303D01*
X100872011Y-69945949D01*
X100672380Y-69488390D01*
X100668992Y-69479758D01*
X100504112Y-69008558D01*
X100501381Y-68999702D01*
X100372177Y-68517504D01*
X100370114Y-68508464D01*
X100328060Y-68286203D01*
X100277305Y-68017960D01*
X100275925Y-68008802D01*
X100267749Y-67936239D01*
X100220031Y-67512725D01*
X100219339Y-67503490D01*
X100200673Y-67004623D01*
X100200673Y-66995364D01*
X100207302Y-66818209D01*
X103299500Y-66818209D01*
X103299500Y-67181790D01*
X103335137Y-67543630D01*
X103406064Y-67900212D01*
X103406067Y-67900223D01*
X103511614Y-68248165D01*
X103650754Y-68584078D01*
X103650756Y-68584083D01*
X103822140Y-68904720D01*
X103822151Y-68904738D01*
X104024140Y-69207035D01*
X104024150Y-69207049D01*
X104254807Y-69488106D01*
X104511893Y-69745192D01*
X104511898Y-69745196D01*
X104511899Y-69745197D01*
X104792956Y-69975854D01*
X105095268Y-70177853D01*
X105095277Y-70177858D01*
X105095279Y-70177859D01*
X105415916Y-70349243D01*
X105415918Y-70349243D01*
X105415924Y-70349247D01*
X105751836Y-70488386D01*
X106099767Y-70593930D01*
X106099773Y-70593931D01*
X106099776Y-70593932D01*
X106099787Y-70593935D01*
X106456369Y-70664862D01*
X106818206Y-70700500D01*
X106818209Y-70700500D01*
X107181791Y-70700500D01*
X107181794Y-70700500D01*
X107543631Y-70664862D01*
X107613045Y-70651054D01*
X107900212Y-70593935D01*
X107900223Y-70593932D01*
X107900223Y-70593931D01*
X107900233Y-70593930D01*
X108248164Y-70488386D01*
X108584076Y-70349247D01*
X108904732Y-70177853D01*
X109207044Y-69975854D01*
X109488101Y-69745197D01*
X109745197Y-69488101D01*
X109975854Y-69207044D01*
X110177853Y-68904732D01*
X110349247Y-68584076D01*
X110488386Y-68248164D01*
X110593930Y-67900233D01*
X110593932Y-67900223D01*
X110593935Y-67900212D01*
X110651054Y-67613045D01*
X110664862Y-67543631D01*
X110700500Y-67181794D01*
X110700500Y-66818206D01*
X110664862Y-66456369D01*
X110656138Y-66412512D01*
X110593935Y-66099787D01*
X110593932Y-66099776D01*
X110593931Y-66099773D01*
X110593930Y-66099767D01*
X110488386Y-65751836D01*
X110349247Y-65415924D01*
X110338727Y-65396243D01*
X110177859Y-65095279D01*
X110177858Y-65095277D01*
X110177853Y-65095268D01*
X109975854Y-64792956D01*
X109745197Y-64511899D01*
X109745196Y-64511898D01*
X109745192Y-64511893D01*
X109488106Y-64254807D01*
X109207049Y-64024150D01*
X109207048Y-64024149D01*
X109207044Y-64024146D01*
X108904732Y-63822147D01*
X108904727Y-63822144D01*
X108904720Y-63822140D01*
X108584083Y-63650756D01*
X108584078Y-63650754D01*
X108248165Y-63511614D01*
X107900223Y-63406067D01*
X107900212Y-63406064D01*
X107543630Y-63335137D01*
X107271111Y-63308296D01*
X107181794Y-63299500D01*
X106818206Y-63299500D01*
X106735679Y-63307628D01*
X106456369Y-63335137D01*
X106099787Y-63406064D01*
X106099776Y-63406067D01*
X105751834Y-63511614D01*
X105415921Y-63650754D01*
X105415916Y-63650756D01*
X105095279Y-63822140D01*
X105095261Y-63822151D01*
X104792964Y-64024140D01*
X104792950Y-64024150D01*
X104511893Y-64254807D01*
X104254807Y-64511893D01*
X104024150Y-64792950D01*
X104024140Y-64792964D01*
X103822151Y-65095261D01*
X103822140Y-65095279D01*
X103650756Y-65415916D01*
X103650754Y-65415921D01*
X103511614Y-65751834D01*
X103406067Y-66099776D01*
X103406064Y-66099787D01*
X103335137Y-66456369D01*
X103313882Y-66672179D01*
X103300257Y-66810526D01*
X103299500Y-66818209D01*
X100207302Y-66818209D01*
X100219340Y-66496494D01*
X100220030Y-66487276D01*
X100275927Y-65991181D01*
X100277304Y-65982043D01*
X100370114Y-65491533D01*
X100372177Y-65482495D01*
X100501381Y-65000297D01*
X100504109Y-64991448D01*
X100668995Y-64520231D01*
X100672380Y-64511609D01*
X100676348Y-64502516D01*
X100872013Y-64054044D01*
X100876035Y-64045696D01*
X101109291Y-63604352D01*
X101113924Y-63596328D01*
X101379527Y-63173622D01*
X101384738Y-63165979D01*
X101681193Y-62764298D01*
X101686959Y-62757069D01*
X101752615Y-62680776D01*
X102012596Y-62378672D01*
X102018890Y-62371888D01*
X102371888Y-62018890D01*
X102378672Y-62012596D01*
X102588315Y-61832184D01*
X102757074Y-61686954D01*
X102764298Y-61681193D01*
X103165979Y-61384738D01*
X103173622Y-61379527D01*
X103596334Y-61113920D01*
X103604352Y-61109291D01*
X104045701Y-60876032D01*
X104054044Y-60872013D01*
X104511618Y-60672376D01*
X104520231Y-60668995D01*
X104991448Y-60504109D01*
X105000290Y-60501382D01*
X105281758Y-60425964D01*
X105482495Y-60372177D01*
X105491535Y-60370114D01*
X105499415Y-60368623D01*
X105982043Y-60277304D01*
X105991181Y-60275927D01*
X106487276Y-60220030D01*
X106496496Y-60219339D01*
X106959234Y-60202025D01*
X106997676Y-60200587D01*
X107002312Y-60200500D01*
X130039880Y-60200500D01*
X130039882Y-60200500D01*
X130113574Y-60169976D01*
X130169976Y-60113574D01*
X130200500Y-60039882D01*
X130200500Y-60002125D01*
X130200572Y-59997892D01*
X130207349Y-59799500D01*
X130218537Y-59471960D01*
X130219113Y-59463541D01*
X130272714Y-58942151D01*
X130273859Y-58933821D01*
X130362916Y-58417308D01*
X130364638Y-58409024D01*
X130488729Y-57899813D01*
X130490998Y-57891714D01*
X130649554Y-57392144D01*
X130652388Y-57384170D01*
X130844667Y-56896581D01*
X130848024Y-56888856D01*
X131073128Y-56415529D01*
X131076998Y-56408060D01*
X131333886Y-55951186D01*
X131338271Y-55943975D01*
X131625737Y-55505697D01*
X131630589Y-55498823D01*
X131947304Y-55081173D01*
X131952605Y-55074657D01*
X132297073Y-54679605D01*
X132302823Y-54673448D01*
X132673448Y-54302823D01*
X132679605Y-54297073D01*
X133074657Y-53952605D01*
X133081173Y-53947304D01*
X133498823Y-53630589D01*
X133505697Y-53625737D01*
X133943975Y-53338271D01*
X133951186Y-53333886D01*
X134408060Y-53076998D01*
X134415529Y-53073128D01*
X134888856Y-52848024D01*
X134896581Y-52844667D01*
X135384173Y-52652386D01*
X135392148Y-52649553D01*
X135891714Y-52490998D01*
X135899813Y-52488729D01*
X136409031Y-52364636D01*
X136417308Y-52362916D01*
X136933821Y-52273859D01*
X136942151Y-52272714D01*
X137463541Y-52219113D01*
X137471960Y-52218537D01*
X137997892Y-52200571D01*
X138002125Y-52200500D01*
X138039880Y-52200500D01*
X138039882Y-52200500D01*
X138113574Y-52169976D01*
X138169976Y-52113574D01*
X138200500Y-52039882D01*
X138200500Y-51960118D01*
X138200500Y-36897648D01*
X139879500Y-36897648D01*
X139879500Y-37102351D01*
X139911522Y-37304534D01*
X139974781Y-37499223D01*
X140067715Y-37681613D01*
X140188028Y-37847213D01*
X140332786Y-37991971D01*
X140487749Y-38104556D01*
X140498390Y-38112287D01*
X140614607Y-38171503D01*
X140680776Y-38205218D01*
X140680778Y-38205218D01*
X140680781Y-38205220D01*
X140760752Y-38231204D01*
X140875465Y-38268477D01*
X140976557Y-38284488D01*
X141077648Y-38300500D01*
X141077649Y-38300500D01*
X141282351Y-38300500D01*
X141282352Y-38300500D01*
X141484534Y-38268477D01*
X141679219Y-38205220D01*
X141861610Y-38112287D01*
X141990482Y-38018657D01*
X142027213Y-37991971D01*
X142027215Y-37991968D01*
X142027219Y-37991966D01*
X142171966Y-37847219D01*
X142171968Y-37847215D01*
X142171971Y-37847213D01*
X142276892Y-37702799D01*
X142292287Y-37681610D01*
X142385220Y-37499219D01*
X142448477Y-37304534D01*
X142480500Y-37102352D01*
X142480500Y-36897648D01*
X142448477Y-36695466D01*
X142385220Y-36500781D01*
X142385218Y-36500778D01*
X142385218Y-36500776D01*
X142333865Y-36399991D01*
X142292287Y-36318390D01*
X142276892Y-36297200D01*
X142171971Y-36152786D01*
X142027213Y-36008028D01*
X141861613Y-35887715D01*
X141861612Y-35887714D01*
X141861610Y-35887713D01*
X141801898Y-35857288D01*
X141679223Y-35794781D01*
X141484534Y-35731522D01*
X141309995Y-35703878D01*
X141282352Y-35699500D01*
X141077648Y-35699500D01*
X141053329Y-35703351D01*
X140875465Y-35731522D01*
X140680776Y-35794781D01*
X140498386Y-35887715D01*
X140332786Y-36008028D01*
X140188028Y-36152786D01*
X140067715Y-36318386D01*
X139974781Y-36500776D01*
X139911522Y-36695465D01*
X139879500Y-36897648D01*
X138200500Y-36897648D01*
X138200500Y-29002311D01*
X138200587Y-28997674D01*
X138207302Y-28818209D01*
X141299500Y-28818209D01*
X141299500Y-29181790D01*
X141335137Y-29543630D01*
X141406064Y-29900212D01*
X141406067Y-29900223D01*
X141511614Y-30248165D01*
X141650754Y-30584078D01*
X141650756Y-30584083D01*
X141822140Y-30904720D01*
X141822151Y-30904738D01*
X142024140Y-31207035D01*
X142024150Y-31207049D01*
X142254807Y-31488106D01*
X142511893Y-31745192D01*
X142511898Y-31745196D01*
X142511899Y-31745197D01*
X142792956Y-31975854D01*
X143095268Y-32177853D01*
X143095277Y-32177858D01*
X143095279Y-32177859D01*
X143415916Y-32349243D01*
X143415918Y-32349243D01*
X143415924Y-32349247D01*
X143751836Y-32488386D01*
X144099767Y-32593930D01*
X144099773Y-32593931D01*
X144099776Y-32593932D01*
X144099787Y-32593935D01*
X144456369Y-32664862D01*
X144818206Y-32700500D01*
X144818209Y-32700500D01*
X145181791Y-32700500D01*
X145181794Y-32700500D01*
X145543631Y-32664862D01*
X145613045Y-32651054D01*
X145900212Y-32593935D01*
X145900223Y-32593932D01*
X145900223Y-32593931D01*
X145900233Y-32593930D01*
X146248164Y-32488386D01*
X146584076Y-32349247D01*
X146904732Y-32177853D01*
X147207044Y-31975854D01*
X147488101Y-31745197D01*
X147745197Y-31488101D01*
X147975854Y-31207044D01*
X148177853Y-30904732D01*
X148349247Y-30584076D01*
X148488386Y-30248164D01*
X148593930Y-29900233D01*
X148593932Y-29900223D01*
X148593935Y-29900212D01*
X148664862Y-29543630D01*
X148700500Y-29181790D01*
X148700500Y-28818209D01*
X148664862Y-28456369D01*
X148593935Y-28099787D01*
X148593932Y-28099776D01*
X148593931Y-28099773D01*
X148593930Y-28099767D01*
X148488386Y-27751836D01*
X148349247Y-27415924D01*
X148177853Y-27095268D01*
X147975854Y-26792956D01*
X147745197Y-26511899D01*
X147745196Y-26511898D01*
X147745192Y-26511893D01*
X147488106Y-26254807D01*
X147207049Y-26024150D01*
X147207048Y-26024149D01*
X147207044Y-26024146D01*
X146904732Y-25822147D01*
X146904727Y-25822144D01*
X146904720Y-25822140D01*
X146584083Y-25650756D01*
X146584078Y-25650754D01*
X146248165Y-25511614D01*
X145900223Y-25406067D01*
X145900212Y-25406064D01*
X145543630Y-25335137D01*
X145271111Y-25308296D01*
X145181794Y-25299500D01*
X144818206Y-25299500D01*
X144735679Y-25307628D01*
X144456369Y-25335137D01*
X144099787Y-25406064D01*
X144099776Y-25406067D01*
X143751834Y-25511614D01*
X143415921Y-25650754D01*
X143415916Y-25650756D01*
X143095279Y-25822140D01*
X143095261Y-25822151D01*
X142792964Y-26024140D01*
X142792950Y-26024150D01*
X142511893Y-26254807D01*
X142254807Y-26511893D01*
X142024150Y-26792950D01*
X142024140Y-26792964D01*
X141822151Y-27095261D01*
X141822140Y-27095279D01*
X141650756Y-27415916D01*
X141650754Y-27415921D01*
X141511614Y-27751834D01*
X141406067Y-28099776D01*
X141406064Y-28099787D01*
X141335137Y-28456369D01*
X141299500Y-28818209D01*
X138207302Y-28818209D01*
X138207590Y-28810525D01*
X138207590Y-28810524D01*
X138219339Y-28496510D01*
X138219340Y-28496509D01*
X138219339Y-28496496D01*
X138220030Y-28487276D01*
X138275927Y-27991181D01*
X138277304Y-27982043D01*
X138370114Y-27491533D01*
X138372177Y-27482495D01*
X138501381Y-27000297D01*
X138504109Y-26991448D01*
X138668995Y-26520231D01*
X138672380Y-26511609D01*
X138742970Y-26349817D01*
X138872013Y-26054044D01*
X138876035Y-26045696D01*
X139109291Y-25604352D01*
X139113924Y-25596328D01*
X139379527Y-25173622D01*
X139384738Y-25165979D01*
X139681193Y-24764298D01*
X139686959Y-24757069D01*
X140012596Y-24378672D01*
X140018890Y-24371888D01*
X140371888Y-24018890D01*
X140378672Y-24012596D01*
X140757069Y-23686959D01*
X140764298Y-23681193D01*
X141165979Y-23384738D01*
X141173622Y-23379527D01*
X141596334Y-23113920D01*
X141604352Y-23109291D01*
X142045701Y-22876032D01*
X142054044Y-22872013D01*
X142511618Y-22672376D01*
X142520231Y-22668995D01*
X142991448Y-22504109D01*
X143000290Y-22501382D01*
X143269847Y-22429155D01*
X143482495Y-22372177D01*
X143491535Y-22370114D01*
X143982043Y-22277304D01*
X143991181Y-22275927D01*
X144487276Y-22220030D01*
X144496494Y-22219340D01*
X144995377Y-22200673D01*
X145004623Y-22200673D01*
X145503503Y-22219339D01*
G37*
G04 #@! TD.AperFunction*
M02*
