G04 #@! TF.GenerationSoftware,KiCad,Pcbnew,9.0.6*
G04 #@! TF.CreationDate,2025-12-08T21:21:55+02:00*
G04 #@! TF.ProjectId,tinywhoop_frame,74696e79-7768-46f6-9f70-5f6672616d65,rev?*
G04 #@! TF.SameCoordinates,Original*
G04 #@! TF.FileFunction,Soldermask,Top*
G04 #@! TF.FilePolarity,Negative*
%FSLAX46Y46*%
G04 Gerber Fmt 4.6, Leading zero omitted, Abs format (unit mm)*
G04 Created by KiCad (PCBNEW 9.0.6) date 2025-12-08 21:21:55*
%MOMM*%
%LPD*%
G01*
G04 APERTURE LIST*
G04 Aperture macros list*
%AMRoundRect*
0 Rectangle with rounded corners*
0 $1 Rounding radius*
0 $2 $3 $4 $5 $6 $7 $8 $9 X,Y pos of 4 corners*
0 Add a 4 corners polygon primitive as box body*
4,1,4,$2,$3,$4,$5,$6,$7,$8,$9,$2,$3,0*
0 Add four circle primitives for the rounded corners*
1,1,$1+$1,$2,$3*
1,1,$1+$1,$4,$5*
1,1,$1+$1,$6,$7*
1,1,$1+$1,$8,$9*
0 Add four rect primitives between the rounded corners*
20,1,$1+$1,$2,$3,$4,$5,0*
20,1,$1+$1,$4,$5,$6,$7,0*
20,1,$1+$1,$6,$7,$8,$9,0*
20,1,$1+$1,$8,$9,$2,$3,0*%
G04 Aperture macros list end*
%ADD10RoundRect,0.250000X0.337500X0.475000X-0.337500X0.475000X-0.337500X-0.475000X0.337500X-0.475000X0*%
%ADD11C,1.700000*%
%ADD12R,1.700000X1.700000*%
%ADD13RoundRect,0.150000X-0.150000X0.587500X-0.150000X-0.587500X0.150000X-0.587500X0.150000X0.587500X0*%
%ADD14RoundRect,0.250000X-0.550000X0.550000X-0.550000X-0.550000X0.550000X-0.550000X0.550000X0.550000X0*%
%ADD15C,1.600000*%
%ADD16RoundRect,0.250000X0.550000X0.550000X-0.550000X0.550000X-0.550000X-0.550000X0.550000X-0.550000X0*%
%ADD17RoundRect,0.150000X0.587500X0.150000X-0.587500X0.150000X-0.587500X-0.150000X0.587500X-0.150000X0*%
%ADD18RoundRect,0.250000X-0.450000X0.262500X-0.450000X-0.262500X0.450000X-0.262500X0.450000X0.262500X0*%
%ADD19RoundRect,0.250000X0.450000X-0.262500X0.450000X0.262500X-0.450000X0.262500X-0.450000X-0.262500X0*%
%ADD20RoundRect,0.150000X-0.587500X-0.150000X0.587500X-0.150000X0.587500X0.150000X-0.587500X0.150000X0*%
%ADD21RoundRect,0.150000X0.150000X-0.587500X0.150000X0.587500X-0.150000X0.587500X-0.150000X-0.587500X0*%
%ADD22RoundRect,0.250000X0.262500X0.450000X-0.262500X0.450000X-0.262500X-0.450000X0.262500X-0.450000X0*%
%ADD23RoundRect,0.250000X-0.550000X-0.550000X0.550000X-0.550000X0.550000X0.550000X-0.550000X0.550000X0*%
%ADD24RoundRect,0.250000X0.550000X-0.550000X0.550000X0.550000X-0.550000X0.550000X-0.550000X-0.550000X0*%
%ADD25RoundRect,0.250000X-0.262500X-0.450000X0.262500X-0.450000X0.262500X0.450000X-0.262500X0.450000X0*%
G04 APERTURE END LIST*
D10*
X141000000Y-82000000D03*
X143075000Y-82000000D03*
D11*
X156920000Y-68000000D03*
X156920000Y-65460000D03*
X159460000Y-68000000D03*
X159460000Y-65460000D03*
X162000000Y-68000000D03*
D12*
X162000000Y-65460000D03*
D13*
X145950000Y-92125000D03*
X144050000Y-92125000D03*
X145000000Y-94000000D03*
D14*
X115000000Y-63200000D03*
D15*
X115000000Y-70820000D03*
D16*
X148800000Y-37000000D03*
D15*
X141180000Y-37000000D03*
D17*
X120000000Y-68000000D03*
X120000000Y-66100000D03*
X118125000Y-67050000D03*
D18*
X167000000Y-66087500D03*
X167000000Y-67912500D03*
D19*
X123000000Y-68000000D03*
X123000000Y-66175000D03*
D20*
X170125000Y-66050000D03*
X170125000Y-67950000D03*
X172000000Y-67000000D03*
D21*
X144050000Y-41875000D03*
X145950000Y-41875000D03*
X145000000Y-40000000D03*
D22*
X145825000Y-89000000D03*
X144000000Y-89000000D03*
D12*
X131500000Y-69580000D03*
D11*
X131500000Y-67040000D03*
X131500000Y-64500000D03*
D23*
X141200000Y-97000000D03*
D15*
X148820000Y-97000000D03*
D12*
X136000000Y-60000000D03*
D11*
X136000000Y-62540000D03*
X136000000Y-65080000D03*
X136000000Y-67620000D03*
X136000000Y-70160000D03*
X136000000Y-72700000D03*
X136000000Y-75240000D03*
D24*
X175000000Y-70800000D03*
D15*
X175000000Y-63180000D03*
D12*
X140460000Y-79000000D03*
D11*
X143000000Y-79000000D03*
D25*
X144175000Y-45000000D03*
X146000000Y-45000000D03*
D12*
X153000000Y-59760000D03*
D11*
X153000000Y-62300000D03*
X153000000Y-64840000D03*
X153000000Y-67380000D03*
X153000000Y-69920000D03*
X153000000Y-72460000D03*
X153000000Y-75000000D03*
M02*
