G04 #@! TF.GenerationSoftware,KiCad,Pcbnew,9.0.6*
G04 #@! TF.CreationDate,2025-12-10T21:01:52+02:00*
G04 #@! TF.ProjectId,tinywhoop_frame,74696e79-7768-46f6-9f70-5f6672616d65,rev?*
G04 #@! TF.SameCoordinates,Original*
G04 #@! TF.FileFunction,Profile,NP*
%FSLAX46Y46*%
G04 Gerber Fmt 4.6, Leading zero omitted, Abs format (unit mm)*
G04 Created by KiCad (PCBNEW 9.0.6) date 2025-12-10 21:01:52*
%MOMM*%
%LPD*%
G01*
G04 APERTURE LIST*
G04 #@! TA.AperFunction,Profile*
%ADD10C,0.050000*%
G04 #@! TD*
G04 APERTURE END LIST*
D10*
X138000000Y-51800000D02*
X138000000Y-39000000D01*
X128200000Y-60000000D02*
X117000000Y-60000000D01*
X152000000Y-95000000D02*
G75*
G02*
X138000000Y-95000000I-7000000J0D01*
G01*
X136296681Y-81814375D02*
G75*
G02*
X130276532Y-75308172I1703319J7614375D01*
G01*
X117000000Y-74000000D02*
G75*
G02*
X117000000Y-60000000I0J7000000D01*
G01*
X176500000Y-67000000D02*
G75*
G02*
X169500000Y-67000000I-3500000J0D01*
G01*
X169500000Y-67000000D02*
G75*
G02*
X176500000Y-67000000I3500000J0D01*
G01*
X148500000Y-39000000D02*
G75*
G02*
X141500000Y-39000000I-3500000J0D01*
G01*
X141500000Y-39000000D02*
G75*
G02*
X148500000Y-39000000I3500000J0D01*
G01*
X130167225Y-58360601D02*
G75*
G02*
X137799999Y-52000000I7832775J-1639399D01*
G01*
X148500000Y-95000000D02*
G75*
G02*
X141500000Y-95000000I-3500000J0D01*
G01*
X141500000Y-95000000D02*
G75*
G02*
X148500000Y-95000000I3500000J0D01*
G01*
X136296681Y-81822127D02*
G75*
G02*
X138000000Y-83800000I-296681J-1977873D01*
G01*
X120500000Y-67000000D02*
G75*
G02*
X113500000Y-67000000I-3500000J0D01*
G01*
X113500000Y-67000000D02*
G75*
G02*
X120500000Y-67000000I3500000J0D01*
G01*
X152000000Y-83800000D02*
G75*
G02*
X153696670Y-81823136I2000000J0D01*
G01*
X152000000Y-83800000D02*
X152000000Y-95000000D01*
X159823146Y-75696628D02*
G75*
G02*
X153696671Y-81823137I-7823146J1696628D01*
G01*
X138000000Y-39000000D02*
G75*
G02*
X152000000Y-39000000I7000000J0D01*
G01*
X161800000Y-60000000D02*
G75*
G02*
X159832783Y-58360634I0J2000000D01*
G01*
X128400000Y-74000000D02*
G75*
G02*
X130276532Y-75308171I0J-2000000D01*
G01*
X153492792Y-52137965D02*
G75*
G02*
X159832777Y-58360601I-1492792J-7862035D01*
G01*
X152000000Y-39000000D02*
X152000000Y-50313905D01*
X138000000Y-83800000D02*
X138000000Y-95000000D01*
X130167216Y-58360642D02*
G75*
G02*
X128200000Y-60000000I-1967216J360642D01*
G01*
X159823144Y-75696619D02*
G75*
G02*
X161800000Y-74000000I1976856J-303381D01*
G01*
X117000000Y-74000000D02*
X128400000Y-74000000D01*
X138000000Y-51800000D02*
G75*
G02*
X137800000Y-52000000I-200000J0D01*
G01*
X173000000Y-60000000D02*
X161800000Y-60000000D01*
X153492787Y-52137965D02*
G75*
G02*
X152000000Y-50313905I507213J1937965D01*
G01*
X161800000Y-74000000D02*
X173000000Y-74000000D01*
X173000000Y-60000000D02*
G75*
G02*
X173000000Y-74000000I0J-7000000D01*
G01*
M02*
