G04 #@! TF.GenerationSoftware,KiCad,Pcbnew,9.0.6*
G04 #@! TF.CreationDate,2025-12-08T21:00:49+02:00*
G04 #@! TF.ProjectId,tinywhoop_frame,74696e79-7768-46f6-9f70-5f6672616d65,rev?*
G04 #@! TF.SameCoordinates,Original*
G04 #@! TF.FileFunction,Legend,Bot*
G04 #@! TF.FilePolarity,Positive*
%FSLAX46Y46*%
G04 Gerber Fmt 4.6, Leading zero omitted, Abs format (unit mm)*
G04 Created by KiCad (PCBNEW 9.0.6) date 2025-12-08 21:00:49*
%MOMM*%
%LPD*%
G01*
G04 APERTURE LIST*
G04 Aperture macros list*
%AMRoundRect*
0 Rectangle with rounded corners*
0 $1 Rounding radius*
0 $2 $3 $4 $5 $6 $7 $8 $9 X,Y pos of 4 corners*
0 Add a 4 corners polygon primitive as box body*
4,1,4,$2,$3,$4,$5,$6,$7,$8,$9,$2,$3,0*
0 Add four circle primitives for the rounded corners*
1,1,$1+$1,$2,$3*
1,1,$1+$1,$4,$5*
1,1,$1+$1,$6,$7*
1,1,$1+$1,$8,$9*
0 Add four rect primitives between the rounded corners*
20,1,$1+$1,$2,$3,$4,$5,0*
20,1,$1+$1,$4,$5,$6,$7,0*
20,1,$1+$1,$6,$7,$8,$9,0*
20,1,$1+$1,$8,$9,$2,$3,0*%
G04 Aperture macros list end*
%ADD10C,0.150000*%
%ADD11C,0.120000*%
%ADD12C,1.700000*%
%ADD13R,1.700000X1.700000*%
%ADD14RoundRect,0.250000X-0.550000X0.550000X-0.550000X-0.550000X0.550000X-0.550000X0.550000X0.550000X0*%
%ADD15C,1.600000*%
%ADD16RoundRect,0.250000X0.550000X0.550000X-0.550000X0.550000X-0.550000X-0.550000X0.550000X-0.550000X0*%
%ADD17RoundRect,0.250000X-0.550000X-0.550000X0.550000X-0.550000X0.550000X0.550000X-0.550000X0.550000X0*%
%ADD18RoundRect,0.250000X0.550000X-0.550000X0.550000X0.550000X-0.550000X0.550000X-0.550000X-0.550000X0*%
G04 APERTURE END LIST*
D10*
X164224819Y-66396666D02*
X164939104Y-66396666D01*
X164939104Y-66396666D02*
X165081961Y-66349047D01*
X165081961Y-66349047D02*
X165177200Y-66253809D01*
X165177200Y-66253809D02*
X165224819Y-66110952D01*
X165224819Y-66110952D02*
X165224819Y-66015714D01*
X164224819Y-67301428D02*
X164224819Y-67110952D01*
X164224819Y-67110952D02*
X164272438Y-67015714D01*
X164272438Y-67015714D02*
X164320057Y-66968095D01*
X164320057Y-66968095D02*
X164462914Y-66872857D01*
X164462914Y-66872857D02*
X164653390Y-66825238D01*
X164653390Y-66825238D02*
X165034342Y-66825238D01*
X165034342Y-66825238D02*
X165129580Y-66872857D01*
X165129580Y-66872857D02*
X165177200Y-66920476D01*
X165177200Y-66920476D02*
X165224819Y-67015714D01*
X165224819Y-67015714D02*
X165224819Y-67206190D01*
X165224819Y-67206190D02*
X165177200Y-67301428D01*
X165177200Y-67301428D02*
X165129580Y-67349047D01*
X165129580Y-67349047D02*
X165034342Y-67396666D01*
X165034342Y-67396666D02*
X164796247Y-67396666D01*
X164796247Y-67396666D02*
X164701009Y-67349047D01*
X164701009Y-67349047D02*
X164653390Y-67301428D01*
X164653390Y-67301428D02*
X164605771Y-67206190D01*
X164605771Y-67206190D02*
X164605771Y-67015714D01*
X164605771Y-67015714D02*
X164653390Y-66920476D01*
X164653390Y-66920476D02*
X164701009Y-66872857D01*
X164701009Y-66872857D02*
X164796247Y-66825238D01*
D11*
X160730000Y-64130000D02*
X155590000Y-64130000D01*
X163330000Y-64130000D02*
X162000000Y-64130000D01*
X163330000Y-65460000D02*
X163330000Y-64130000D01*
X160730000Y-66730000D02*
X160730000Y-64130000D01*
X163330000Y-66730000D02*
X160730000Y-66730000D01*
X155590000Y-69330000D02*
X155590000Y-64130000D01*
X163330000Y-69330000D02*
X163330000Y-66730000D01*
X163330000Y-69330000D02*
X155590000Y-69330000D01*
%LPC*%
D12*
X156920000Y-68000000D03*
X156920000Y-65460000D03*
X159460000Y-68000000D03*
X159460000Y-65460000D03*
X162000000Y-68000000D03*
D13*
X162000000Y-65460000D03*
D14*
X115000000Y-63200000D03*
D15*
X115000000Y-70820000D03*
D16*
X148800000Y-37000000D03*
D15*
X141180000Y-37000000D03*
D13*
X131500000Y-69580000D03*
D12*
X131500000Y-67040000D03*
X131500000Y-64500000D03*
D17*
X141200000Y-97000000D03*
D15*
X148820000Y-97000000D03*
D13*
X136000000Y-60000000D03*
D12*
X136000000Y-62540000D03*
X136000000Y-65080000D03*
X136000000Y-67620000D03*
X136000000Y-70160000D03*
X136000000Y-72700000D03*
X136000000Y-75240000D03*
D18*
X175000000Y-70800000D03*
D15*
X175000000Y-63180000D03*
D13*
X140460000Y-79000000D03*
D12*
X143000000Y-79000000D03*
D13*
X153000000Y-59760000D03*
D12*
X153000000Y-62300000D03*
X153000000Y-64840000D03*
X153000000Y-67380000D03*
X153000000Y-69920000D03*
X153000000Y-72460000D03*
X153000000Y-75000000D03*
%LPD*%
M02*
