G04 #@! TF.GenerationSoftware,KiCad,Pcbnew,9.0.6*
G04 #@! TF.CreationDate,2025-12-08T21:21:56+02:00*
G04 #@! TF.ProjectId,tinywhoop_frame,74696e79-7768-46f6-9f70-5f6672616d65,rev?*
G04 #@! TF.SameCoordinates,Original*
G04 #@! TF.FileFunction,Profile,NP*
%FSLAX46Y46*%
G04 Gerber Fmt 4.6, Leading zero omitted, Abs format (unit mm)*
G04 Created by KiCad (PCBNEW 9.0.6) date 2025-12-08 21:21:56*
%MOMM*%
%LPD*%
G01*
G04 APERTURE LIST*
G04 #@! TA.AperFunction,Profile*
%ADD10C,0.050000*%
G04 #@! TD*
G04 APERTURE END LIST*
D10*
X138000000Y-52000000D02*
X138000000Y-29000000D01*
X130000000Y-60000000D02*
X107000000Y-60000000D01*
X152000000Y-105000000D02*
G75*
G02*
X138000000Y-105000000I-7000000J0D01*
G01*
X138000000Y-82000000D02*
G75*
G02*
X130000000Y-74000000I0J8000000D01*
G01*
X107000000Y-74000000D02*
G75*
G02*
X107000000Y-60000000I0J7000000D01*
G01*
X186500000Y-67000000D02*
G75*
G02*
X179500000Y-67000000I-3500000J0D01*
G01*
X179500000Y-67000000D02*
G75*
G02*
X186500000Y-67000000I3500000J0D01*
G01*
X148500000Y-29000000D02*
G75*
G02*
X141500000Y-29000000I-3500000J0D01*
G01*
X141500000Y-29000000D02*
G75*
G02*
X148500000Y-29000000I3500000J0D01*
G01*
X130000000Y-60000000D02*
G75*
G02*
X138000000Y-52000000I8000000J0D01*
G01*
X148500000Y-105000000D02*
G75*
G02*
X141500000Y-105000000I-3500000J0D01*
G01*
X141500000Y-105000000D02*
G75*
G02*
X148500000Y-105000000I3500000J0D01*
G01*
X110500000Y-67000000D02*
G75*
G02*
X103500000Y-67000000I-3500000J0D01*
G01*
X103500000Y-67000000D02*
G75*
G02*
X110500000Y-67000000I3500000J0D01*
G01*
X152000000Y-82000000D02*
X152000000Y-105000000D01*
X160000000Y-74000000D02*
G75*
G02*
X152000000Y-82000000I-8000000J0D01*
G01*
X138000000Y-29000000D02*
G75*
G02*
X152000000Y-29000000I7000000J0D01*
G01*
X152000000Y-52000000D02*
G75*
G02*
X160000000Y-60000000I0J-8000000D01*
G01*
X152000000Y-29000000D02*
X152000000Y-52000000D01*
X138000000Y-82000000D02*
X138000000Y-105000000D01*
X107000000Y-74000000D02*
X130000000Y-74000000D01*
X183000000Y-60000000D02*
X160000000Y-60000000D01*
X160000000Y-74000000D02*
X183000000Y-74000000D01*
X183000000Y-60000000D02*
G75*
G02*
X183000000Y-74000000I0J-7000000D01*
G01*
M02*
